<?xml version="1.0" encoding="utf-8"?>
<!-- Generator: Adobe Illustrator 25.4.1, SVG Export Plug-In . SVG Version: 6.00 Build 0)  -->
<svg version="1.1" id="レイヤー_1" xmlns="http://www.w3.org/2000/svg" xmlns:xlink="http://www.w3.org/1999/xlink" x="0px"
	 y="0px" viewBox="0 0 414 162" style="enable-background:new 0 0 414 162;" xml:space="preserve">
<style type="text/css">
	.st0{opacity:0.3;}
	.st1{fill:#F8B62D;}
	.st2{opacity:0.4;}
	.st3{fill:#00A0E9;}
	.st4{fill:#FFFFFF;stroke:#000000;stroke-miterlimit:10;}
	.st5{fill:none;stroke:#000000;stroke-miterlimit:10;}
</style>
<g class="st0">
	<rect x="225" y="13.5" class="st1" width="135" height="135"/>
	<g class="st2">
		<path d="M359.5,14v134h-134V14H359.5 M360,13.5H225v135h135V13.5L360,13.5z"/>
	</g>
</g>
<g class="st0">
	<rect x="45.25" y="13.75" class="st3" width="134.5" height="134.5"/>
	<path d="M179.5,14v134h-134V14H179.5 M180,13.5H45v135h135V13.5L180,13.5z"/>
</g>
<g>
	<circle class="st4" cx="27" cy="36" r="13.5"/>
	<g>
		<path d="M24.93,34.31c0.22,0.24,0.39,0.47,0.51,0.71c0.08,0.16,0.22,0.59,0.4,1.29l0.6-0.9c0.16-0.22,0.35-0.43,0.58-0.63
			s0.43-0.33,0.6-0.41c0.11-0.05,0.23-0.07,0.36-0.07c0.2,0,0.35,0.05,0.47,0.16s0.17,0.23,0.17,0.38c0,0.17-0.03,0.29-0.1,0.36
			c-0.13,0.11-0.27,0.17-0.44,0.17c-0.1,0-0.2-0.02-0.31-0.06c-0.21-0.07-0.36-0.11-0.43-0.11c-0.11,0-0.24,0.06-0.39,0.19
			c-0.28,0.24-0.62,0.69-1.01,1.37l0.56,2.35c0.09,0.36,0.16,0.58,0.22,0.65s0.12,0.11,0.18,0.11c0.1,0,0.21-0.05,0.33-0.16
			c0.25-0.21,0.46-0.48,0.64-0.82l0.24,0.12c-0.29,0.54-0.65,0.98-1.09,1.34c-0.25,0.2-0.46,0.3-0.64,0.3
			c-0.26,0-0.46-0.14-0.61-0.43c-0.1-0.18-0.29-0.94-0.59-2.3c-0.71,1.23-1.28,2.03-1.71,2.39c-0.28,0.23-0.55,0.34-0.81,0.34
			c-0.18,0-0.35-0.07-0.5-0.2c-0.11-0.1-0.16-0.23-0.16-0.4c0-0.15,0.05-0.28,0.15-0.38s0.22-0.15,0.37-0.15s0.3,0.07,0.46,0.22
			c0.12,0.1,0.21,0.16,0.27,0.16c0.05,0,0.13-0.04,0.21-0.11c0.21-0.17,0.51-0.55,0.88-1.12s0.61-0.99,0.72-1.24
			c-0.28-1.11-0.44-1.69-0.46-1.76c-0.1-0.3-0.24-0.51-0.41-0.63s-0.42-0.18-0.75-0.18c-0.1,0-0.23,0-0.36,0.01v-0.25L24.93,34.31z"
			/>
	</g>
	<g>
		<path d="M30.44,37.72l1.29-0.63h0.13v4.47c0,0.3,0.01,0.48,0.04,0.55c0.03,0.07,0.08,0.13,0.15,0.17s0.24,0.06,0.48,0.07v0.14
			h-1.99v-0.14c0.25-0.01,0.41-0.03,0.48-0.06c0.07-0.04,0.12-0.09,0.15-0.15c0.03-0.06,0.04-0.25,0.04-0.57v-2.86
			c0-0.39-0.01-0.63-0.04-0.74c-0.02-0.08-0.05-0.14-0.1-0.18c-0.05-0.04-0.11-0.06-0.17-0.06c-0.1,0-0.23,0.04-0.4,0.12
			L30.44,37.72z"/>
	</g>
</g>
<g>
	<circle class="st4" cx="27" cy="108" r="13.5"/>
	<g>
		<path d="M24.93,106.31c0.22,0.24,0.39,0.47,0.51,0.71c0.08,0.16,0.22,0.59,0.4,1.29l0.6-0.9c0.16-0.22,0.35-0.43,0.58-0.63
			s0.43-0.33,0.6-0.41c0.11-0.05,0.23-0.07,0.36-0.07c0.2,0,0.35,0.05,0.47,0.16s0.17,0.23,0.17,0.38c0,0.17-0.03,0.29-0.1,0.36
			c-0.13,0.11-0.27,0.17-0.44,0.17c-0.1,0-0.2-0.02-0.31-0.06c-0.21-0.07-0.36-0.11-0.43-0.11c-0.11,0-0.24,0.06-0.39,0.19
			c-0.28,0.24-0.62,0.69-1.01,1.37l0.56,2.35c0.09,0.36,0.16,0.58,0.22,0.65s0.12,0.11,0.18,0.11c0.1,0,0.21-0.05,0.33-0.16
			c0.25-0.21,0.46-0.48,0.64-0.82l0.24,0.12c-0.29,0.54-0.65,0.98-1.09,1.34c-0.25,0.2-0.46,0.3-0.64,0.3
			c-0.26,0-0.46-0.14-0.61-0.43c-0.1-0.18-0.29-0.94-0.59-2.3c-0.71,1.23-1.28,2.03-1.71,2.39c-0.28,0.23-0.55,0.34-0.81,0.34
			c-0.18,0-0.35-0.07-0.5-0.2c-0.11-0.1-0.16-0.23-0.16-0.4c0-0.15,0.05-0.28,0.15-0.38s0.22-0.15,0.37-0.15s0.3,0.07,0.46,0.22
			c0.12,0.1,0.21,0.16,0.27,0.16c0.05,0,0.13-0.04,0.21-0.11c0.21-0.17,0.51-0.55,0.88-1.12s0.61-0.99,0.72-1.24
			c-0.28-1.11-0.44-1.69-0.46-1.76c-0.1-0.3-0.24-0.51-0.41-0.63s-0.42-0.18-0.75-0.18c-0.1,0-0.23,0-0.36,0.01v-0.25L24.93,106.31z
			"/>
	</g>
	<g>
		<path d="M33.17,113.48l-0.37,1.02h-3.12v-0.14c0.92-0.84,1.57-1.52,1.94-2.05s0.56-1.02,0.56-1.46c0-0.34-0.1-0.61-0.31-0.83
			c-0.21-0.22-0.45-0.32-0.74-0.32c-0.26,0-0.49,0.08-0.7,0.23s-0.36,0.38-0.46,0.67h-0.14c0.07-0.48,0.23-0.85,0.5-1.11
			s0.61-0.39,1.01-0.39c0.43,0,0.79,0.14,1.08,0.41c0.29,0.28,0.43,0.6,0.43,0.98c0,0.27-0.06,0.54-0.19,0.8
			c-0.19,0.42-0.5,0.87-0.94,1.34c-0.65,0.71-1.05,1.14-1.21,1.28h1.38c0.28,0,0.48-0.01,0.59-0.03s0.22-0.06,0.31-0.13
			c0.09-0.06,0.17-0.15,0.24-0.27H33.17z"/>
	</g>
</g>
<g>
	<circle class="st4" cx="207" cy="36" r="13.5"/>
	<g>
		<path d="M204.56,34.31c0.16,0.26,0.27,0.51,0.33,0.74c0.06,0.23,0.12,0.68,0.19,1.36l0.31,3.36c0.29-0.33,0.7-0.85,1.24-1.56
			c0.26-0.35,0.59-0.82,0.97-1.42c0.23-0.36,0.38-0.62,0.43-0.77c0.03-0.07,0.04-0.15,0.04-0.23c0-0.05-0.02-0.09-0.05-0.12
			s-0.12-0.07-0.26-0.11s-0.26-0.12-0.35-0.24s-0.14-0.25-0.14-0.4c0-0.19,0.06-0.34,0.17-0.45s0.26-0.17,0.43-0.17
			c0.21,0,0.39,0.08,0.54,0.25c0.15,0.17,0.22,0.4,0.22,0.69c0,0.36-0.13,0.77-0.39,1.23c-0.26,0.46-0.75,1.17-1.49,2.13
			s-1.62,2-2.67,3.13c-0.72,0.78-1.25,1.27-1.6,1.47s-0.65,0.3-0.89,0.3c-0.15,0-0.28-0.05-0.39-0.16s-0.17-0.23-0.17-0.37
			c0-0.18,0.08-0.34,0.23-0.49c0.15-0.15,0.32-0.22,0.5-0.22c0.09,0,0.17,0.02,0.24,0.06c0.04,0.02,0.08,0.09,0.12,0.19
			c0.05,0.11,0.09,0.18,0.12,0.22c0.02,0.02,0.05,0.03,0.09,0.03c0.03,0,0.08-0.02,0.15-0.07c0.26-0.15,0.57-0.4,0.91-0.74
			c0.46-0.45,0.8-0.81,1.01-1.09l-0.4-4.33c-0.07-0.72-0.17-1.15-0.3-1.31c-0.13-0.15-0.36-0.23-0.67-0.23
			c-0.1,0-0.28,0.01-0.54,0.04l-0.06-0.25L204.56,34.31z"/>
	</g>
	<g>
		<path d="M210.44,37.72l1.29-0.63h0.13v4.47c0,0.3,0.01,0.48,0.04,0.55c0.03,0.07,0.08,0.13,0.15,0.17s0.24,0.06,0.48,0.07v0.14
			h-1.99v-0.14c0.25-0.01,0.41-0.03,0.48-0.06c0.07-0.04,0.12-0.09,0.15-0.15c0.03-0.06,0.04-0.25,0.04-0.57v-2.86
			c0-0.39-0.01-0.63-0.04-0.74c-0.02-0.08-0.05-0.14-0.1-0.18c-0.05-0.04-0.11-0.06-0.17-0.06c-0.1,0-0.23,0.04-0.4,0.12
			L210.44,37.72z"/>
	</g>
	<g>
		<circle class="st4" cx="207" cy="36" r="13.5"/>
		<g>
			<path d="M206.51,30.78l-2.01,6.64c0.87-1.25,1.54-2.08,2.03-2.49c0.49-0.41,0.95-0.62,1.39-0.62c0.23,0,0.42,0.08,0.57,0.23
				s0.23,0.35,0.23,0.6c0,0.3-0.07,0.67-0.2,1.09l-0.87,2.86c-0.11,0.35-0.16,0.54-0.16,0.57c0,0.06,0.02,0.12,0.06,0.16
				c0.04,0.04,0.09,0.06,0.14,0.06c0.06,0,0.13-0.03,0.21-0.09c0.27-0.2,0.54-0.48,0.81-0.83l0.22,0.13
				c-0.16,0.24-0.39,0.51-0.68,0.8s-0.54,0.49-0.74,0.6s-0.39,0.17-0.55,0.17c-0.18,0-0.32-0.05-0.43-0.16
				c-0.11-0.11-0.17-0.25-0.17-0.41c0-0.2,0.08-0.57,0.25-1.12l0.82-2.73c0.1-0.34,0.16-0.61,0.16-0.81c0-0.09-0.03-0.16-0.09-0.22
				s-0.14-0.08-0.23-0.08c-0.14,0-0.3,0.05-0.47,0.15c-0.32,0.19-0.7,0.55-1.12,1.07c-0.11,0.14-0.5,0.71-1.14,1.71
				c-0.2,0.32-0.37,0.67-0.49,1.05l-0.46,1.4h-1.07l2.35-7.82l0.25-0.85c0-0.12-0.05-0.22-0.15-0.31s-0.23-0.14-0.38-0.14
				c-0.09,0-0.22,0.01-0.39,0.04l-0.15,0.02v-0.27L206.51,30.78z"/>
		</g>
		<g>
			<path d="M210.44,37.72l1.29-0.63h0.13v4.47c0,0.3,0.01,0.48,0.04,0.55c0.03,0.07,0.08,0.13,0.15,0.17s0.24,0.06,0.48,0.07v0.14
				h-1.99v-0.14c0.25-0.01,0.41-0.03,0.48-0.06c0.07-0.04,0.12-0.09,0.15-0.15c0.03-0.06,0.04-0.25,0.04-0.57v-2.86
				c0-0.39-0.01-0.63-0.04-0.74c-0.02-0.08-0.05-0.14-0.1-0.18c-0.05-0.04-0.11-0.06-0.17-0.06c-0.1,0-0.23,0.04-0.4,0.12
				L210.44,37.72z"/>
		</g>
	</g>
</g>
<g>
	<g>
		<circle class="st4" cx="99" cy="36" r="13.5"/>
		<g>
			<path d="M94.45,31.23h7.27l0.19,2.33h-0.27c-0.03-0.46-0.11-0.81-0.24-1.06s-0.3-0.42-0.53-0.53c-0.22-0.11-0.58-0.16-1.06-0.16
				h-3.31l2.95,3.62l-3.36,3.79h3.68c0.67,0,1.18-0.1,1.53-0.31s0.62-0.63,0.79-1.29l0.27,0.06l-0.42,2.8h-7.5v-0.25l3.73-4.21
				l-3.73-4.57V31.23z"/>
		</g>
	</g>
</g>
<g>
	<g>
		<circle class="st4" cx="99" cy="108" r="13.5"/>
		<g>
			<path d="M94.45,103.23h7.27l0.19,2.33h-0.27c-0.03-0.46-0.11-0.81-0.24-1.06s-0.3-0.42-0.53-0.53c-0.22-0.11-0.58-0.16-1.06-0.16
				h-3.31l2.95,3.62l-3.36,3.79h3.68c0.67,0,1.18-0.1,1.53-0.31s0.62-0.63,0.79-1.29l0.27,0.06l-0.42,2.8h-7.5v-0.25l3.73-4.21
				l-3.73-4.57V103.23z"/>
		</g>
	</g>
</g>
<g>
	<circle class="st4" cx="207" cy="108" r="13.5"/>
	<g>
		<path d="M204.56,106.31c0.16,0.26,0.27,0.51,0.33,0.74c0.06,0.23,0.12,0.68,0.19,1.36l0.31,3.36c0.29-0.33,0.7-0.85,1.24-1.56
			c0.26-0.35,0.59-0.82,0.97-1.42c0.23-0.36,0.38-0.62,0.43-0.77c0.03-0.07,0.04-0.15,0.04-0.23c0-0.05-0.02-0.09-0.05-0.12
			s-0.12-0.07-0.26-0.11s-0.26-0.12-0.35-0.24s-0.14-0.25-0.14-0.4c0-0.19,0.06-0.34,0.17-0.45s0.26-0.17,0.43-0.17
			c0.21,0,0.39,0.08,0.54,0.25c0.15,0.17,0.22,0.4,0.22,0.69c0,0.36-0.13,0.77-0.39,1.23c-0.26,0.46-0.75,1.17-1.49,2.13
			s-1.62,2-2.67,3.13c-0.72,0.78-1.25,1.27-1.6,1.47s-0.65,0.3-0.89,0.3c-0.15,0-0.28-0.05-0.39-0.16s-0.17-0.23-0.17-0.37
			c0-0.18,0.08-0.34,0.23-0.49c0.15-0.15,0.32-0.22,0.5-0.22c0.09,0,0.17,0.02,0.24,0.06c0.04,0.02,0.08,0.09,0.12,0.19
			c0.05,0.11,0.09,0.18,0.12,0.22c0.02,0.02,0.05,0.03,0.09,0.03c0.03,0,0.08-0.02,0.15-0.07c0.26-0.15,0.57-0.4,0.91-0.74
			c0.46-0.45,0.8-0.81,1.01-1.09l-0.4-4.33c-0.07-0.72-0.17-1.15-0.3-1.31c-0.13-0.15-0.36-0.23-0.67-0.23
			c-0.1,0-0.28,0.01-0.54,0.04l-0.06-0.25L204.56,106.31z"/>
	</g>
	<g>
		<path d="M210.44,109.72l1.29-0.63h0.13v4.47c0,0.3,0.01,0.48,0.04,0.55c0.03,0.07,0.08,0.13,0.15,0.17s0.24,0.06,0.48,0.07v0.14
			h-1.99v-0.14c0.25-0.01,0.41-0.03,0.48-0.06c0.07-0.04,0.12-0.09,0.15-0.15c0.03-0.06,0.04-0.25,0.04-0.57v-2.86
			c0-0.39-0.01-0.63-0.04-0.74c-0.02-0.08-0.05-0.14-0.1-0.18c-0.05-0.04-0.11-0.06-0.17-0.06c-0.1,0-0.23,0.04-0.4,0.12
			L210.44,109.72z"/>
	</g>
	<g>
		<circle class="st4" cx="207" cy="108" r="13.5"/>
		<g>
			<path d="M206.51,102.78l-2.01,6.64c0.87-1.25,1.54-2.08,2.03-2.49c0.49-0.41,0.95-0.62,1.39-0.62c0.23,0,0.42,0.08,0.57,0.23
				s0.23,0.35,0.23,0.6c0,0.3-0.07,0.67-0.2,1.09l-0.87,2.86c-0.11,0.35-0.16,0.54-0.16,0.57c0,0.06,0.02,0.12,0.06,0.16
				c0.04,0.04,0.09,0.06,0.14,0.06c0.06,0,0.13-0.03,0.21-0.09c0.27-0.2,0.54-0.48,0.81-0.83l0.22,0.13
				c-0.16,0.24-0.39,0.51-0.68,0.8s-0.54,0.49-0.74,0.6s-0.39,0.17-0.55,0.17c-0.18,0-0.32-0.05-0.43-0.16
				c-0.11-0.11-0.17-0.25-0.17-0.41c0-0.2,0.08-0.57,0.25-1.12l0.82-2.73c0.1-0.34,0.16-0.61,0.16-0.81c0-0.09-0.03-0.16-0.09-0.22
				s-0.14-0.08-0.23-0.08c-0.14,0-0.3,0.05-0.47,0.15c-0.32,0.19-0.7,0.55-1.12,1.07c-0.11,0.14-0.5,0.71-1.14,1.71
				c-0.2,0.32-0.37,0.67-0.49,1.05l-0.46,1.4h-1.07l2.35-7.82l0.25-0.85c0-0.12-0.05-0.22-0.15-0.31s-0.23-0.14-0.38-0.14
				c-0.09,0-0.22,0.01-0.39,0.04l-0.15,0.02v-0.27L206.51,102.78z"/>
		</g>
		<g>
			<path d="M213.17,113.48l-0.37,1.02h-3.12v-0.14c0.92-0.84,1.57-1.52,1.94-2.05s0.56-1.02,0.56-1.46c0-0.34-0.1-0.61-0.31-0.83
				c-0.21-0.22-0.45-0.32-0.74-0.32c-0.26,0-0.49,0.08-0.7,0.23s-0.36,0.38-0.46,0.67h-0.14c0.07-0.48,0.23-0.85,0.5-1.11
				s0.61-0.39,1.01-0.39c0.43,0,0.79,0.14,1.08,0.41c0.29,0.28,0.43,0.6,0.43,0.98c0,0.27-0.06,0.54-0.19,0.8
				c-0.19,0.42-0.5,0.87-0.94,1.34c-0.65,0.71-1.05,1.14-1.21,1.28h1.38c0.28,0,0.48-0.01,0.59-0.03s0.22-0.06,0.31-0.13
				c0.09-0.06,0.17-0.15,0.24-0.27H213.17z"/>
		</g>
	</g>
</g>
<g>
	<circle class="st4" cx="153" cy="36" r="13.5"/>
	<polyline class="st4" points="144,40.5 153,40.5 153,31.5 162,31.5 	"/>
</g>
<g>
	<circle class="st4" cx="153" cy="108" r="13.5"/>
	<polyline class="st4" points="144,112.5 153,112.5 153,103.5 162,103.5 	"/>
</g>
<g>
	<g>
		<line class="st5" x1="40.5" y1="36" x2="77.35" y2="36"/>
		<g>
			<path d="M75.55,36l-2.19-3.6l0.12-0.08l5.88,2.33c2.05,0.45,4.09,0.9,6.14,1.35c-2.05,0.45-4.09,0.9-6.14,1.35l-5.88,2.33
				l-0.12-0.06L75.55,36z"/>
		</g>
	</g>
</g>
<g>
	<g>
		<line class="st5" x1="40.5" y1="36" x2="81.18" y2="101.09"/>
		<g>
			<path d="M80.23,99.56l1.89-3.77l0.13,0.06l1.13,6.22c0.7,1.97,1.41,3.95,2.11,5.92c-1.47-1.5-2.93-2.99-4.4-4.49l-5.09-3.75
				l-0.01-0.14L80.23,99.56z"/>
		</g>
	</g>
</g>
<g>
	<g>
		<line class="st5" x1="40.5" y1="108" x2="81.18" y2="42.91"/>
		<g>
			<path d="M80.23,44.44l-4.22-0.05l0-0.15l5.09-3.75c1.47-1.5,2.93-2.99,4.4-4.49c-0.7,1.97-1.41,3.95-2.11,5.92l-1.13,6.22
				l-0.12,0.07L80.23,44.44z"/>
		</g>
	</g>
</g>
<g>
	<g>
		<line class="st5" x1="40.5" y1="108" x2="77.35" y2="108"/>
		<g>
			<path d="M75.55,108l-2.19-3.6l0.12-0.08l5.88,2.33c2.05,0.45,4.09,0.9,6.14,1.35c-2.05,0.45-4.09,0.9-6.14,1.35l-5.88,2.33
				l-0.12-0.06L75.55,108z"/>
		</g>
	</g>
</g>
<g>
	<g>
		<line class="st5" x1="112.5" y1="36" x2="131.35" y2="36"/>
		<g>
			<path d="M129.55,36l-2.19-3.6l0.12-0.08l5.88,2.33c2.05,0.45,4.09,0.9,6.14,1.35c-2.05,0.45-4.09,0.9-6.14,1.35l-5.88,2.33
				l-0.12-0.06L129.55,36z"/>
		</g>
	</g>
</g>
<g>
	<g>
		<line class="st5" x1="112.5" y1="108" x2="131.35" y2="108"/>
		<g>
			<path d="M129.55,108l-2.19-3.6l0.12-0.08l5.88,2.33c2.05,0.45,4.09,0.9,6.14,1.35c-2.05,0.45-4.09,0.9-6.14,1.35l-5.88,2.33
				l-0.12-0.06L129.55,108z"/>
		</g>
	</g>
</g>
<g>
	<g>
		<line class="st5" x1="166.5" y1="36" x2="185.35" y2="36"/>
		<g>
			<path d="M183.55,36l-2.19-3.6l0.12-0.08l5.88,2.33c2.05,0.45,4.09,0.9,6.14,1.35c-2.05,0.45-4.09,0.9-6.14,1.35l-5.88,2.33
				l-0.12-0.06L183.55,36z"/>
		</g>
	</g>
</g>
<g>
	<g>
		<line class="st5" x1="166.5" y1="108" x2="185.35" y2="108"/>
		<g>
			<path d="M183.55,108l-2.19-3.6l0.12-0.08l5.88,2.33c2.05,0.45,4.09,0.9,6.14,1.35c-2.05,0.45-4.09,0.9-6.14,1.35l-5.88,2.33
				l-0.12-0.06L183.55,108z"/>
		</g>
	</g>
</g>
<g>
	<path d="M50.62,31.68l0.69-6.62c0.03-0.25,0.04-0.45,0.04-0.59c0-0.23-0.06-0.4-0.19-0.52s-0.36-0.18-0.7-0.19l0.06-0.22h2.98
		l-0.06,0.22c-0.4,0-0.67,0.07-0.82,0.21s-0.25,0.5-0.3,1.08l-0.44,4.29l3.02-4.66c0-0.08,0.01-0.14,0.01-0.2
		c0-0.22-0.06-0.39-0.19-0.5s-0.41-0.19-0.83-0.22l0.05-0.22h3.22l-0.06,0.22c-0.37,0-0.62,0.04-0.75,0.09
		c-0.09,0.04-0.17,0.11-0.24,0.21s-0.12,0.26-0.16,0.49c-0.01,0.07-0.06,0.52-0.14,1.36s-0.21,1.98-0.38,3.43l2.51-3.82
		c0.27-0.42,0.45-0.71,0.52-0.88s0.11-0.31,0.11-0.43c0-0.11-0.05-0.21-0.14-0.29s-0.25-0.14-0.48-0.16l0.05-0.22h2.36l-0.06,0.22
		c-0.21,0.02-0.39,0.07-0.55,0.15s-0.35,0.25-0.57,0.49c-0.12,0.14-0.38,0.51-0.77,1.11l-3.99,6.15h-0.22l0.64-6.15l-3.99,6.15
		H50.62z"/>
</g>
<g>
	<path d="M59.95,29.92l0.97-0.47h0.1v3.35c0,0.22,0.01,0.36,0.03,0.42s0.06,0.1,0.12,0.13s0.18,0.05,0.36,0.05v0.11h-1.49v-0.11
		c0.19,0,0.31-0.02,0.36-0.05s0.09-0.07,0.11-0.11s0.03-0.19,0.03-0.43v-2.14c0-0.29-0.01-0.47-0.03-0.56
		c-0.01-0.06-0.04-0.11-0.07-0.14s-0.08-0.04-0.13-0.04c-0.07,0-0.17,0.03-0.3,0.09L59.95,29.92z"/>
	<path d="M62.57,34.5v-0.13c0.2-0.07,0.36-0.17,0.47-0.31s0.17-0.29,0.17-0.44c0-0.04-0.01-0.07-0.03-0.09
		c-0.01-0.02-0.03-0.03-0.04-0.03c-0.02,0-0.07,0.02-0.14,0.06c-0.04,0.02-0.07,0.03-0.11,0.03c-0.1,0-0.17-0.03-0.23-0.08
		s-0.08-0.13-0.08-0.23c0-0.1,0.04-0.18,0.11-0.25s0.16-0.1,0.27-0.1c0.13,0,0.24,0.06,0.34,0.17s0.15,0.26,0.15,0.45
		c0,0.2-0.07,0.39-0.21,0.56S62.88,34.4,62.57,34.5z"/>
	<path d="M64.45,29.92l0.97-0.47h0.1v3.35c0,0.22,0.01,0.36,0.03,0.42s0.06,0.1,0.12,0.13s0.18,0.05,0.36,0.05v0.11h-1.49v-0.11
		c0.19,0,0.31-0.02,0.36-0.05s0.09-0.07,0.11-0.11s0.03-0.19,0.03-0.43v-2.14c0-0.29-0.01-0.47-0.03-0.56
		c-0.01-0.06-0.04-0.11-0.07-0.14s-0.08-0.04-0.13-0.04c-0.07,0-0.17,0.03-0.3,0.09L64.45,29.92z"/>
</g>
<g>
	<path d="M77.62,63.18l0.69-6.62c0.03-0.25,0.04-0.45,0.04-0.59c0-0.23-0.06-0.4-0.19-0.52s-0.36-0.18-0.7-0.19l0.06-0.22h2.98
		l-0.06,0.22c-0.4,0-0.67,0.07-0.82,0.21s-0.25,0.5-0.3,1.08l-0.44,4.29l3.02-4.66c0-0.08,0.01-0.14,0.01-0.2
		c0-0.22-0.06-0.39-0.19-0.5s-0.41-0.19-0.83-0.22l0.05-0.22h3.22l-0.06,0.22c-0.37,0-0.62,0.04-0.75,0.09
		c-0.09,0.04-0.17,0.11-0.24,0.21s-0.12,0.26-0.16,0.49c-0.01,0.07-0.06,0.52-0.14,1.36s-0.21,1.98-0.38,3.43l2.51-3.82
		c0.27-0.42,0.45-0.71,0.52-0.88s0.11-0.31,0.11-0.43c0-0.11-0.05-0.21-0.14-0.29s-0.25-0.14-0.48-0.16l0.05-0.22h2.36l-0.06,0.22
		c-0.21,0.02-0.39,0.07-0.55,0.15s-0.35,0.25-0.57,0.49c-0.12,0.14-0.38,0.51-0.77,1.11l-3.99,6.15h-0.22l0.64-6.15l-3.99,6.15
		H77.62z"/>
</g>
<g>
	<path d="M89,64.24L88.72,65h-2.34v-0.11c0.69-0.63,1.17-1.14,1.46-1.54s0.42-0.76,0.42-1.09c0-0.25-0.08-0.46-0.23-0.62
		s-0.34-0.24-0.55-0.24c-0.2,0-0.37,0.06-0.53,0.17s-0.27,0.28-0.34,0.5h-0.11c0.05-0.36,0.17-0.64,0.38-0.83s0.45-0.29,0.76-0.29
		c0.32,0,0.59,0.1,0.81,0.31s0.32,0.45,0.32,0.73c0,0.2-0.05,0.4-0.14,0.6c-0.14,0.32-0.38,0.65-0.7,1
		c-0.49,0.53-0.79,0.85-0.91,0.96h1.04c0.21,0,0.36-0.01,0.44-0.02s0.16-0.05,0.23-0.1s0.13-0.12,0.18-0.2H89z"/>
	<path d="M89.57,66v-0.13c0.2-0.07,0.36-0.17,0.47-0.31s0.17-0.29,0.17-0.44c0-0.04-0.01-0.07-0.03-0.09
		C90.17,65.01,90.15,65,90.14,65c-0.02,0-0.07,0.02-0.14,0.06c-0.04,0.02-0.07,0.03-0.11,0.03c-0.1,0-0.17-0.03-0.23-0.08
		s-0.08-0.13-0.08-0.23c0-0.1,0.04-0.18,0.11-0.25s0.16-0.1,0.27-0.1c0.13,0,0.24,0.06,0.34,0.17s0.15,0.26,0.15,0.45
		c0,0.2-0.07,0.39-0.21,0.56S89.88,65.9,89.57,66z"/>
	<path d="M91.45,61.42l0.97-0.47h0.1v3.35c0,0.22,0.01,0.36,0.03,0.42s0.06,0.1,0.12,0.13s0.18,0.05,0.36,0.05V65h-1.49v-0.11
		c0.19,0,0.31-0.02,0.36-0.05s0.09-0.07,0.11-0.11s0.03-0.19,0.03-0.43v-2.14c0-0.29-0.01-0.47-0.03-0.56
		c-0.01-0.06-0.04-0.11-0.07-0.14s-0.08-0.04-0.13-0.04c-0.07,0-0.17,0.03-0.3,0.09L91.45,61.42z"/>
</g>
<g>
	<path d="M77.62,90.18l0.69-6.62c0.03-0.25,0.04-0.45,0.04-0.59c0-0.23-0.06-0.4-0.19-0.52s-0.36-0.18-0.7-0.19l0.06-0.22h2.98
		l-0.06,0.22c-0.4,0-0.67,0.07-0.82,0.21s-0.25,0.5-0.3,1.08l-0.44,4.29l3.02-4.66c0-0.08,0.01-0.14,0.01-0.2
		c0-0.22-0.06-0.39-0.19-0.5s-0.41-0.19-0.83-0.22l0.05-0.22h3.22l-0.06,0.22c-0.37,0-0.62,0.04-0.75,0.09
		c-0.09,0.04-0.17,0.11-0.24,0.21s-0.12,0.26-0.16,0.49c-0.01,0.07-0.06,0.52-0.14,1.36s-0.21,1.98-0.38,3.43l2.51-3.82
		c0.27-0.42,0.45-0.71,0.52-0.88s0.11-0.31,0.11-0.43c0-0.11-0.05-0.21-0.14-0.29s-0.25-0.14-0.48-0.16l0.05-0.22h2.36l-0.06,0.22
		c-0.21,0.02-0.39,0.07-0.55,0.15s-0.35,0.25-0.57,0.49c-0.12,0.14-0.38,0.51-0.77,1.11l-3.99,6.15h-0.22l0.64-6.15l-3.99,6.15
		H77.62z"/>
</g>
<g>
	<path d="M86.53,88.42l1.03-0.47h0.1v3.35c0,0.22,0.01,0.36,0.03,0.42c0.02,0.05,0.06,0.1,0.12,0.13c0.06,0.03,0.19,0.05,0.38,0.05
		V92H86.6v-0.11c0.2,0,0.33-0.02,0.39-0.05c0.06-0.03,0.1-0.07,0.12-0.11s0.03-0.19,0.03-0.43v-2.14c0-0.29-0.01-0.47-0.03-0.56
		c-0.01-0.06-0.04-0.11-0.08-0.14s-0.08-0.04-0.14-0.04c-0.08,0-0.18,0.03-0.32,0.09L86.53,88.42z"/>
	<path d="M89.31,93v-0.13c0.21-0.07,0.38-0.17,0.5-0.31s0.18-0.29,0.18-0.44c0-0.04-0.01-0.07-0.03-0.09
		C89.94,92.01,89.93,92,89.91,92c-0.02,0-0.07,0.02-0.15,0.06c-0.04,0.02-0.08,0.03-0.12,0.03c-0.1,0-0.18-0.03-0.24-0.08
		s-0.09-0.13-0.09-0.23c0-0.1,0.04-0.18,0.12-0.25c0.08-0.07,0.17-0.1,0.29-0.1c0.14,0,0.26,0.06,0.37,0.17s0.16,0.26,0.16,0.45
		c0,0.2-0.07,0.39-0.22,0.56S89.63,92.9,89.31,93z"/>
	<path d="M93.49,91.24L93.19,92H90.7v-0.11c0.73-0.63,1.25-1.14,1.55-1.54s0.45-0.76,0.45-1.09c0-0.25-0.08-0.46-0.25-0.62
		s-0.36-0.24-0.59-0.24c-0.21,0-0.39,0.06-0.56,0.17s-0.29,0.28-0.37,0.5h-0.12c0.05-0.36,0.19-0.64,0.4-0.83s0.48-0.29,0.8-0.29
		c0.34,0,0.63,0.1,0.86,0.31c0.23,0.21,0.34,0.45,0.34,0.73c0,0.2-0.05,0.4-0.15,0.6c-0.15,0.32-0.4,0.65-0.75,1
		c-0.52,0.53-0.84,0.85-0.97,0.96h1.1c0.22,0,0.38-0.01,0.47-0.02s0.17-0.05,0.24-0.1c0.07-0.05,0.14-0.12,0.19-0.2H93.49z"/>
</g>
<g>
	<path d="M50.62,121.68l0.69-6.62c0.03-0.25,0.04-0.45,0.04-0.59c0-0.23-0.06-0.4-0.19-0.52s-0.36-0.18-0.7-0.19l0.06-0.22h2.98
		l-0.06,0.22c-0.4,0-0.67,0.07-0.82,0.21s-0.25,0.5-0.3,1.08l-0.44,4.29l3.02-4.66c0-0.08,0.01-0.14,0.01-0.2
		c0-0.22-0.06-0.39-0.19-0.5s-0.41-0.19-0.83-0.22l0.05-0.22h3.22l-0.06,0.22c-0.37,0-0.62,0.04-0.75,0.09
		c-0.09,0.04-0.17,0.11-0.24,0.21s-0.12,0.26-0.16,0.49c-0.01,0.07-0.06,0.52-0.14,1.36s-0.21,1.98-0.38,3.43l2.51-3.82
		c0.27-0.42,0.45-0.71,0.52-0.88s0.11-0.31,0.11-0.43c0-0.11-0.05-0.21-0.14-0.29s-0.25-0.14-0.48-0.16l0.05-0.22h2.36l-0.06,0.22
		c-0.21,0.02-0.39,0.07-0.55,0.15s-0.35,0.25-0.57,0.49c-0.12,0.14-0.38,0.51-0.77,1.11l-3.99,6.15h-0.22l0.64-6.15l-3.99,6.15
		H50.62z"/>
</g>
<g>
	<path d="M62,122.74l-0.28,0.76h-2.34v-0.11c0.69-0.63,1.17-1.14,1.46-1.54s0.42-0.76,0.42-1.09c0-0.25-0.08-0.46-0.23-0.62
		s-0.34-0.24-0.55-0.24c-0.2,0-0.37,0.06-0.53,0.17s-0.27,0.28-0.34,0.5h-0.11c0.05-0.36,0.17-0.64,0.38-0.83s0.45-0.29,0.76-0.29
		c0.32,0,0.59,0.1,0.81,0.31s0.32,0.45,0.32,0.73c0,0.2-0.05,0.4-0.14,0.6c-0.14,0.32-0.38,0.65-0.7,1
		c-0.49,0.53-0.79,0.85-0.91,0.96h1.04c0.21,0,0.36-0.01,0.44-0.02s0.16-0.05,0.23-0.1s0.13-0.12,0.18-0.2H62z"/>
	<path d="M62.57,124.5v-0.13c0.2-0.07,0.36-0.17,0.47-0.31s0.17-0.29,0.17-0.44c0-0.04-0.01-0.07-0.03-0.09
		c-0.01-0.02-0.03-0.03-0.04-0.03c-0.02,0-0.07,0.02-0.14,0.06c-0.04,0.02-0.07,0.03-0.11,0.03c-0.1,0-0.17-0.03-0.23-0.08
		s-0.08-0.13-0.08-0.23c0-0.1,0.04-0.18,0.11-0.25s0.16-0.1,0.27-0.1c0.13,0,0.24,0.06,0.34,0.17s0.15,0.26,0.15,0.45
		c0,0.2-0.07,0.39-0.21,0.56S62.88,124.4,62.57,124.5z"/>
	<path d="M66.5,122.74l-0.28,0.76h-2.34v-0.11c0.69-0.63,1.17-1.14,1.46-1.54s0.42-0.76,0.42-1.09c0-0.25-0.08-0.46-0.23-0.62
		s-0.34-0.24-0.55-0.24c-0.2,0-0.37,0.06-0.53,0.17s-0.27,0.28-0.34,0.5h-0.11c0.05-0.36,0.17-0.64,0.38-0.83s0.45-0.29,0.76-0.29
		c0.32,0,0.59,0.1,0.81,0.31s0.32,0.45,0.32,0.73c0,0.2-0.05,0.4-0.14,0.6c-0.14,0.32-0.38,0.65-0.7,1
		c-0.49,0.53-0.79,0.85-0.91,0.96h1.04c0.21,0,0.36-0.01,0.44-0.02s0.16-0.05,0.23-0.1s0.13-0.12,0.18-0.2H66.5z"/>
</g>
<g>
	<path d="M156.79,54.32l-0.2,0.71h-1.14c0.09,0.25,0.13,0.48,0.13,0.69c0,0.6-0.26,1.14-0.77,1.61c-0.52,0.47-1.22,0.73-2.12,0.78
		c-0.48,0.15-0.85,0.32-1.09,0.52c-0.09,0.07-0.14,0.15-0.14,0.23c0,0.09,0.04,0.17,0.12,0.25s0.29,0.15,0.62,0.23l1.33,0.31
		c0.73,0.17,1.22,0.38,1.46,0.62c0.23,0.24,0.35,0.52,0.35,0.83c0,0.37-0.14,0.72-0.41,1.03c-0.28,0.31-0.68,0.55-1.21,0.73
		c-0.53,0.18-1.12,0.26-1.76,0.26c-0.57,0-1.08-0.07-1.54-0.2s-0.8-0.32-1-0.54c-0.2-0.23-0.3-0.46-0.3-0.7
		c0-0.2,0.06-0.4,0.19-0.61s0.29-0.39,0.49-0.52c0.12-0.09,0.47-0.29,1.05-0.62c-0.21-0.16-0.31-0.34-0.31-0.54
		c0-0.18,0.09-0.38,0.28-0.58s0.58-0.43,1.17-0.68c-0.5-0.1-0.9-0.31-1.19-0.63s-0.44-0.68-0.44-1.08c0-0.65,0.28-1.23,0.85-1.74
		s1.32-0.77,2.27-0.77c0.34,0,0.62,0.03,0.84,0.1s0.43,0.18,0.64,0.32H156.79z M151.15,60.08c-0.37,0.17-0.65,0.39-0.84,0.65
		c-0.19,0.26-0.28,0.52-0.28,0.78c0,0.3,0.14,0.55,0.41,0.75c0.39,0.28,0.97,0.42,1.72,0.42c0.65,0,1.21-0.11,1.67-0.33
		c0.46-0.22,0.69-0.51,0.69-0.86c0-0.18-0.09-0.35-0.26-0.51s-0.5-0.29-0.99-0.39C153,60.54,152.3,60.37,151.15,60.08z
		 M154.42,55.39c0-0.36-0.1-0.65-0.3-0.86c-0.2-0.21-0.47-0.31-0.8-0.31c-0.52,0-0.94,0.26-1.28,0.78s-0.5,1.06-0.5,1.62
		c0,0.35,0.11,0.64,0.32,0.86c0.21,0.22,0.47,0.33,0.78,0.33c0.24,0,0.47-0.07,0.7-0.2s0.42-0.31,0.57-0.55
		c0.15-0.23,0.28-0.53,0.37-0.89C154.38,55.81,154.42,55.55,154.42,55.39z"/>
</g>
<g>
	<path d="M156.79,126.32l-0.2,0.71h-1.14c0.09,0.25,0.13,0.48,0.13,0.69c0,0.6-0.25,1.14-0.77,1.61c-0.51,0.47-1.22,0.73-2.12,0.78
		c-0.48,0.15-0.84,0.32-1.09,0.52c-0.09,0.07-0.14,0.15-0.14,0.23c0,0.09,0.04,0.17,0.12,0.25s0.29,0.15,0.62,0.23l1.33,0.31
		c0.73,0.17,1.22,0.38,1.46,0.62c0.23,0.24,0.35,0.52,0.35,0.83c0,0.37-0.14,0.72-0.41,1.03c-0.28,0.31-0.68,0.55-1.21,0.73
		c-0.53,0.18-1.12,0.26-1.76,0.26c-0.56,0-1.08-0.07-1.54-0.2s-0.8-0.32-1-0.54c-0.2-0.23-0.3-0.46-0.3-0.7c0-0.2,0.07-0.4,0.2-0.61
		s0.29-0.39,0.49-0.52c0.12-0.09,0.47-0.29,1.05-0.62c-0.21-0.16-0.31-0.34-0.31-0.54c0-0.18,0.09-0.38,0.28-0.58
		s0.58-0.43,1.17-0.68c-0.5-0.1-0.9-0.31-1.19-0.63s-0.44-0.68-0.44-1.08c0-0.65,0.28-1.23,0.85-1.74s1.32-0.77,2.27-0.77
		c0.34,0,0.62,0.03,0.84,0.1s0.43,0.18,0.64,0.32H156.79z M151.15,132.08c-0.37,0.17-0.65,0.39-0.84,0.65
		c-0.19,0.26-0.28,0.52-0.28,0.78c0,0.3,0.14,0.55,0.41,0.75c0.39,0.28,0.97,0.42,1.72,0.42c0.65,0,1.21-0.11,1.67-0.33
		c0.46-0.22,0.69-0.51,0.69-0.86c0-0.18-0.08-0.35-0.26-0.51s-0.5-0.29-1-0.39C153,132.54,152.3,132.37,151.15,132.08z
		 M154.42,127.39c0-0.36-0.1-0.65-0.3-0.86c-0.2-0.21-0.47-0.31-0.8-0.31c-0.51,0-0.94,0.26-1.27,0.78s-0.5,1.06-0.5,1.62
		c0,0.35,0.11,0.64,0.32,0.86c0.21,0.22,0.47,0.33,0.78,0.33c0.24,0,0.48-0.07,0.7-0.2s0.42-0.31,0.57-0.55
		c0.16-0.23,0.28-0.53,0.37-0.89C154.38,127.81,154.42,127.55,154.42,127.39z"/>
</g>
<g>
	<circle class="st4" cx="387" cy="72" r="13.5"/>
	<g>
		<path d="M384.56,70.31c0.16,0.26,0.27,0.51,0.33,0.74c0.06,0.23,0.12,0.68,0.19,1.36l0.31,3.36c0.29-0.33,0.7-0.85,1.24-1.56
			c0.26-0.35,0.59-0.82,0.97-1.42c0.23-0.36,0.38-0.62,0.43-0.77c0.03-0.07,0.04-0.15,0.04-0.23c0-0.05-0.02-0.09-0.05-0.12
			s-0.12-0.07-0.26-0.11s-0.26-0.12-0.35-0.24s-0.14-0.25-0.14-0.4c0-0.19,0.06-0.34,0.17-0.45s0.26-0.17,0.43-0.17
			c0.21,0,0.39,0.08,0.54,0.25c0.15,0.17,0.22,0.4,0.22,0.69c0,0.36-0.13,0.77-0.39,1.23c-0.26,0.46-0.75,1.17-1.49,2.13
			s-1.62,2-2.67,3.13c-0.72,0.78-1.25,1.27-1.6,1.47s-0.65,0.3-0.89,0.3c-0.15,0-0.28-0.05-0.39-0.16s-0.17-0.23-0.17-0.37
			c0-0.18,0.08-0.34,0.23-0.49c0.15-0.15,0.32-0.22,0.5-0.22c0.09,0,0.17,0.02,0.24,0.06c0.04,0.02,0.08,0.09,0.12,0.19
			c0.05,0.11,0.09,0.18,0.12,0.22c0.02,0.02,0.05,0.03,0.09,0.03c0.03,0,0.08-0.02,0.15-0.07c0.26-0.15,0.57-0.4,0.91-0.74
			c0.46-0.45,0.8-0.81,1.01-1.09l-0.4-4.33c-0.07-0.72-0.17-1.15-0.3-1.31c-0.13-0.15-0.36-0.23-0.67-0.23
			c-0.1,0-0.28,0.01-0.54,0.04l-0.06-0.25L384.56,70.31z"/>
	</g>
	<g>
		<path d="M390.44,73.72l1.29-0.63h0.13v4.47c0,0.3,0.01,0.48,0.04,0.55c0.03,0.07,0.08,0.13,0.15,0.17s0.24,0.06,0.48,0.07v0.14
			h-1.99v-0.14c0.25-0.01,0.41-0.03,0.48-0.06c0.07-0.04,0.12-0.09,0.15-0.15c0.03-0.06,0.04-0.25,0.04-0.57v-2.86
			c0-0.39-0.01-0.63-0.04-0.74c-0.02-0.08-0.05-0.14-0.1-0.18c-0.05-0.04-0.11-0.06-0.17-0.06c-0.1,0-0.23,0.04-0.4,0.12
			L390.44,73.72z"/>
	</g>
	<g>
		<circle class="st4" cx="387" cy="72" r="13.5"/>
		<g>
			<path d="M384.56,70.31c0.16,0.26,0.27,0.51,0.33,0.74c0.06,0.23,0.12,0.68,0.19,1.36l0.31,3.36c0.29-0.33,0.7-0.85,1.24-1.56
				c0.26-0.35,0.59-0.82,0.97-1.42c0.23-0.36,0.38-0.62,0.43-0.77c0.03-0.07,0.04-0.15,0.04-0.23c0-0.05-0.02-0.09-0.05-0.12
				s-0.12-0.07-0.26-0.11s-0.26-0.12-0.35-0.24s-0.14-0.25-0.14-0.4c0-0.19,0.06-0.34,0.17-0.45s0.26-0.17,0.43-0.17
				c0.21,0,0.39,0.08,0.54,0.25c0.15,0.17,0.22,0.4,0.22,0.69c0,0.36-0.13,0.77-0.39,1.23c-0.26,0.46-0.75,1.17-1.49,2.13
				s-1.62,2-2.67,3.13c-0.72,0.78-1.25,1.27-1.6,1.47s-0.65,0.3-0.89,0.3c-0.15,0-0.28-0.05-0.39-0.16s-0.17-0.23-0.17-0.37
				c0-0.18,0.08-0.34,0.23-0.49c0.15-0.15,0.32-0.22,0.5-0.22c0.09,0,0.17,0.02,0.24,0.06c0.04,0.02,0.08,0.09,0.12,0.19
				c0.05,0.11,0.09,0.18,0.12,0.22c0.02,0.02,0.05,0.03,0.09,0.03c0.03,0,0.08-0.02,0.15-0.07c0.26-0.15,0.57-0.4,0.91-0.74
				c0.46-0.45,0.8-0.81,1.01-1.09l-0.4-4.33c-0.07-0.72-0.17-1.15-0.3-1.31c-0.13-0.15-0.36-0.23-0.67-0.23
				c-0.1,0-0.28,0.01-0.54,0.04l-0.06-0.25L384.56,70.31z"/>
		</g>
	</g>
</g>
<g>
	<g>
		<circle class="st4" cx="279" cy="72" r="13.5"/>
		<g>
			<path d="M274.45,67.23h7.27l0.19,2.33h-0.27c-0.03-0.46-0.11-0.81-0.24-1.06s-0.3-0.42-0.53-0.53c-0.22-0.11-0.58-0.16-1.06-0.16
				h-3.31l2.95,3.62l-3.36,3.79h3.68c0.67,0,1.18-0.1,1.53-0.31s0.62-0.63,0.79-1.29l0.27,0.06l-0.42,2.8h-7.5v-0.25l3.73-4.21
				l-3.73-4.57V67.23z"/>
		</g>
	</g>
</g>
<g>
	<circle class="st4" cx="333" cy="72" r="13.5"/>
	<polyline class="st4" points="324,76.5 333,76.5 333,67.5 342,67.5 	"/>
</g>
<g>
	<g>
		<line class="st5" x1="292.5" y1="72" x2="311.35" y2="72"/>
		<g>
			<path d="M309.55,72l-2.19-3.6l0.12-0.08l5.88,2.33c2.05,0.45,4.09,0.9,6.14,1.35c-2.05,0.45-4.09,0.9-6.14,1.35l-5.88,2.33
				l-0.12-0.06L309.55,72z"/>
		</g>
	</g>
</g>
<g>
	<g>
		<line class="st5" x1="346.5" y1="72" x2="365.35" y2="72"/>
		<g>
			<path d="M363.55,72l-2.19-3.6l0.12-0.08l5.88,2.33c2.05,0.45,4.09,0.9,6.14,1.35c-2.05,0.45-4.09,0.9-6.14,1.35l-5.88,2.33
				l-0.12-0.06L363.55,72z"/>
		</g>
	</g>
</g>
<g>
	<path d="M336.79,90.32l-0.2,0.71h-1.14c0.09,0.25,0.13,0.48,0.13,0.69c0,0.6-0.26,1.14-0.77,1.61c-0.52,0.47-1.22,0.73-2.12,0.78
		c-0.48,0.15-0.85,0.32-1.09,0.52c-0.09,0.07-0.14,0.15-0.14,0.23c0,0.09,0.04,0.17,0.12,0.25s0.29,0.15,0.62,0.23l1.33,0.31
		c0.73,0.17,1.22,0.38,1.46,0.62c0.23,0.24,0.35,0.52,0.35,0.83c0,0.37-0.14,0.72-0.41,1.03c-0.28,0.31-0.68,0.55-1.21,0.73
		c-0.53,0.18-1.12,0.26-1.76,0.26c-0.57,0-1.08-0.07-1.54-0.2s-0.8-0.32-1-0.54c-0.2-0.23-0.3-0.46-0.3-0.7
		c0-0.2,0.06-0.4,0.19-0.61s0.29-0.39,0.49-0.52c0.12-0.09,0.47-0.29,1.05-0.62c-0.21-0.16-0.31-0.34-0.31-0.54
		c0-0.18,0.09-0.38,0.28-0.58s0.58-0.43,1.17-0.68c-0.5-0.1-0.9-0.31-1.19-0.63s-0.44-0.68-0.44-1.08c0-0.65,0.28-1.23,0.85-1.74
		s1.32-0.77,2.27-0.77c0.34,0,0.62,0.03,0.84,0.1s0.43,0.18,0.64,0.32H336.79z M331.15,96.08c-0.37,0.17-0.65,0.39-0.84,0.65
		c-0.19,0.26-0.28,0.52-0.28,0.78c0,0.3,0.14,0.55,0.41,0.75c0.39,0.28,0.97,0.42,1.72,0.42c0.65,0,1.21-0.11,1.67-0.33
		c0.46-0.22,0.69-0.51,0.69-0.86c0-0.18-0.09-0.35-0.26-0.51s-0.5-0.29-0.99-0.39C333,96.54,332.3,96.37,331.15,96.08z
		 M334.42,91.39c0-0.36-0.1-0.65-0.3-0.86c-0.2-0.21-0.47-0.31-0.8-0.31c-0.52,0-0.94,0.26-1.28,0.78s-0.5,1.06-0.5,1.62
		c0,0.35,0.11,0.64,0.32,0.86c0.21,0.22,0.47,0.33,0.78,0.33c0.24,0,0.47-0.07,0.7-0.2s0.42-0.31,0.57-0.55
		c0.15-0.23,0.28-0.53,0.37-0.89C334.38,91.81,334.42,91.55,334.42,91.39z"/>
</g>
<g>
	<g>
		<line class="st5" x1="220.5" y1="36" x2="259.13" y2="66.91"/>
		<g>
			<path d="M257.73,65.79l0.54-4.18l0.15,0.01l3.13,5.49c1.32,1.63,2.63,3.26,3.95,4.89c-1.88-0.93-3.76-1.85-5.64-2.78l-6.05-1.85
				l-0.06-0.12L257.73,65.79z"/>
		</g>
	</g>
</g>
<g>
	<g>
		<line class="st5" x1="220.5" y1="108" x2="259.13" y2="77.09"/>
		<g>
			<path d="M257.73,78.21l-3.96-1.44l0.05-0.14l6.05-1.85c1.88-0.93,3.76-1.85,5.64-2.78c-1.32,1.63-2.63,3.26-3.95,4.89l-3.13,5.49
				l-0.13,0.03L257.73,78.21z"/>
		</g>
	</g>
</g>
<g>
	<path d="M159.36,57.17v0.11c-0.29-0.15-0.54-0.32-0.74-0.52c-0.28-0.28-0.5-0.62-0.65-1s-0.23-0.78-0.23-1.2
		c0-0.61,0.15-1.16,0.45-1.66s0.69-0.86,1.17-1.07v0.12c-0.24,0.13-0.44,0.31-0.59,0.54s-0.27,0.52-0.35,0.88s-0.11,0.72-0.11,1.11
		c0,0.42,0.03,0.8,0.1,1.14c0.05,0.27,0.11,0.49,0.18,0.65s0.17,0.32,0.29,0.47C159.01,56.89,159.17,57.04,159.36,57.17z"/>
	<path d="M160.2,52.42l0.97-0.47h0.1v3.35c0,0.22,0.01,0.36,0.03,0.42c0.02,0.05,0.06,0.1,0.12,0.13s0.18,0.05,0.36,0.05V56h-1.49
		v-0.11c0.19,0,0.31-0.02,0.36-0.05s0.09-0.07,0.11-0.11s0.03-0.19,0.03-0.43v-2.14c0-0.29-0.01-0.47-0.03-0.56
		c-0.01-0.06-0.04-0.11-0.07-0.14c-0.04-0.03-0.08-0.04-0.13-0.04c-0.07,0-0.17,0.03-0.3,0.09L160.2,52.42z"/>
	<path d="M162.63,51.96v-0.12c0.3,0.15,0.54,0.32,0.74,0.52c0.28,0.29,0.5,0.62,0.65,1s0.23,0.78,0.23,1.2
		c0,0.61-0.15,1.16-0.45,1.66s-0.69,0.86-1.17,1.07v-0.11c0.24-0.13,0.44-0.32,0.59-0.55c0.15-0.23,0.27-0.52,0.35-0.88
		c0.07-0.35,0.11-0.72,0.11-1.11c0-0.42-0.03-0.8-0.1-1.14c-0.05-0.27-0.11-0.49-0.18-0.65c-0.07-0.16-0.17-0.32-0.29-0.47
		S162.83,52.09,162.63,51.96z"/>
</g>
<g>
	<path d="M159.36,129.17v0.11c-0.29-0.15-0.54-0.32-0.74-0.52c-0.28-0.28-0.5-0.62-0.65-1s-0.23-0.78-0.23-1.2
		c0-0.61,0.15-1.16,0.45-1.66s0.69-0.86,1.17-1.07v0.12c-0.24,0.13-0.44,0.31-0.59,0.54s-0.27,0.52-0.35,0.88s-0.11,0.72-0.11,1.11
		c0,0.42,0.03,0.8,0.1,1.14c0.05,0.27,0.11,0.49,0.18,0.65s0.17,0.32,0.29,0.47C159.01,128.89,159.17,129.04,159.36,129.17z"/>
	<path d="M160.2,124.42l0.97-0.47h0.1v3.35c0,0.22,0.01,0.36,0.03,0.42c0.02,0.05,0.06,0.1,0.12,0.13s0.18,0.05,0.36,0.05V128h-1.49
		v-0.11c0.19,0,0.31-0.02,0.36-0.05s0.09-0.07,0.11-0.11s0.03-0.19,0.03-0.43v-2.14c0-0.29-0.01-0.47-0.03-0.56
		c-0.01-0.06-0.04-0.11-0.07-0.14c-0.04-0.03-0.08-0.04-0.13-0.04c-0.07,0-0.17,0.03-0.3,0.09L160.2,124.42z"/>
	<path d="M162.63,123.96v-0.12c0.3,0.15,0.54,0.32,0.74,0.52c0.28,0.29,0.5,0.62,0.65,1s0.23,0.78,0.23,1.2
		c0,0.61-0.15,1.16-0.45,1.66s-0.69,0.86-1.17,1.07v-0.11c0.24-0.13,0.44-0.32,0.59-0.55c0.15-0.23,0.27-0.52,0.35-0.88
		c0.07-0.35,0.11-0.72,0.11-1.11c0-0.42-0.03-0.8-0.1-1.14c-0.05-0.27-0.11-0.49-0.18-0.65c-0.07-0.16-0.17-0.32-0.29-0.47
		S162.83,124.09,162.63,123.96z"/>
</g>
<g>
	<path d="M339.36,93.17v0.11c-0.29-0.15-0.54-0.32-0.74-0.52c-0.28-0.28-0.5-0.62-0.65-1s-0.23-0.78-0.23-1.2
		c0-0.61,0.15-1.16,0.45-1.66s0.69-0.86,1.17-1.07v0.12c-0.24,0.13-0.44,0.31-0.59,0.54s-0.27,0.52-0.35,0.88s-0.11,0.72-0.11,1.11
		c0,0.42,0.03,0.8,0.1,1.14c0.05,0.27,0.11,0.49,0.18,0.65s0.17,0.32,0.29,0.47C339.01,92.89,339.17,93.04,339.36,93.17z"/>
	<path d="M342.25,91.24L341.97,92h-2.34v-0.11c0.69-0.63,1.17-1.14,1.46-1.54s0.42-0.76,0.42-1.09c0-0.25-0.08-0.46-0.23-0.62
		s-0.34-0.24-0.55-0.24c-0.2,0-0.37,0.06-0.53,0.17c-0.15,0.11-0.27,0.28-0.34,0.5h-0.11c0.05-0.36,0.17-0.64,0.38-0.83
		c0.2-0.19,0.46-0.29,0.76-0.29c0.32,0,0.59,0.1,0.81,0.31s0.32,0.45,0.32,0.73c0,0.2-0.05,0.4-0.14,0.6c-0.14,0.32-0.38,0.65-0.7,1
		c-0.49,0.53-0.79,0.85-0.91,0.96h1.04c0.21,0,0.36-0.01,0.44-0.02c0.08-0.02,0.16-0.05,0.23-0.1s0.13-0.12,0.18-0.2H342.25z"/>
	<path d="M342.63,87.96v-0.12c0.3,0.15,0.54,0.32,0.74,0.52c0.28,0.29,0.5,0.62,0.65,1s0.23,0.78,0.23,1.2
		c0,0.61-0.15,1.16-0.45,1.66s-0.69,0.86-1.17,1.07v-0.11c0.24-0.13,0.44-0.32,0.59-0.55c0.15-0.23,0.27-0.52,0.35-0.88
		c0.07-0.35,0.11-0.72,0.11-1.11c0-0.42-0.03-0.8-0.1-1.14c-0.05-0.27-0.11-0.49-0.18-0.65c-0.07-0.16-0.17-0.32-0.29-0.47
		S342.83,88.09,342.63,87.96z"/>
</g>
<g>
	<path d="M64.86,25.67v0.11c-0.29-0.15-0.54-0.32-0.74-0.52c-0.28-0.28-0.5-0.62-0.65-1s-0.23-0.78-0.23-1.2
		c0-0.61,0.15-1.16,0.45-1.66s0.69-0.86,1.17-1.07v0.12c-0.24,0.13-0.44,0.31-0.59,0.54s-0.27,0.52-0.35,0.88s-0.11,0.72-0.11,1.11
		c0,0.42,0.03,0.8,0.1,1.14c0.05,0.27,0.11,0.49,0.18,0.65s0.17,0.32,0.29,0.47C64.51,25.39,64.67,25.54,64.86,25.67z"/>
	<path d="M65.7,20.92l0.97-0.47h0.1v3.35c0,0.22,0.01,0.36,0.03,0.42c0.02,0.05,0.06,0.1,0.12,0.13s0.18,0.05,0.36,0.05v0.11h-1.49
		v-0.11c0.19,0,0.31-0.02,0.36-0.05s0.09-0.07,0.11-0.11s0.03-0.19,0.03-0.43v-2.14c0-0.29-0.01-0.47-0.03-0.56
		c-0.01-0.06-0.04-0.11-0.07-0.14c-0.04-0.03-0.08-0.04-0.13-0.04c-0.07,0-0.17,0.03-0.3,0.09L65.7,20.92z"/>
	<path d="M68.13,20.46v-0.12c0.3,0.15,0.54,0.32,0.74,0.52c0.28,0.29,0.5,0.62,0.65,1s0.23,0.78,0.23,1.2
		c0,0.61-0.15,1.16-0.45,1.66s-0.69,0.86-1.17,1.07v-0.11c0.24-0.13,0.44-0.32,0.59-0.55c0.15-0.23,0.27-0.52,0.35-0.88
		c0.07-0.35,0.11-0.72,0.11-1.11c0-0.42-0.03-0.8-0.1-1.14c-0.05-0.27-0.11-0.49-0.18-0.65c-0.07-0.16-0.17-0.32-0.29-0.47
		S68.33,20.59,68.13,20.46z"/>
</g>
<g>
	<path d="M91.86,57.17v0.11c-0.29-0.15-0.54-0.32-0.74-0.52c-0.28-0.28-0.5-0.62-0.65-1s-0.23-0.78-0.23-1.2
		c0-0.61,0.15-1.16,0.45-1.66s0.69-0.86,1.17-1.07v0.12c-0.24,0.13-0.44,0.31-0.59,0.54s-0.27,0.52-0.35,0.88s-0.11,0.72-0.11,1.11
		c0,0.42,0.03,0.8,0.1,1.14c0.05,0.27,0.11,0.49,0.18,0.65s0.17,0.32,0.29,0.47C91.51,56.89,91.67,57.04,91.86,57.17z"/>
	<path d="M92.7,52.42l0.97-0.47h0.1v3.35c0,0.22,0.01,0.36,0.03,0.42c0.02,0.05,0.06,0.1,0.12,0.13s0.18,0.05,0.36,0.05V56h-1.49
		v-0.11c0.19,0,0.31-0.02,0.36-0.05s0.09-0.07,0.11-0.11s0.03-0.19,0.03-0.43v-2.14c0-0.29-0.01-0.47-0.03-0.56
		c-0.01-0.06-0.04-0.11-0.07-0.14c-0.04-0.03-0.08-0.04-0.13-0.04c-0.07,0-0.17,0.03-0.3,0.09L92.7,52.42z"/>
	<path d="M95.13,51.96v-0.12c0.3,0.15,0.54,0.32,0.74,0.52c0.28,0.29,0.5,0.62,0.65,1c0.15,0.38,0.23,0.78,0.23,1.2
		c0,0.61-0.15,1.16-0.45,1.66c-0.3,0.5-0.69,0.86-1.17,1.07v-0.11c0.24-0.13,0.44-0.32,0.59-0.55c0.15-0.23,0.27-0.52,0.35-0.88
		c0.07-0.35,0.11-0.72,0.11-1.11c0-0.42-0.03-0.8-0.1-1.14c-0.05-0.27-0.11-0.49-0.18-0.65c-0.07-0.16-0.17-0.32-0.29-0.47
		S95.33,52.09,95.13,51.96z"/>
</g>
<g>
	<path d="M64.86,115.67v0.11c-0.29-0.15-0.54-0.32-0.74-0.52c-0.28-0.28-0.5-0.62-0.65-1s-0.23-0.78-0.23-1.2
		c0-0.61,0.15-1.16,0.45-1.66s0.69-0.86,1.17-1.07v0.12c-0.24,0.13-0.44,0.31-0.59,0.54s-0.27,0.52-0.35,0.88s-0.11,0.72-0.11,1.11
		c0,0.42,0.03,0.8,0.1,1.14c0.05,0.27,0.11,0.49,0.18,0.65s0.17,0.32,0.29,0.47C64.51,115.39,64.67,115.54,64.86,115.67z"/>
	<path d="M65.7,110.92l0.97-0.47h0.1v3.35c0,0.22,0.01,0.36,0.03,0.42c0.02,0.05,0.06,0.1,0.12,0.13s0.18,0.05,0.36,0.05v0.11h-1.49
		v-0.11c0.19,0,0.31-0.02,0.36-0.05s0.09-0.07,0.11-0.11s0.03-0.19,0.03-0.43v-2.14c0-0.29-0.01-0.47-0.03-0.56
		c-0.01-0.06-0.04-0.11-0.07-0.14c-0.04-0.03-0.08-0.04-0.13-0.04c-0.07,0-0.17,0.03-0.3,0.09L65.7,110.92z"/>
	<path d="M68.13,110.46v-0.12c0.3,0.15,0.54,0.32,0.74,0.52c0.28,0.29,0.5,0.62,0.65,1s0.23,0.78,0.23,1.2
		c0,0.61-0.15,1.16-0.45,1.66s-0.69,0.86-1.17,1.07v-0.11c0.24-0.13,0.44-0.32,0.59-0.55c0.15-0.23,0.27-0.52,0.35-0.88
		c0.07-0.35,0.11-0.72,0.11-1.11c0-0.42-0.03-0.8-0.1-1.14c-0.05-0.27-0.11-0.49-0.18-0.65c-0.07-0.16-0.17-0.32-0.29-0.47
		S68.33,110.59,68.13,110.46z"/>
</g>
<g>
	<path d="M91.63,84.17v0.11c-0.29-0.15-0.54-0.32-0.74-0.52c-0.28-0.28-0.5-0.62-0.65-1s-0.23-0.78-0.23-1.2
		c0-0.61,0.15-1.16,0.45-1.66s0.69-0.86,1.17-1.07v0.12c-0.24,0.13-0.44,0.31-0.59,0.54s-0.27,0.52-0.35,0.88s-0.11,0.72-0.11,1.11
		c0,0.42,0.03,0.8,0.1,1.14c0.05,0.27,0.11,0.49,0.18,0.65s0.17,0.32,0.29,0.47C91.27,83.89,91.43,84.04,91.63,84.17z"/>
	<path d="M92.47,79.42l0.97-0.47h0.1v3.35c0,0.22,0.01,0.36,0.03,0.42c0.02,0.05,0.06,0.1,0.12,0.13s0.18,0.05,0.36,0.05V83h-1.49
		v-0.11c0.19,0,0.31-0.02,0.36-0.05s0.09-0.07,0.11-0.11s0.03-0.19,0.03-0.43v-2.14c0-0.29-0.01-0.47-0.03-0.56
		c-0.01-0.06-0.04-0.11-0.07-0.14c-0.04-0.03-0.08-0.04-0.13-0.04c-0.07,0-0.17,0.03-0.3,0.09L92.47,79.42z"/>
	<path d="M94.9,78.96v-0.12c0.3,0.15,0.54,0.32,0.74,0.52c0.28,0.29,0.5,0.62,0.65,1s0.23,0.78,0.23,1.2c0,0.61-0.15,1.16-0.45,1.66
		s-0.69,0.86-1.17,1.07v-0.11c0.24-0.13,0.44-0.32,0.59-0.55c0.15-0.23,0.27-0.52,0.35-0.88c0.07-0.35,0.11-0.72,0.11-1.11
		c0-0.42-0.03-0.8-0.1-1.14c-0.05-0.27-0.11-0.49-0.18-0.65c-0.07-0.16-0.17-0.32-0.29-0.47S95.1,79.09,94.9,78.96z"/>
</g>
<g>
	<path d="M239.62,49.68l0.69-6.62c0.03-0.25,0.04-0.45,0.04-0.59c0-0.23-0.06-0.4-0.19-0.52s-0.36-0.18-0.7-0.19l0.06-0.22h2.98
		l-0.06,0.22c-0.4,0-0.67,0.07-0.82,0.21s-0.25,0.5-0.3,1.08l-0.44,4.29l3.02-4.66c0-0.08,0.01-0.14,0.01-0.2
		c0-0.22-0.06-0.39-0.19-0.5s-0.41-0.19-0.83-0.22l0.05-0.22h3.22l-0.06,0.22c-0.37,0-0.62,0.04-0.75,0.09
		c-0.09,0.04-0.17,0.11-0.24,0.21s-0.12,0.26-0.15,0.49c-0.01,0.07-0.06,0.52-0.14,1.36s-0.21,1.98-0.38,3.43l2.51-3.82
		c0.27-0.42,0.45-0.71,0.52-0.88s0.11-0.31,0.11-0.43c0-0.11-0.05-0.21-0.14-0.29s-0.25-0.14-0.48-0.16l0.05-0.22h2.36l-0.06,0.22
		c-0.21,0.02-0.39,0.07-0.55,0.15s-0.35,0.25-0.57,0.49c-0.12,0.14-0.38,0.51-0.77,1.11l-3.99,6.15h-0.22l0.64-6.15l-3.99,6.15
		H239.62z"/>
</g>
<g>
	<path d="M248.95,47.92l0.97-0.47h0.1v3.35c0,0.22,0.01,0.36,0.03,0.42s0.06,0.1,0.12,0.13s0.18,0.05,0.36,0.05v0.11h-1.49v-0.11
		c0.19,0,0.31-0.02,0.36-0.05s0.09-0.07,0.11-0.11s0.03-0.19,0.03-0.43v-2.14c0-0.29-0.01-0.47-0.03-0.56
		c-0.01-0.06-0.04-0.11-0.08-0.14s-0.08-0.04-0.13-0.04c-0.07,0-0.17,0.03-0.3,0.09L248.95,47.92z"/>
	<path d="M251.57,52.5v-0.13c0.2-0.07,0.36-0.17,0.47-0.31s0.17-0.29,0.17-0.44c0-0.04-0.01-0.07-0.03-0.09
		c-0.01-0.02-0.03-0.03-0.04-0.03c-0.02,0-0.07,0.02-0.14,0.06c-0.04,0.02-0.07,0.03-0.11,0.03c-0.1,0-0.17-0.03-0.23-0.08
		s-0.08-0.13-0.08-0.23c0-0.1,0.04-0.18,0.11-0.25s0.16-0.1,0.27-0.1c0.13,0,0.24,0.06,0.34,0.17s0.15,0.26,0.15,0.45
		c0,0.2-0.07,0.39-0.21,0.56S251.88,52.4,251.57,52.5z"/>
	<path d="M253.45,47.92l0.97-0.47h0.1v3.35c0,0.22,0.01,0.36,0.03,0.42s0.06,0.1,0.12,0.13s0.18,0.05,0.36,0.05v0.11h-1.49v-0.11
		c0.19,0,0.31-0.02,0.36-0.05s0.09-0.07,0.11-0.11s0.03-0.19,0.03-0.43v-2.14c0-0.29-0.01-0.47-0.03-0.56
		c-0.01-0.06-0.04-0.11-0.08-0.14s-0.08-0.04-0.13-0.04c-0.07,0-0.17,0.03-0.3,0.09L253.45,47.92z"/>
</g>
<g>
	<path d="M253.86,43.67v0.11c-0.29-0.15-0.54-0.32-0.74-0.52c-0.28-0.28-0.5-0.62-0.65-1s-0.23-0.78-0.23-1.2
		c0-0.61,0.15-1.16,0.45-1.66s0.69-0.86,1.17-1.07v0.12c-0.24,0.13-0.44,0.31-0.59,0.54s-0.27,0.52-0.35,0.88s-0.12,0.72-0.12,1.11
		c0,0.42,0.03,0.8,0.1,1.14c0.05,0.27,0.11,0.49,0.18,0.65s0.17,0.32,0.29,0.47C253.51,43.39,253.67,43.54,253.86,43.67z"/>
	<path d="M256.75,41.74l-0.28,0.76h-2.34v-0.11c0.69-0.63,1.17-1.14,1.46-1.54s0.42-0.76,0.42-1.09c0-0.25-0.08-0.46-0.23-0.62
		s-0.34-0.24-0.55-0.24c-0.2,0-0.37,0.06-0.53,0.17c-0.15,0.11-0.27,0.28-0.34,0.5h-0.11c0.05-0.36,0.18-0.64,0.38-0.83
		c0.2-0.19,0.46-0.29,0.76-0.29c0.32,0,0.59,0.1,0.81,0.31c0.21,0.21,0.32,0.45,0.32,0.73c0,0.2-0.05,0.4-0.14,0.6
		c-0.14,0.32-0.38,0.65-0.7,1c-0.49,0.53-0.79,0.85-0.91,0.96h1.04c0.21,0,0.36-0.01,0.45-0.02c0.08-0.02,0.16-0.05,0.23-0.1
		s0.13-0.12,0.18-0.2H256.75z"/>
	<path d="M257.13,38.46v-0.12c0.3,0.15,0.54,0.32,0.74,0.52c0.28,0.29,0.5,0.62,0.65,1s0.23,0.78,0.23,1.2
		c0,0.61-0.15,1.16-0.45,1.66c-0.3,0.5-0.69,0.86-1.17,1.07v-0.11c0.24-0.13,0.44-0.32,0.59-0.55c0.15-0.23,0.27-0.52,0.35-0.88
		c0.07-0.35,0.11-0.72,0.11-1.11c0-0.42-0.03-0.8-0.1-1.14c-0.05-0.27-0.11-0.49-0.18-0.65c-0.07-0.16-0.17-0.32-0.29-0.47
		S257.33,38.59,257.13,38.46z"/>
</g>
<g>
	<path d="M239.62,103.68l0.69-6.62c0.03-0.25,0.04-0.45,0.04-0.59c0-0.23-0.06-0.4-0.19-0.52s-0.36-0.18-0.7-0.19l0.06-0.22h2.98
		l-0.06,0.22c-0.4,0-0.67,0.07-0.82,0.21s-0.25,0.5-0.3,1.08l-0.44,4.29l3.02-4.66c0-0.08,0.01-0.14,0.01-0.2
		c0-0.22-0.06-0.39-0.19-0.5s-0.41-0.19-0.83-0.22l0.05-0.22h3.22l-0.06,0.22c-0.37,0-0.62,0.04-0.75,0.09
		c-0.09,0.04-0.17,0.11-0.24,0.21s-0.12,0.26-0.15,0.49c-0.01,0.07-0.06,0.52-0.14,1.36s-0.21,1.98-0.38,3.43l2.51-3.82
		c0.27-0.42,0.45-0.71,0.52-0.88s0.11-0.31,0.11-0.43c0-0.11-0.05-0.21-0.14-0.29s-0.25-0.14-0.48-0.16l0.05-0.22h2.36l-0.06,0.22
		c-0.21,0.02-0.39,0.07-0.55,0.15s-0.35,0.25-0.57,0.49c-0.12,0.14-0.38,0.51-0.77,1.11l-3.99,6.15h-0.22l0.64-6.15l-3.99,6.15
		H239.62z"/>
</g>
<g>
	<path d="M251,104.74l-0.28,0.76h-2.34v-0.11c0.69-0.63,1.17-1.14,1.46-1.54s0.42-0.76,0.42-1.09c0-0.25-0.08-0.46-0.23-0.62
		s-0.34-0.24-0.55-0.24c-0.2,0-0.37,0.06-0.53,0.17s-0.27,0.28-0.34,0.5h-0.11c0.05-0.36,0.17-0.64,0.38-0.83s0.46-0.29,0.76-0.29
		c0.32,0,0.59,0.1,0.81,0.31s0.32,0.45,0.32,0.73c0,0.2-0.05,0.4-0.14,0.6c-0.14,0.32-0.38,0.65-0.7,1
		c-0.49,0.53-0.79,0.85-0.91,0.96h1.04c0.21,0,0.36-0.01,0.44-0.02s0.16-0.05,0.23-0.1s0.13-0.12,0.18-0.2H251z"/>
	<path d="M251.57,106.5v-0.13c0.2-0.07,0.36-0.17,0.47-0.31s0.17-0.29,0.17-0.44c0-0.04-0.01-0.07-0.03-0.09
		c-0.01-0.02-0.03-0.03-0.04-0.03c-0.02,0-0.07,0.02-0.14,0.06c-0.04,0.02-0.07,0.03-0.11,0.03c-0.1,0-0.17-0.03-0.23-0.08
		s-0.08-0.13-0.08-0.23c0-0.1,0.04-0.18,0.11-0.25s0.16-0.1,0.27-0.1c0.13,0,0.24,0.06,0.34,0.17s0.15,0.26,0.15,0.45
		c0,0.2-0.07,0.39-0.21,0.56S251.88,106.4,251.57,106.5z"/>
	<path d="M253.45,101.92l0.97-0.47h0.1v3.35c0,0.22,0.01,0.36,0.03,0.42s0.06,0.1,0.12,0.13s0.18,0.05,0.36,0.05v0.11h-1.49v-0.11
		c0.19,0,0.31-0.02,0.36-0.05s0.09-0.07,0.11-0.11s0.03-0.19,0.03-0.43v-2.14c0-0.29-0.01-0.47-0.03-0.56
		c-0.01-0.06-0.04-0.11-0.08-0.14s-0.08-0.04-0.13-0.04c-0.07,0-0.17,0.03-0.3,0.09L253.45,101.92z"/>
</g>
<g>
	<path d="M253.86,97.67v0.11c-0.29-0.15-0.54-0.32-0.74-0.52c-0.28-0.28-0.5-0.62-0.65-1s-0.23-0.78-0.23-1.2
		c0-0.61,0.15-1.16,0.45-1.66s0.69-0.86,1.17-1.07v0.12c-0.24,0.13-0.44,0.31-0.59,0.54s-0.27,0.52-0.35,0.88s-0.12,0.72-0.12,1.11
		c0,0.42,0.03,0.8,0.1,1.14c0.05,0.27,0.11,0.49,0.18,0.65s0.17,0.32,0.29,0.47C253.51,97.39,253.67,97.54,253.86,97.67z"/>
	<path d="M256.75,95.74l-0.28,0.76h-2.34v-0.11c0.69-0.63,1.17-1.14,1.46-1.54s0.42-0.76,0.42-1.09c0-0.25-0.08-0.46-0.23-0.62
		s-0.34-0.24-0.55-0.24c-0.2,0-0.37,0.06-0.53,0.17c-0.15,0.11-0.27,0.28-0.34,0.5h-0.11c0.05-0.36,0.18-0.64,0.38-0.83
		c0.2-0.19,0.46-0.29,0.76-0.29c0.32,0,0.59,0.1,0.81,0.31c0.21,0.21,0.32,0.45,0.32,0.73c0,0.2-0.05,0.4-0.14,0.6
		c-0.14,0.32-0.38,0.65-0.7,1c-0.49,0.53-0.79,0.85-0.91,0.96h1.04c0.21,0,0.36-0.01,0.45-0.02c0.08-0.02,0.16-0.05,0.23-0.1
		s0.13-0.12,0.18-0.2H256.75z"/>
	<path d="M257.13,92.46v-0.12c0.3,0.15,0.54,0.32,0.74,0.52c0.28,0.29,0.5,0.62,0.65,1s0.23,0.78,0.23,1.2
		c0,0.61-0.15,1.16-0.45,1.66c-0.3,0.5-0.69,0.86-1.17,1.07v-0.11c0.24-0.13,0.44-0.32,0.59-0.55c0.15-0.23,0.27-0.52,0.35-0.88
		c0.07-0.35,0.11-0.72,0.11-1.11c0-0.42-0.03-0.8-0.1-1.14c-0.05-0.27-0.11-0.49-0.18-0.65c-0.07-0.16-0.17-0.32-0.29-0.47
		S257.33,92.59,257.13,92.46z"/>
</g>
<g>
	<path d="M96.58,131.6h-1.79l0.55,1.08l-0.93,0.22l-0.62-1.3h-1.13c-0.56,0.72-1.11,1.29-1.66,1.72l-0.6-0.51
		c1.03-0.98,1.76-1.95,2.19-2.91l1.01,0.18c-0.13,0.27-0.27,0.54-0.42,0.79h3.41V131.6z M103.1,137.75c0,0.85-0.04,1.53-0.12,2.04
		s-0.19,0.86-0.31,1.06s-0.29,0.35-0.48,0.46c-0.19,0.11-0.4,0.18-0.63,0.21c-0.23,0.03-0.64,0.05-1.23,0.05h-0.92l-0.12-0.9h1.43
		c0.36,0,0.64-0.08,0.85-0.25s0.34-0.38,0.4-0.66s0.08-0.69,0.08-1.25h-4.53v3.84h-1.05v-3.48c-1.41,1.34-3.24,2.38-5.5,3.14
		l-0.4-0.75c2.12-0.8,3.74-1.72,4.86-2.75h-3.09l-0.06,0.33h-1.01l0.53-3.4h4.67v-1.37h-4.85v-0.76h10.81v2.87h-4.91v1.56H103.1z
		 M96.47,137.75v-1.56h-3.73l-0.27,1.56H96.47z M103.19,131.6h-2.62l0.6,1.11l-0.96,0.21l-0.67-1.33h-1.2
		c-0.46,0.63-0.88,1.1-1.26,1.41l-0.71-0.45c0.68-0.7,1.29-1.59,1.83-2.69l1.03,0.21c-0.09,0.18-0.22,0.44-0.41,0.79h4.38V131.6z
		 M101.4,135.46v-1.37h-3.88v1.37H101.4z"/>
	<path d="M114.8,141.5h-5.48v-0.94h2.15v-7.08h-2.15v-0.83c0.84,0,1.44-0.12,1.8-0.36s0.56-0.61,0.61-1.12h0.97v9.39h2.11V141.5z"/>
	<path d="M122.19,132.68v2.17c0,1.55-0.16,2.99-0.47,4.31c-0.31,1.33-0.73,2.34-1.25,3.06l-0.67-0.54c0.41-0.67,0.73-1.6,0.99-2.78
		c0.25-1.18,0.38-2.38,0.38-3.59v-4.93h11.46v2.3H122.19z M122.19,132h9.5v-0.96h-9.5V132z M123.36,137.38v-3.55h2.19l-0.42-0.72
		l0.93-0.23l0.51,0.94h2.9l0.52-0.94l0.98,0.21l-0.53,0.73h2.3v3.55H123.36z M131.25,142.01h-6.51v0.37h-1.03v-4.26h8.57v4.26h-1.03
		V142.01z M127.53,135.32v-0.88h-3.16v0.88H127.53z M127.53,136.76v-0.87h-3.16v0.87H127.53z M131.25,139.74v-0.92h-6.51v0.92
		H131.25z M124.75,141.32h6.51v-0.94h-6.51V141.32z M128.53,134.44v0.88h3.23v-0.88H128.53z M128.53,135.89v0.87h3.23v-0.87H128.53z
		"/>
</g>
<g>
	<path d="M276.58,131.6h-1.79l0.55,1.08l-0.93,0.22l-0.62-1.3h-1.13c-0.56,0.72-1.11,1.29-1.66,1.72l-0.6-0.51
		c1.03-0.98,1.76-1.95,2.19-2.91l1.01,0.18c-0.13,0.27-0.27,0.54-0.42,0.79h3.41V131.6z M283.1,137.75c0,0.85-0.04,1.53-0.12,2.04
		s-0.19,0.86-0.31,1.06s-0.29,0.35-0.48,0.46c-0.19,0.11-0.4,0.18-0.63,0.21c-0.23,0.03-0.64,0.05-1.23,0.05h-0.92l-0.12-0.9h1.43
		c0.36,0,0.64-0.08,0.85-0.25s0.34-0.38,0.4-0.66s0.08-0.69,0.08-1.25h-4.53v3.84h-1.05v-3.48c-1.41,1.34-3.24,2.38-5.5,3.14
		l-0.4-0.75c2.12-0.8,3.74-1.72,4.86-2.75h-3.09l-0.06,0.33h-1.01l0.53-3.4h4.67v-1.37h-4.85v-0.76h10.81v2.87h-4.91v1.56H283.1z
		 M276.47,137.75v-1.56h-3.73l-0.27,1.56H276.47z M283.19,131.6h-2.62l0.6,1.11l-0.96,0.21l-0.67-1.33h-1.2
		c-0.46,0.63-0.88,1.1-1.26,1.41l-0.71-0.45c0.68-0.7,1.29-1.59,1.83-2.69l1.03,0.21c-0.09,0.18-0.22,0.44-0.41,0.79h4.38V131.6z
		 M281.4,135.46v-1.37h-3.88v1.37H281.4z"/>
	<path d="M295.39,141.5h-6.89v-1.33c0.73-0.63,1.55-1.36,2.46-2.19c0.91-0.83,1.58-1.57,2.03-2.2s0.66-1.27,0.66-1.9
		c0-0.56-0.19-1-0.56-1.31c-0.37-0.31-0.88-0.47-1.51-0.47c-0.93,0-1.85,0.3-2.75,0.89h-0.07v-1.33c0.92-0.44,1.87-0.66,2.86-0.66
		c1.04,0,1.86,0.25,2.45,0.76s0.9,1.19,0.9,2.06c0,0.46-0.08,0.91-0.23,1.33c-0.15,0.42-0.39,0.84-0.71,1.24s-0.71,0.83-1.16,1.28
		s-1.49,1.37-3.11,2.75h5.65V141.5z"/>
	<path d="M302.19,132.68v2.17c0,1.55-0.16,2.99-0.47,4.31c-0.31,1.33-0.73,2.34-1.25,3.06l-0.67-0.54c0.41-0.67,0.73-1.6,0.99-2.78
		c0.25-1.18,0.38-2.38,0.38-3.59v-4.93h11.46v2.3H302.19z M302.19,132h9.5v-0.96h-9.5V132z M303.36,137.38v-3.55h2.19l-0.42-0.72
		l0.93-0.23l0.51,0.94h2.9l0.52-0.94l0.98,0.21l-0.53,0.73h2.3v3.55H303.36z M311.25,142.01h-6.51v0.37h-1.03v-4.26h8.57v4.26h-1.03
		V142.01z M307.53,135.32v-0.88h-3.16v0.88H307.53z M307.53,136.76v-0.87h-3.16v0.87H307.53z M311.25,139.74v-0.92h-6.51v0.92
		H311.25z M304.75,141.32h6.51v-0.94h-6.51V141.32z M308.53,134.44v0.88h3.23v-0.88H308.53z M308.53,135.89v0.87h3.23v-0.87H308.53z
		"/>
</g>
<g>
</g>
<g>
</g>
<g>
</g>
<g>
</g>
<g>
</g>
<g>
</g>
<g>
</g>
</svg>
