<?xml version="1.0" encoding="utf-8"?>
<!-- Generator: Adobe Illustrator 25.4.1, SVG Export Plug-In . SVG Version: 6.00 Build 0)  -->
<svg version="1.1" id="レイヤー_1" xmlns="http://www.w3.org/2000/svg" xmlns:xlink="http://www.w3.org/1999/xlink" x="0px"
	 y="0px" viewBox="0 0 346.5 207" style="enable-background:new 0 0 346.5 207;" xml:space="preserve">
<style type="text/css">
	.st0{fill:#FFFFFF;stroke:#000000;stroke-miterlimit:10;}
	.st1{fill:none;stroke:#000000;stroke-miterlimit:10;}
</style>
<g>
	<circle class="st0" cx="27" cy="63" r="13.5"/>
	<g>
		<path d="M24.93,61.31c0.22,0.24,0.39,0.47,0.51,0.71c0.08,0.16,0.22,0.59,0.4,1.29l0.6-0.9c0.16-0.22,0.35-0.43,0.58-0.63
			s0.43-0.33,0.6-0.41c0.11-0.05,0.23-0.07,0.36-0.07c0.2,0,0.35,0.05,0.47,0.16s0.17,0.23,0.17,0.38c0,0.17-0.03,0.29-0.1,0.36
			c-0.13,0.11-0.27,0.17-0.44,0.17c-0.1,0-0.2-0.02-0.31-0.06c-0.21-0.07-0.36-0.11-0.43-0.11c-0.11,0-0.24,0.06-0.39,0.19
			c-0.28,0.24-0.62,0.69-1.01,1.37l0.56,2.35c0.09,0.36,0.16,0.58,0.22,0.65s0.12,0.11,0.18,0.11c0.1,0,0.21-0.05,0.33-0.16
			c0.25-0.21,0.46-0.48,0.64-0.82l0.24,0.12c-0.29,0.54-0.65,0.98-1.09,1.34c-0.25,0.2-0.46,0.3-0.64,0.3
			c-0.26,0-0.46-0.14-0.61-0.43c-0.1-0.18-0.29-0.94-0.59-2.3c-0.71,1.23-1.28,2.03-1.71,2.39c-0.28,0.23-0.55,0.34-0.81,0.34
			c-0.18,0-0.35-0.07-0.5-0.2c-0.11-0.1-0.16-0.23-0.16-0.4c0-0.15,0.05-0.28,0.15-0.38s0.22-0.15,0.37-0.15s0.3,0.07,0.46,0.22
			c0.12,0.1,0.21,0.16,0.27,0.16c0.05,0,0.13-0.04,0.21-0.11c0.21-0.17,0.51-0.55,0.88-1.12s0.61-0.99,0.72-1.24
			c-0.28-1.11-0.44-1.69-0.46-1.76c-0.1-0.3-0.24-0.51-0.41-0.63s-0.42-0.18-0.75-0.18c-0.1,0-0.23,0-0.36,0.01v-0.25L24.93,61.31z"
			/>
	</g>
	<g>
		<path d="M30.44,64.72l1.29-0.63h0.13v4.47c0,0.3,0.01,0.48,0.04,0.55s0.08,0.13,0.15,0.17s0.24,0.06,0.48,0.07v0.14h-1.99v-0.14
			c0.25-0.01,0.41-0.03,0.48-0.06s0.12-0.09,0.15-0.15s0.04-0.25,0.04-0.57v-2.86c0-0.39-0.01-0.63-0.04-0.74
			c-0.02-0.08-0.05-0.14-0.1-0.18s-0.11-0.06-0.17-0.06c-0.1,0-0.23,0.04-0.4,0.12L30.44,64.72z"/>
	</g>
</g>
<g>
	<circle class="st0" cx="27" cy="135" r="13.5"/>
	<g>
		<path d="M24.93,133.31c0.22,0.24,0.39,0.47,0.51,0.71c0.08,0.16,0.22,0.59,0.4,1.29l0.6-0.9c0.16-0.22,0.35-0.43,0.58-0.63
			s0.43-0.33,0.6-0.41c0.11-0.05,0.23-0.07,0.36-0.07c0.2,0,0.35,0.05,0.47,0.16s0.17,0.23,0.17,0.38c0,0.17-0.03,0.29-0.1,0.36
			c-0.13,0.11-0.27,0.17-0.44,0.17c-0.1,0-0.2-0.02-0.31-0.06c-0.21-0.07-0.36-0.11-0.43-0.11c-0.11,0-0.24,0.06-0.39,0.19
			c-0.28,0.24-0.62,0.69-1.01,1.37l0.56,2.35c0.09,0.36,0.16,0.58,0.22,0.65s0.12,0.11,0.18,0.11c0.1,0,0.21-0.05,0.33-0.16
			c0.25-0.21,0.46-0.48,0.64-0.82l0.24,0.12c-0.29,0.54-0.65,0.98-1.09,1.34c-0.25,0.2-0.46,0.3-0.64,0.3
			c-0.26,0-0.46-0.14-0.61-0.43c-0.1-0.18-0.29-0.94-0.59-2.3c-0.71,1.23-1.28,2.03-1.71,2.39c-0.28,0.23-0.55,0.34-0.81,0.34
			c-0.18,0-0.35-0.07-0.5-0.2c-0.11-0.1-0.16-0.23-0.16-0.4c0-0.15,0.05-0.28,0.15-0.38s0.22-0.15,0.37-0.15s0.3,0.07,0.46,0.22
			c0.12,0.1,0.21,0.16,0.27,0.16c0.05,0,0.13-0.04,0.21-0.11c0.21-0.17,0.51-0.55,0.88-1.12s0.61-0.99,0.72-1.24
			c-0.28-1.11-0.44-1.69-0.46-1.76c-0.1-0.3-0.24-0.51-0.41-0.63s-0.42-0.18-0.75-0.18c-0.1,0-0.23,0-0.36,0.01v-0.25L24.93,133.31z
			"/>
	</g>
	<g>
		<path d="M33.17,140.48l-0.37,1.02h-3.12v-0.14c0.92-0.84,1.57-1.52,1.94-2.05s0.56-1.02,0.56-1.46c0-0.34-0.1-0.61-0.31-0.83
			s-0.45-0.32-0.74-0.32c-0.26,0-0.49,0.08-0.7,0.23s-0.36,0.38-0.46,0.67h-0.14c0.06-0.48,0.23-0.85,0.5-1.11s0.61-0.39,1.01-0.39
			c0.43,0,0.79,0.14,1.08,0.41s0.43,0.6,0.43,0.98c0,0.27-0.06,0.54-0.19,0.8c-0.19,0.42-0.51,0.87-0.94,1.34
			c-0.65,0.71-1.05,1.14-1.21,1.28h1.38c0.28,0,0.48-0.01,0.59-0.03s0.22-0.06,0.31-0.13s0.17-0.15,0.24-0.27H33.17z"/>
	</g>
</g>
<g>
	<circle class="st0" cx="315" cy="27" r="13.5"/>
	<g>
		<path d="M312.56,25.31c0.16,0.26,0.27,0.51,0.33,0.74c0.06,0.23,0.12,0.68,0.19,1.36l0.31,3.36c0.29-0.33,0.7-0.85,1.24-1.56
			c0.26-0.35,0.59-0.82,0.97-1.42c0.23-0.36,0.38-0.62,0.43-0.77c0.03-0.07,0.04-0.15,0.04-0.23c0-0.05-0.02-0.09-0.05-0.12
			s-0.12-0.07-0.26-0.11s-0.26-0.12-0.35-0.24s-0.14-0.25-0.14-0.4c0-0.19,0.06-0.34,0.17-0.45s0.26-0.17,0.43-0.17
			c0.21,0,0.39,0.08,0.54,0.25c0.15,0.17,0.22,0.4,0.22,0.69c0,0.36-0.13,0.77-0.39,1.23c-0.26,0.46-0.75,1.17-1.49,2.13
			s-1.62,2-2.67,3.13c-0.72,0.78-1.25,1.27-1.6,1.47s-0.65,0.3-0.89,0.3c-0.15,0-0.28-0.05-0.39-0.16s-0.17-0.23-0.17-0.37
			c0-0.18,0.08-0.34,0.23-0.49c0.15-0.15,0.32-0.22,0.5-0.22c0.09,0,0.17,0.02,0.24,0.06c0.04,0.02,0.08,0.09,0.12,0.19
			c0.05,0.11,0.09,0.18,0.12,0.22c0.02,0.02,0.05,0.03,0.09,0.03c0.03,0,0.08-0.02,0.15-0.07c0.26-0.15,0.57-0.4,0.91-0.74
			c0.46-0.45,0.8-0.81,1.01-1.09l-0.4-4.33c-0.07-0.72-0.17-1.15-0.3-1.31c-0.13-0.15-0.36-0.23-0.67-0.23
			c-0.1,0-0.28,0.01-0.54,0.04l-0.06-0.25L312.56,25.31z"/>
	</g>
	<g>
		<path d="M318.44,28.72l1.29-0.63h0.13v4.47c0,0.3,0.01,0.48,0.04,0.55c0.03,0.07,0.08,0.13,0.15,0.17s0.24,0.06,0.48,0.07v0.14
			h-1.99v-0.14c0.25-0.01,0.41-0.03,0.48-0.06c0.07-0.04,0.12-0.09,0.15-0.15c0.03-0.06,0.04-0.25,0.04-0.57v-2.86
			c0-0.39-0.01-0.63-0.04-0.74c-0.02-0.08-0.05-0.14-0.1-0.18c-0.05-0.04-0.11-0.06-0.17-0.06c-0.1,0-0.23,0.04-0.4,0.12
			L318.44,28.72z"/>
	</g>
	<g>
		<circle class="st0" cx="315" cy="27" r="13.5"/>
		<g>
			<path d="M312.56,25.31c0.16,0.26,0.27,0.51,0.33,0.74c0.06,0.23,0.12,0.68,0.19,1.36l0.31,3.36c0.29-0.33,0.7-0.85,1.24-1.56
				c0.26-0.35,0.59-0.82,0.97-1.42c0.23-0.36,0.38-0.62,0.43-0.77c0.03-0.07,0.04-0.15,0.04-0.23c0-0.05-0.02-0.09-0.05-0.12
				s-0.12-0.07-0.26-0.11s-0.26-0.12-0.35-0.24s-0.14-0.25-0.14-0.4c0-0.19,0.06-0.34,0.17-0.45s0.26-0.17,0.43-0.17
				c0.21,0,0.39,0.08,0.54,0.25c0.15,0.17,0.22,0.4,0.22,0.69c0,0.36-0.13,0.77-0.39,1.23c-0.26,0.46-0.75,1.17-1.49,2.13
				s-1.62,2-2.67,3.13c-0.72,0.78-1.25,1.27-1.6,1.47s-0.65,0.3-0.89,0.3c-0.15,0-0.28-0.05-0.39-0.16s-0.17-0.23-0.17-0.37
				c0-0.18,0.08-0.34,0.23-0.49c0.15-0.15,0.32-0.22,0.5-0.22c0.09,0,0.17,0.02,0.24,0.06c0.04,0.02,0.08,0.09,0.12,0.19
				c0.05,0.11,0.09,0.18,0.12,0.22c0.02,0.02,0.05,0.03,0.09,0.03c0.03,0,0.08-0.02,0.15-0.07c0.26-0.15,0.57-0.4,0.91-0.74
				c0.46-0.45,0.8-0.81,1.01-1.09l-0.4-4.33c-0.07-0.72-0.17-1.15-0.3-1.31c-0.13-0.15-0.36-0.23-0.67-0.23
				c-0.1,0-0.28,0.01-0.54,0.04l-0.06-0.25L312.56,25.31z"/>
		</g>
		<g>
			<path d="M318.44,28.72l1.29-0.63h0.13v4.47c0,0.3,0.01,0.48,0.04,0.55c0.03,0.07,0.08,0.13,0.15,0.17s0.24,0.06,0.48,0.07v0.14
				h-1.99v-0.14c0.25-0.01,0.41-0.03,0.48-0.06c0.07-0.04,0.12-0.09,0.15-0.15c0.03-0.06,0.04-0.25,0.04-0.57v-2.86
				c0-0.39-0.01-0.63-0.04-0.74c-0.02-0.08-0.05-0.14-0.1-0.18c-0.05-0.04-0.11-0.06-0.17-0.06c-0.1,0-0.23,0.04-0.4,0.12
				L318.44,28.72z"/>
		</g>
	</g>
</g>
<g>
	<g>
		<circle class="st0" cx="171" cy="27" r="13.5"/>
		<g>
			<path d="M166.45,22.23h7.27l0.19,2.33h-0.27c-0.03-0.46-0.11-0.81-0.24-1.06s-0.3-0.42-0.53-0.53c-0.22-0.11-0.58-0.16-1.06-0.16
				h-3.31l2.95,3.62l-3.36,3.79h3.68c0.67,0,1.18-0.1,1.53-0.31s0.62-0.63,0.79-1.29l0.27,0.06l-0.42,2.8h-7.5v-0.25l3.73-4.21
				l-3.73-4.57V22.23z"/>
		</g>
	</g>
</g>
<g>
	<g>
		<circle class="st0" cx="171" cy="99" r="13.5"/>
		<g>
			<path d="M166.45,94.23h7.27l0.19,2.33h-0.27c-0.03-0.46-0.11-0.81-0.24-1.06s-0.3-0.42-0.53-0.53c-0.22-0.11-0.58-0.16-1.06-0.16
				h-3.31l2.95,3.62l-3.36,3.79h3.68c0.67,0,1.18-0.1,1.53-0.31s0.62-0.63,0.79-1.29l0.27,0.06l-0.42,2.8h-7.5v-0.25l3.73-4.21
				l-3.73-4.57V94.23z"/>
		</g>
	</g>
</g>
<g>
	<g>
		<circle class="st0" cx="171" cy="171" r="13.5"/>
		<g>
			<path d="M166.45,166.23h7.27l0.19,2.33h-0.27c-0.03-0.46-0.11-0.81-0.24-1.06s-0.3-0.42-0.53-0.53
				c-0.22-0.11-0.58-0.16-1.06-0.16h-3.31l2.95,3.62l-3.36,3.79h3.68c0.67,0,1.18-0.1,1.53-0.31s0.62-0.63,0.79-1.29l0.27,0.06
				l-0.42,2.8h-7.5v-0.25l3.73-4.21l-3.73-4.57V166.23z"/>
		</g>
	</g>
</g>
<g>
	<circle class="st0" cx="315" cy="99" r="13.5"/>
	<g>
		<path d="M312.56,97.31c0.16,0.26,0.27,0.51,0.33,0.74c0.06,0.23,0.12,0.68,0.19,1.36l0.31,3.36c0.29-0.33,0.7-0.85,1.24-1.56
			c0.26-0.35,0.59-0.82,0.97-1.42c0.23-0.36,0.38-0.62,0.43-0.77c0.03-0.07,0.04-0.15,0.04-0.23c0-0.05-0.02-0.09-0.05-0.12
			s-0.12-0.07-0.26-0.11s-0.26-0.12-0.35-0.24s-0.14-0.25-0.14-0.4c0-0.19,0.06-0.34,0.17-0.45s0.26-0.17,0.43-0.17
			c0.21,0,0.39,0.08,0.54,0.25c0.15,0.17,0.22,0.4,0.22,0.69c0,0.36-0.13,0.77-0.39,1.23c-0.26,0.46-0.75,1.17-1.49,2.13
			s-1.62,2-2.67,3.13c-0.72,0.78-1.25,1.27-1.6,1.47s-0.65,0.3-0.89,0.3c-0.15,0-0.28-0.05-0.39-0.16s-0.17-0.23-0.17-0.37
			c0-0.18,0.08-0.34,0.23-0.49c0.15-0.15,0.32-0.22,0.5-0.22c0.09,0,0.17,0.02,0.24,0.06c0.04,0.02,0.08,0.09,0.12,0.19
			c0.05,0.11,0.09,0.18,0.12,0.22c0.02,0.02,0.05,0.03,0.09,0.03c0.03,0,0.08-0.02,0.15-0.07c0.26-0.15,0.57-0.4,0.91-0.74
			c0.46-0.45,0.8-0.81,1.01-1.09l-0.4-4.33c-0.07-0.72-0.17-1.15-0.3-1.31c-0.13-0.15-0.36-0.23-0.67-0.23
			c-0.1,0-0.28,0.01-0.54,0.04l-0.06-0.25L312.56,97.31z"/>
	</g>
	<g>
		<path d="M318.44,100.72l1.29-0.63h0.13v4.47c0,0.3,0.01,0.48,0.04,0.55c0.03,0.07,0.08,0.13,0.15,0.17s0.24,0.06,0.48,0.07v0.14
			h-1.99v-0.14c0.25-0.01,0.41-0.03,0.48-0.06c0.07-0.04,0.12-0.09,0.15-0.15c0.03-0.06,0.04-0.25,0.04-0.57v-2.86
			c0-0.39-0.01-0.63-0.04-0.74c-0.02-0.08-0.05-0.14-0.1-0.18c-0.05-0.04-0.11-0.06-0.17-0.06c-0.1,0-0.23,0.04-0.4,0.12
			L318.44,100.72z"/>
	</g>
	<g>
		<circle class="st0" cx="315" cy="99" r="13.5"/>
		<g>
			<path d="M312.56,97.31c0.16,0.26,0.27,0.51,0.33,0.74c0.06,0.23,0.12,0.68,0.19,1.36l0.31,3.36c0.29-0.33,0.7-0.85,1.24-1.56
				c0.26-0.35,0.59-0.82,0.97-1.42c0.23-0.36,0.38-0.62,0.43-0.77c0.03-0.07,0.04-0.15,0.04-0.23c0-0.05-0.02-0.09-0.05-0.12
				s-0.12-0.07-0.26-0.11s-0.26-0.12-0.35-0.24s-0.14-0.25-0.14-0.4c0-0.19,0.06-0.34,0.17-0.45s0.26-0.17,0.43-0.17
				c0.21,0,0.39,0.08,0.54,0.25c0.15,0.17,0.22,0.4,0.22,0.69c0,0.36-0.13,0.77-0.39,1.23c-0.26,0.46-0.75,1.17-1.49,2.13
				s-1.62,2-2.67,3.13c-0.72,0.78-1.25,1.27-1.6,1.47s-0.65,0.3-0.89,0.3c-0.15,0-0.28-0.05-0.39-0.16s-0.17-0.23-0.17-0.37
				c0-0.18,0.08-0.34,0.23-0.49c0.15-0.15,0.32-0.22,0.5-0.22c0.09,0,0.17,0.02,0.24,0.06c0.04,0.02,0.08,0.09,0.12,0.19
				c0.05,0.11,0.09,0.18,0.12,0.22c0.02,0.02,0.05,0.03,0.09,0.03c0.03,0,0.08-0.02,0.15-0.07c0.26-0.15,0.57-0.4,0.91-0.74
				c0.46-0.45,0.8-0.81,1.01-1.09l-0.4-4.33c-0.07-0.72-0.17-1.15-0.3-1.31c-0.13-0.15-0.36-0.23-0.67-0.23
				c-0.1,0-0.28,0.01-0.54,0.04l-0.06-0.25L312.56,97.31z"/>
		</g>
		<g>
			<path d="M321.17,104.48l-0.37,1.02h-3.12v-0.14c0.92-0.84,1.57-1.52,1.94-2.05s0.56-1.02,0.56-1.46c0-0.34-0.1-0.61-0.31-0.83
				c-0.21-0.22-0.45-0.32-0.74-0.32c-0.26,0-0.49,0.08-0.7,0.23s-0.36,0.38-0.46,0.67h-0.14c0.07-0.48,0.23-0.85,0.5-1.11
				s0.61-0.39,1.01-0.39c0.43,0,0.79,0.14,1.08,0.41c0.29,0.28,0.43,0.6,0.43,0.98c0,0.27-0.06,0.54-0.19,0.8
				c-0.19,0.42-0.5,0.87-0.94,1.34c-0.65,0.71-1.05,1.14-1.21,1.28h1.38c0.28,0,0.48-0.01,0.59-0.03s0.22-0.06,0.31-0.13
				c0.09-0.06,0.17-0.15,0.24-0.27H321.17z"/>
		</g>
	</g>
</g>
<g>
	<circle class="st0" cx="315" cy="171" r="13.5"/>
	<g>
		<path d="M312.56,169.31c0.16,0.26,0.27,0.51,0.33,0.74c0.06,0.23,0.12,0.68,0.19,1.36l0.31,3.36c0.29-0.33,0.7-0.85,1.24-1.56
			c0.26-0.35,0.59-0.82,0.97-1.42c0.23-0.36,0.38-0.62,0.43-0.77c0.03-0.07,0.04-0.15,0.04-0.23c0-0.05-0.02-0.09-0.05-0.12
			s-0.12-0.07-0.26-0.11s-0.26-0.12-0.35-0.24s-0.14-0.25-0.14-0.4c0-0.19,0.06-0.34,0.17-0.45s0.26-0.17,0.43-0.17
			c0.21,0,0.39,0.08,0.54,0.25c0.15,0.17,0.22,0.4,0.22,0.69c0,0.36-0.13,0.77-0.39,1.23c-0.26,0.46-0.75,1.17-1.49,2.13
			s-1.62,2-2.67,3.13c-0.72,0.78-1.25,1.27-1.6,1.47s-0.65,0.3-0.89,0.3c-0.15,0-0.28-0.05-0.39-0.16s-0.17-0.23-0.17-0.37
			c0-0.18,0.08-0.34,0.23-0.49c0.15-0.15,0.32-0.22,0.5-0.22c0.09,0,0.17,0.02,0.24,0.06c0.04,0.02,0.08,0.09,0.12,0.19
			c0.05,0.11,0.09,0.18,0.12,0.22c0.02,0.02,0.05,0.03,0.09,0.03c0.03,0,0.08-0.02,0.15-0.07c0.26-0.15,0.57-0.4,0.91-0.74
			c0.46-0.45,0.8-0.81,1.01-1.09l-0.4-4.33c-0.07-0.72-0.17-1.15-0.3-1.31c-0.13-0.15-0.36-0.23-0.67-0.23
			c-0.1,0-0.28,0.01-0.54,0.04l-0.06-0.25L312.56,169.31z"/>
	</g>
	<g>
		<path d="M318.44,172.72l1.29-0.63h0.13v4.47c0,0.3,0.01,0.48,0.04,0.55c0.03,0.07,0.08,0.13,0.15,0.17s0.24,0.06,0.48,0.07v0.14
			h-1.99v-0.14c0.25-0.01,0.41-0.03,0.48-0.06c0.07-0.04,0.12-0.09,0.15-0.15c0.03-0.06,0.04-0.25,0.04-0.57v-2.86
			c0-0.39-0.01-0.63-0.04-0.74c-0.02-0.08-0.05-0.14-0.1-0.18c-0.05-0.04-0.11-0.06-0.17-0.06c-0.1,0-0.23,0.04-0.4,0.12
			L318.44,172.72z"/>
	</g>
	<g>
		<circle class="st0" cx="315" cy="171" r="13.5"/>
		<g>
			<path d="M312.56,169.31c0.16,0.26,0.27,0.51,0.33,0.74c0.06,0.23,0.12,0.68,0.19,1.36l0.31,3.36c0.29-0.33,0.7-0.85,1.24-1.56
				c0.26-0.35,0.59-0.82,0.97-1.42c0.23-0.36,0.38-0.62,0.43-0.77c0.03-0.07,0.04-0.15,0.04-0.23c0-0.05-0.02-0.09-0.05-0.12
				s-0.12-0.07-0.26-0.11s-0.26-0.12-0.35-0.24s-0.14-0.25-0.14-0.4c0-0.19,0.06-0.34,0.17-0.45s0.26-0.17,0.43-0.17
				c0.21,0,0.39,0.08,0.54,0.25c0.15,0.17,0.22,0.4,0.22,0.69c0,0.36-0.13,0.77-0.39,1.23c-0.26,0.46-0.75,1.17-1.49,2.13
				s-1.62,2-2.67,3.13c-0.72,0.78-1.25,1.27-1.6,1.47s-0.65,0.3-0.89,0.3c-0.15,0-0.28-0.05-0.39-0.16s-0.17-0.23-0.17-0.37
				c0-0.18,0.08-0.34,0.23-0.49c0.15-0.15,0.32-0.22,0.5-0.22c0.09,0,0.17,0.02,0.24,0.06c0.04,0.02,0.08,0.09,0.12,0.19
				c0.05,0.11,0.09,0.18,0.12,0.22c0.02,0.02,0.05,0.03,0.09,0.03c0.03,0,0.08-0.02,0.15-0.07c0.26-0.15,0.57-0.4,0.91-0.74
				c0.46-0.45,0.8-0.81,1.01-1.09l-0.4-4.33c-0.07-0.72-0.17-1.15-0.3-1.31c-0.13-0.15-0.36-0.23-0.67-0.23
				c-0.1,0-0.28,0.01-0.54,0.04l-0.06-0.25L312.56,169.31z"/>
		</g>
		<g>
			<path d="M317.91,173.21c0.15-0.36,0.34-0.63,0.57-0.83s0.52-0.29,0.86-0.29c0.42,0,0.75,0.14,0.98,0.41
				c0.17,0.21,0.26,0.43,0.26,0.66c0,0.39-0.24,0.78-0.73,1.2c0.33,0.13,0.57,0.31,0.74,0.55c0.17,0.24,0.25,0.52,0.25,0.84
				c0,0.46-0.15,0.86-0.44,1.19c-0.38,0.44-0.93,0.66-1.65,0.66c-0.36,0-0.6-0.04-0.73-0.13s-0.19-0.18-0.19-0.29
				c0-0.08,0.03-0.14,0.09-0.2c0.06-0.06,0.13-0.09,0.22-0.09c0.07,0,0.13,0.01,0.2,0.03c0.04,0.01,0.14,0.06,0.3,0.14
				s0.26,0.13,0.32,0.15c0.1,0.03,0.2,0.04,0.31,0.04c0.27,0,0.5-0.1,0.69-0.31c0.2-0.21,0.29-0.45,0.29-0.73
				c0-0.21-0.04-0.41-0.14-0.6c-0.07-0.15-0.14-0.26-0.22-0.33c-0.11-0.1-0.27-0.2-0.46-0.28s-0.39-0.13-0.6-0.13h-0.12v-0.12
				c0.21-0.03,0.41-0.1,0.62-0.22s0.36-0.27,0.45-0.44s0.14-0.36,0.14-0.57c0-0.27-0.08-0.48-0.25-0.65s-0.38-0.25-0.63-0.25
				c-0.4,0-0.74,0.22-1.01,0.65L317.91,173.21z"/>
		</g>
	</g>
</g>
<g>
	<circle class="st1" cx="243" cy="27" r="13.5"/>
	<polyline class="st1" points="234,31.5 243,31.5 243,22.5 252,22.5 	"/>
</g>
<g>
	<circle class="st1" cx="243" cy="99" r="13.5"/>
	<polyline class="st1" points="234,103.5 243,103.5 243,94.5 252,94.5 	"/>
</g>
<g>
	<circle class="st1" cx="243" cy="171" r="13.5"/>
	<polyline class="st1" points="234,175.5 243,175.5 243,166.5 252,166.5 	"/>
</g>
<g>
	<g>
		<line class="st1" x1="40.5" y1="63" x2="149.71" y2="29.4"/>
		<g>
			<path d="M147.99,29.93l-3.15-2.8l0.09-0.11l6.3,0.5c2.09-0.17,4.18-0.34,6.27-0.51c-1.82,1.03-3.65,2.06-5.47,3.1l-4.93,3.96
				l-0.14-0.02L147.99,29.93z"/>
		</g>
	</g>
</g>
<g>
	<g>
		<line class="st1" x1="40.5" y1="63" x2="149.71" y2="96.6"/>
		<g>
			<path d="M147.99,96.07l-1.03-4.09l0.14-0.04l4.93,3.96c1.82,1.03,3.65,2.06,5.47,3.1c-2.09-0.17-4.18-0.34-6.27-0.51l-6.3,0.5
				l-0.1-0.09L147.99,96.07z"/>
		</g>
	</g>
</g>
<g>
	<g>
		<line class="st1" x1="40.5" y1="63" x2="151.51" y2="165.47"/>
		<g>
			<path d="M150.19,164.25l0.83-4.13l0.15,0.02l2.73,5.7c1.2,1.72,2.4,3.44,3.6,5.16c-1.81-1.06-3.62-2.12-5.43-3.17l-5.9-2.27
				l-0.05-0.13L150.19,164.25z"/>
		</g>
	</g>
</g>
<g>
	<g>
		<line class="st1" x1="40.5" y1="135" x2="151.51" y2="32.53"/>
		<g>
			<path d="M150.19,33.75l-4.05-1.16l0.04-0.14l5.9-2.27c1.81-1.06,3.62-2.12,5.43-3.17c-1.2,1.72-2.4,3.44-3.6,5.16l-2.73,5.7
				l-0.13,0.04L150.19,33.75z"/>
		</g>
	</g>
</g>
<g>
	<g>
		<line class="st1" x1="40.5" y1="135" x2="149.71" y2="101.4"/>
		<g>
			<path d="M147.99,101.93l-3.15-2.8l0.09-0.11l6.3,0.5c2.09-0.17,4.18-0.34,6.27-0.51c-1.82,1.03-3.65,2.06-5.47,3.1l-4.93,3.96
				l-0.14-0.02L147.99,101.93z"/>
		</g>
	</g>
</g>
<g>
	<g>
		<line class="st1" x1="40.5" y1="135" x2="149.71" y2="168.6"/>
		<g>
			<path d="M147.99,168.07l-1.03-4.09l0.14-0.04l4.93,3.96c1.82,1.03,3.65,2.06,5.47,3.1c-2.09-0.17-4.18-0.34-6.27-0.51l-6.3,0.5
				l-0.1-0.09L147.99,168.07z"/>
		</g>
	</g>
</g>
<g>
	<g>
		<line class="st1" x1="184.5" y1="27" x2="221.35" y2="27"/>
		<g>
			<path d="M219.55,27l-2.19-3.6l0.12-0.08l5.88,2.33c2.05,0.45,4.09,0.9,6.14,1.35c-2.05,0.45-4.09,0.9-6.14,1.35l-5.88,2.33
				l-0.12-0.06L219.55,27z"/>
		</g>
	</g>
</g>
<g>
	<g>
		<line class="st1" x1="184.5" y1="99" x2="221.35" y2="99"/>
		<g>
			<path d="M219.55,99l-2.19-3.6l0.12-0.08l5.88,2.33c2.05,0.45,4.09,0.9,6.14,1.35c-2.05,0.45-4.09,0.9-6.14,1.35l-5.88,2.33
				l-0.12-0.06L219.55,99z"/>
		</g>
	</g>
</g>
<g>
	<g>
		<line class="st1" x1="184.5" y1="171" x2="221.35" y2="171"/>
		<g>
			<path d="M219.55,171l-2.19-3.6l0.12-0.08l5.88,2.33c2.05,0.45,4.09,0.9,6.14,1.35c-2.05,0.45-4.09,0.9-6.14,1.35l-5.88,2.33
				l-0.12-0.06L219.55,171z"/>
		</g>
	</g>
</g>
<g>
	<g>
		<line class="st1" x1="256.5" y1="27" x2="293.35" y2="27"/>
		<g>
			<path d="M291.55,27l-2.19-3.6l0.12-0.08l5.88,2.33c2.05,0.45,4.09,0.9,6.14,1.35c-2.05,0.45-4.09,0.9-6.14,1.35l-5.88,2.33
				l-0.12-0.06L291.55,27z"/>
		</g>
	</g>
</g>
<g>
	<g>
		<line class="st1" x1="256.5" y1="99" x2="293.35" y2="99"/>
		<g>
			<path d="M291.55,99l-2.19-3.6l0.12-0.08l5.88,2.33c2.05,0.45,4.09,0.9,6.14,1.35c-2.05,0.45-4.09,0.9-6.14,1.35l-5.88,2.33
				l-0.12-0.06L291.55,99z"/>
		</g>
	</g>
</g>
<g>
	<g>
		<line class="st1" x1="256.5" y1="171" x2="293.35" y2="171"/>
		<g>
			<path d="M291.55,171l-2.19-3.6l0.12-0.08l5.88,2.33c2.05,0.45,4.09,0.9,6.14,1.35c-2.05,0.45-4.09,0.9-6.14,1.35l-5.88,2.33
				l-0.12-0.06L291.55,171z"/>
		</g>
	</g>
</g>
<g>
	<path d="M95.62,58.68l0.69-6.62c0.03-0.25,0.04-0.45,0.04-0.59c0-0.23-0.06-0.4-0.19-0.52s-0.36-0.18-0.7-0.19l0.06-0.22h2.98
		l-0.06,0.22c-0.4,0-0.67,0.07-0.82,0.21s-0.25,0.5-0.3,1.08l-0.44,4.29l3.02-4.66c0-0.08,0.01-0.14,0.01-0.2
		c0-0.22-0.06-0.39-0.19-0.5s-0.41-0.19-0.83-0.22l0.05-0.22h3.22l-0.06,0.22c-0.37,0-0.62,0.04-0.75,0.09
		c-0.09,0.04-0.17,0.11-0.24,0.21s-0.12,0.26-0.16,0.49c-0.01,0.07-0.06,0.52-0.14,1.36s-0.21,1.98-0.38,3.43l2.51-3.82
		c0.27-0.42,0.45-0.71,0.52-0.88s0.11-0.31,0.11-0.43c0-0.11-0.05-0.21-0.14-0.29s-0.25-0.14-0.48-0.16l0.05-0.22h2.36l-0.06,0.22
		c-0.21,0.02-0.39,0.07-0.55,0.15s-0.35,0.25-0.57,0.49c-0.12,0.14-0.38,0.51-0.77,1.11l-3.99,6.15h-0.22l0.64-6.15l-3.99,6.15
		H95.62z"/>
</g>
<g>
	<path d="M104.95,56.92l0.97-0.47h0.1v3.35c0,0.22,0.01,0.36,0.03,0.42s0.06,0.1,0.12,0.13s0.18,0.05,0.36,0.05v0.11h-1.49v-0.11
		c0.19,0,0.31-0.02,0.36-0.05s0.09-0.07,0.11-0.11s0.03-0.19,0.03-0.43v-2.14c0-0.29-0.01-0.47-0.03-0.56
		c-0.01-0.06-0.04-0.11-0.07-0.14s-0.08-0.04-0.13-0.04c-0.07,0-0.17,0.03-0.3,0.09L104.95,56.92z"/>
	<path d="M107.57,61.5v-0.13c0.2-0.07,0.36-0.17,0.47-0.31s0.17-0.29,0.17-0.44c0-0.04-0.01-0.07-0.03-0.09
		c-0.01-0.02-0.03-0.03-0.04-0.03c-0.02,0-0.07,0.02-0.14,0.06c-0.04,0.02-0.07,0.03-0.11,0.03c-0.1,0-0.17-0.03-0.23-0.08
		s-0.08-0.13-0.08-0.23c0-0.1,0.04-0.18,0.11-0.25s0.16-0.1,0.27-0.1c0.13,0,0.24,0.06,0.34,0.17s0.15,0.26,0.15,0.45
		c0,0.2-0.07,0.39-0.21,0.56S107.88,61.4,107.57,61.5z"/>
	<path d="M109.45,56.92l0.97-0.47h0.1v3.35c0,0.22,0.01,0.36,0.03,0.42s0.06,0.1,0.12,0.13s0.18,0.05,0.36,0.05v0.11h-1.49v-0.11
		c0.19,0,0.31-0.02,0.36-0.05s0.09-0.07,0.11-0.11s0.03-0.19,0.03-0.43v-2.14c0-0.29-0.01-0.47-0.03-0.56
		c-0.01-0.06-0.04-0.11-0.07-0.14s-0.08-0.04-0.13-0.04c-0.07,0-0.17,0.03-0.3,0.09L109.45,56.92z"/>
</g>
<g>
	<path d="M127.12,85.68l0.69-6.62c0.03-0.25,0.04-0.45,0.04-0.59c0-0.23-0.06-0.4-0.19-0.52s-0.36-0.18-0.7-0.19l0.06-0.22H130
		l-0.06,0.22c-0.4,0-0.67,0.07-0.82,0.21s-0.25,0.5-0.3,1.08l-0.44,4.29l3.02-4.66c0-0.08,0.01-0.14,0.01-0.2
		c0-0.22-0.06-0.39-0.19-0.5s-0.41-0.19-0.83-0.22l0.05-0.22h3.22l-0.06,0.22c-0.37,0-0.62,0.04-0.75,0.09
		c-0.09,0.04-0.17,0.11-0.24,0.21s-0.12,0.26-0.16,0.49c-0.01,0.07-0.06,0.52-0.14,1.36s-0.21,1.98-0.38,3.43l2.51-3.82
		c0.27-0.42,0.45-0.71,0.52-0.88s0.11-0.31,0.11-0.43c0-0.11-0.05-0.21-0.14-0.29s-0.25-0.14-0.48-0.16l0.05-0.22h2.36l-0.06,0.22
		c-0.21,0.02-0.39,0.07-0.55,0.15s-0.35,0.25-0.57,0.49c-0.12,0.14-0.38,0.51-0.77,1.11l-3.99,6.15h-0.22l0.64-6.15l-3.99,6.15
		H127.12z"/>
</g>
<g>
	<path d="M136.45,83.92l0.97-0.47h0.1v3.35c0,0.22,0.01,0.36,0.03,0.42s0.06,0.1,0.12,0.13s0.18,0.05,0.36,0.05v0.11h-1.49v-0.11
		c0.19,0,0.31-0.02,0.36-0.05s0.09-0.07,0.11-0.11s0.03-0.19,0.03-0.43v-2.14c0-0.29-0.01-0.47-0.03-0.56
		c-0.01-0.06-0.04-0.11-0.07-0.14s-0.08-0.04-0.13-0.04c-0.07,0-0.17,0.03-0.3,0.09L136.45,83.92z"/>
	<path d="M139.07,88.5v-0.13c0.2-0.07,0.36-0.17,0.47-0.31s0.17-0.29,0.17-0.44c0-0.04-0.01-0.07-0.03-0.09
		c-0.01-0.02-0.03-0.03-0.04-0.03c-0.02,0-0.07,0.02-0.14,0.06c-0.04,0.02-0.07,0.03-0.11,0.03c-0.1,0-0.17-0.03-0.23-0.08
		s-0.08-0.13-0.08-0.23c0-0.1,0.04-0.18,0.11-0.25s0.16-0.1,0.27-0.1c0.13,0,0.24,0.06,0.34,0.17s0.15,0.26,0.15,0.45
		c0,0.2-0.07,0.39-0.21,0.56S139.38,88.4,139.07,88.5z"/>
	<path d="M143,86.74l-0.28,0.76h-2.34v-0.11c0.69-0.63,1.17-1.14,1.46-1.54s0.42-0.76,0.42-1.09c0-0.25-0.08-0.46-0.23-0.62
		s-0.34-0.24-0.55-0.24c-0.2,0-0.37,0.06-0.53,0.17s-0.27,0.28-0.34,0.5h-0.11c0.05-0.36,0.17-0.64,0.38-0.83s0.45-0.29,0.76-0.29
		c0.32,0,0.59,0.1,0.81,0.31s0.32,0.45,0.32,0.73c0,0.2-0.05,0.4-0.14,0.6c-0.14,0.32-0.38,0.65-0.7,1
		c-0.49,0.53-0.79,0.85-0.91,0.96h1.04c0.21,0,0.36-0.01,0.44-0.02s0.16-0.05,0.23-0.1s0.13-0.12,0.18-0.2H143z"/>
</g>
<g>
	<path d="M131.62,144.18l0.69-6.62c0.03-0.25,0.04-0.45,0.04-0.59c0-0.23-0.06-0.4-0.19-0.52s-0.36-0.18-0.7-0.19l0.06-0.22h2.98
		l-0.06,0.22c-0.4,0-0.67,0.07-0.82,0.21s-0.25,0.5-0.3,1.08l-0.44,4.29l3.02-4.66c0-0.08,0.01-0.14,0.01-0.2
		c0-0.22-0.06-0.39-0.19-0.5s-0.41-0.19-0.83-0.22l0.05-0.22h3.22l-0.06,0.22c-0.37,0-0.62,0.04-0.75,0.09
		c-0.09,0.04-0.17,0.11-0.24,0.21s-0.12,0.26-0.16,0.49c-0.01,0.07-0.06,0.52-0.14,1.36s-0.21,1.98-0.38,3.43l2.51-3.82
		c0.27-0.42,0.45-0.71,0.52-0.88s0.11-0.31,0.11-0.43c0-0.11-0.05-0.21-0.14-0.29s-0.25-0.14-0.48-0.16l0.05-0.22h2.36l-0.06,0.22
		c-0.21,0.02-0.39,0.07-0.55,0.15s-0.35,0.25-0.57,0.49c-0.12,0.14-0.38,0.51-0.77,1.11l-3.99,6.15h-0.22l0.64-6.15l-3.99,6.15
		H131.62z"/>
</g>
<g>
	<path d="M140.95,142.42l0.97-0.47h0.1v3.35c0,0.22,0.01,0.36,0.03,0.42s0.06,0.1,0.12,0.13s0.18,0.05,0.36,0.05V146h-1.49v-0.11
		c0.19,0,0.31-0.02,0.36-0.05s0.09-0.07,0.11-0.11s0.03-0.19,0.03-0.43v-2.14c0-0.29-0.01-0.47-0.03-0.56
		c-0.01-0.06-0.04-0.11-0.07-0.14s-0.08-0.04-0.13-0.04c-0.07,0-0.17,0.03-0.3,0.09L140.95,142.42z"/>
	<path d="M143.57,147v-0.13c0.2-0.07,0.36-0.17,0.47-0.31s0.17-0.29,0.17-0.44c0-0.04-0.01-0.07-0.03-0.09
		c-0.01-0.02-0.03-0.03-0.04-0.03c-0.02,0-0.07,0.02-0.14,0.06c-0.04,0.02-0.07,0.03-0.11,0.03c-0.1,0-0.17-0.03-0.23-0.08
		s-0.08-0.13-0.08-0.23c0-0.1,0.04-0.18,0.11-0.25s0.16-0.1,0.27-0.1c0.13,0,0.24,0.06,0.34,0.17s0.15,0.26,0.15,0.45
		c0,0.2-0.07,0.39-0.21,0.56S143.88,146.9,143.57,147z"/>
	<path d="M145.05,142.78c0.11-0.27,0.26-0.47,0.43-0.62s0.39-0.22,0.65-0.22c0.32,0,0.56,0.1,0.73,0.31
		c0.13,0.15,0.19,0.32,0.19,0.5c0,0.29-0.18,0.59-0.54,0.9c0.24,0.1,0.43,0.23,0.55,0.41s0.19,0.39,0.19,0.63
		c0,0.34-0.11,0.64-0.33,0.89c-0.29,0.33-0.7,0.49-1.24,0.49c-0.27,0-0.45-0.03-0.55-0.1s-0.15-0.14-0.15-0.21
		c0-0.06,0.02-0.11,0.07-0.15s0.1-0.06,0.17-0.06c0.05,0,0.1,0.01,0.15,0.02c0.03,0.01,0.11,0.05,0.23,0.11s0.2,0.1,0.24,0.11
		c0.07,0.02,0.15,0.03,0.23,0.03c0.2,0,0.37-0.08,0.52-0.23s0.22-0.34,0.22-0.55c0-0.15-0.03-0.3-0.1-0.45
		c-0.05-0.11-0.11-0.19-0.17-0.25c-0.08-0.08-0.2-0.15-0.35-0.21s-0.3-0.1-0.45-0.1h-0.09v-0.09c0.15-0.02,0.31-0.08,0.46-0.17
		s0.27-0.2,0.34-0.33s0.11-0.27,0.11-0.42c0-0.2-0.06-0.36-0.19-0.49s-0.28-0.19-0.47-0.19c-0.3,0-0.56,0.16-0.76,0.49
		L145.05,142.78z"/>
</g>
<g>
	<path d="M131.62,63.18l0.69-6.62c0.03-0.25,0.04-0.45,0.04-0.59c0-0.23-0.06-0.4-0.19-0.52s-0.36-0.18-0.7-0.19l0.06-0.22h2.98
		l-0.06,0.22c-0.4,0-0.67,0.07-0.82,0.21s-0.25,0.5-0.3,1.08l-0.44,4.29l3.02-4.66c0-0.08,0.01-0.14,0.01-0.2
		c0-0.22-0.06-0.39-0.19-0.5s-0.41-0.19-0.83-0.22l0.05-0.22h3.22l-0.06,0.22c-0.37,0-0.62,0.04-0.75,0.09
		c-0.09,0.04-0.17,0.11-0.24,0.21s-0.12,0.26-0.16,0.49c-0.01,0.07-0.06,0.52-0.14,1.36s-0.21,1.98-0.38,3.43l2.51-3.82
		c0.27-0.42,0.45-0.71,0.52-0.88s0.11-0.31,0.11-0.43c0-0.11-0.05-0.21-0.14-0.29s-0.25-0.14-0.48-0.16l0.05-0.22h2.36l-0.06,0.22
		c-0.21,0.02-0.39,0.07-0.55,0.15s-0.35,0.25-0.57,0.49c-0.12,0.14-0.38,0.51-0.77,1.11l-3.99,6.15h-0.22l0.64-6.15l-3.99,6.15
		H131.62z"/>
</g>
<g>
	<path d="M143,64.24L142.72,65h-2.34v-0.11c0.69-0.63,1.17-1.14,1.46-1.54s0.42-0.76,0.42-1.09c0-0.25-0.08-0.46-0.23-0.62
		s-0.34-0.24-0.55-0.24c-0.2,0-0.37,0.06-0.53,0.17s-0.27,0.28-0.34,0.5h-0.11c0.05-0.36,0.17-0.64,0.38-0.83s0.45-0.29,0.76-0.29
		c0.32,0,0.59,0.1,0.81,0.31s0.32,0.45,0.32,0.73c0,0.2-0.05,0.4-0.14,0.6c-0.14,0.32-0.38,0.65-0.7,1
		c-0.49,0.53-0.79,0.85-0.91,0.96h1.04c0.21,0,0.36-0.01,0.44-0.02s0.16-0.05,0.23-0.1s0.13-0.12,0.18-0.2H143z"/>
	<path d="M143.57,66v-0.13c0.2-0.07,0.36-0.17,0.47-0.31s0.17-0.29,0.17-0.44c0-0.04-0.01-0.07-0.03-0.09
		c-0.01-0.02-0.03-0.03-0.04-0.03c-0.02,0-0.07,0.02-0.14,0.06c-0.04,0.02-0.07,0.03-0.11,0.03c-0.1,0-0.17-0.03-0.23-0.08
		s-0.08-0.13-0.08-0.23c0-0.1,0.04-0.18,0.11-0.25s0.16-0.1,0.27-0.1c0.13,0,0.24,0.06,0.34,0.17s0.15,0.26,0.15,0.45
		c0,0.2-0.07,0.39-0.21,0.56S143.88,65.9,143.57,66z"/>
	<path d="M145.45,61.42l0.97-0.47h0.1v3.35c0,0.22,0.01,0.36,0.03,0.42s0.06,0.1,0.12,0.13s0.18,0.05,0.36,0.05V65h-1.49v-0.11
		c0.19,0,0.31-0.02,0.36-0.05s0.09-0.07,0.11-0.11s0.03-0.19,0.03-0.43v-2.14c0-0.29-0.01-0.47-0.03-0.56
		c-0.01-0.06-0.04-0.11-0.07-0.14s-0.08-0.04-0.13-0.04c-0.07,0-0.17,0.03-0.3,0.09L145.45,61.42z"/>
</g>
<g>
	<path d="M127.12,121.68l0.69-6.62c0.03-0.25,0.04-0.45,0.04-0.59c0-0.23-0.06-0.4-0.19-0.52s-0.36-0.18-0.7-0.19l0.06-0.22H130
		l-0.06,0.22c-0.4,0-0.67,0.07-0.82,0.21s-0.25,0.5-0.3,1.08l-0.44,4.29l3.02-4.66c0-0.08,0.01-0.14,0.01-0.2
		c0-0.22-0.06-0.39-0.19-0.5s-0.41-0.19-0.83-0.22l0.05-0.22h3.22l-0.06,0.22c-0.37,0-0.62,0.04-0.75,0.09
		c-0.09,0.04-0.17,0.11-0.24,0.21s-0.12,0.26-0.16,0.49c-0.01,0.07-0.06,0.52-0.14,1.36s-0.21,1.98-0.38,3.43l2.51-3.82
		c0.27-0.42,0.45-0.71,0.52-0.88s0.11-0.31,0.11-0.43c0-0.11-0.05-0.21-0.14-0.29s-0.25-0.14-0.48-0.16l0.05-0.22h2.36l-0.06,0.22
		c-0.21,0.02-0.39,0.07-0.55,0.15s-0.35,0.25-0.57,0.49c-0.12,0.14-0.38,0.51-0.77,1.11l-3.99,6.15h-0.22l0.64-6.15l-3.99,6.15
		H127.12z"/>
</g>
<g>
	<path d="M138.5,122.74l-0.28,0.76h-2.34v-0.11c0.69-0.63,1.17-1.14,1.46-1.54s0.42-0.76,0.42-1.09c0-0.25-0.08-0.46-0.23-0.62
		s-0.34-0.24-0.55-0.24c-0.2,0-0.37,0.06-0.53,0.17s-0.27,0.28-0.34,0.5h-0.11c0.05-0.36,0.17-0.64,0.38-0.83s0.45-0.29,0.76-0.29
		c0.32,0,0.59,0.1,0.81,0.31s0.32,0.45,0.32,0.73c0,0.2-0.05,0.4-0.14,0.6c-0.14,0.32-0.38,0.65-0.7,1
		c-0.49,0.53-0.79,0.85-0.91,0.96h1.04c0.21,0,0.36-0.01,0.44-0.02s0.16-0.05,0.23-0.1s0.13-0.12,0.18-0.2H138.5z"/>
	<path d="M139.07,124.5v-0.13c0.2-0.07,0.36-0.17,0.47-0.31s0.17-0.29,0.17-0.44c0-0.04-0.01-0.07-0.03-0.09
		c-0.01-0.02-0.03-0.03-0.04-0.03c-0.02,0-0.07,0.02-0.14,0.06c-0.04,0.02-0.07,0.03-0.11,0.03c-0.1,0-0.17-0.03-0.23-0.08
		s-0.08-0.13-0.08-0.23c0-0.1,0.04-0.18,0.11-0.25s0.16-0.1,0.27-0.1c0.13,0,0.24,0.06,0.34,0.17s0.15,0.26,0.15,0.45
		c0,0.2-0.07,0.39-0.21,0.56S139.38,124.4,139.07,124.5z"/>
	<path d="M143,122.74l-0.28,0.76h-2.34v-0.11c0.69-0.63,1.17-1.14,1.46-1.54s0.42-0.76,0.42-1.09c0-0.25-0.08-0.46-0.23-0.62
		s-0.34-0.24-0.55-0.24c-0.2,0-0.37,0.06-0.53,0.17s-0.27,0.28-0.34,0.5h-0.11c0.05-0.36,0.17-0.64,0.38-0.83s0.45-0.29,0.76-0.29
		c0.32,0,0.59,0.1,0.81,0.31s0.32,0.45,0.32,0.73c0,0.2-0.05,0.4-0.14,0.6c-0.14,0.32-0.38,0.65-0.7,1
		c-0.49,0.53-0.79,0.85-0.91,0.96h1.04c0.21,0,0.36-0.01,0.44-0.02s0.16-0.05,0.23-0.1s0.13-0.12,0.18-0.2H143z"/>
</g>
<g>
	<path d="M95.62,148.68l0.69-6.62c0.03-0.25,0.04-0.45,0.04-0.59c0-0.23-0.06-0.4-0.19-0.52s-0.36-0.18-0.7-0.19l0.06-0.22h2.98
		l-0.06,0.22c-0.4,0-0.67,0.07-0.82,0.21s-0.25,0.5-0.3,1.08l-0.44,4.29l3.02-4.66c0-0.08,0.01-0.14,0.01-0.2
		c0-0.22-0.06-0.39-0.19-0.5s-0.41-0.19-0.83-0.22l0.05-0.22h3.22l-0.06,0.22c-0.37,0-0.62,0.04-0.75,0.09
		c-0.09,0.04-0.17,0.11-0.24,0.21s-0.12,0.26-0.16,0.49c-0.01,0.07-0.06,0.52-0.14,1.36s-0.21,1.98-0.38,3.43l2.51-3.82
		c0.27-0.42,0.45-0.71,0.52-0.88s0.11-0.31,0.11-0.43c0-0.11-0.05-0.21-0.14-0.29s-0.25-0.14-0.48-0.16l0.05-0.22h2.36l-0.06,0.22
		c-0.21,0.02-0.39,0.07-0.55,0.15s-0.35,0.25-0.57,0.49c-0.12,0.14-0.38,0.51-0.77,1.11l-3.99,6.15h-0.22l0.64-6.15l-3.99,6.15
		H95.62z"/>
</g>
<g>
	<path d="M107,149.74l-0.28,0.76h-2.34v-0.11c0.69-0.63,1.17-1.14,1.46-1.54s0.42-0.76,0.42-1.09c0-0.25-0.08-0.46-0.23-0.62
		s-0.34-0.24-0.55-0.24c-0.2,0-0.37,0.06-0.53,0.17s-0.27,0.28-0.34,0.5h-0.11c0.05-0.36,0.17-0.64,0.38-0.83s0.45-0.29,0.76-0.29
		c0.32,0,0.59,0.1,0.81,0.31s0.32,0.45,0.32,0.73c0,0.2-0.05,0.4-0.14,0.6c-0.14,0.32-0.38,0.65-0.7,1
		c-0.49,0.53-0.79,0.85-0.91,0.96h1.04c0.21,0,0.36-0.01,0.44-0.02s0.16-0.05,0.23-0.1s0.13-0.12,0.18-0.2H107z"/>
	<path d="M107.57,151.5v-0.13c0.2-0.07,0.36-0.17,0.47-0.31s0.17-0.29,0.17-0.44c0-0.04-0.01-0.07-0.03-0.09
		c-0.01-0.02-0.03-0.03-0.04-0.03c-0.02,0-0.07,0.02-0.14,0.06c-0.04,0.02-0.07,0.03-0.11,0.03c-0.1,0-0.17-0.03-0.23-0.08
		s-0.08-0.13-0.08-0.23c0-0.1,0.04-0.18,0.11-0.25s0.16-0.1,0.27-0.1c0.13,0,0.24,0.06,0.34,0.17s0.15,0.26,0.15,0.45
		c0,0.2-0.07,0.39-0.21,0.56S107.88,151.4,107.57,151.5z"/>
	<path d="M109.05,147.28c0.11-0.27,0.26-0.47,0.43-0.62s0.39-0.22,0.65-0.22c0.32,0,0.56,0.1,0.73,0.31
		c0.13,0.15,0.19,0.32,0.19,0.5c0,0.29-0.18,0.59-0.54,0.9c0.24,0.1,0.43,0.23,0.55,0.41s0.19,0.39,0.19,0.63
		c0,0.34-0.11,0.64-0.33,0.89c-0.29,0.33-0.7,0.49-1.24,0.49c-0.27,0-0.45-0.03-0.55-0.1s-0.15-0.14-0.15-0.21
		c0-0.06,0.02-0.11,0.07-0.15s0.1-0.06,0.17-0.06c0.05,0,0.1,0.01,0.15,0.02c0.03,0.01,0.11,0.05,0.23,0.11s0.2,0.1,0.24,0.11
		c0.07,0.02,0.15,0.03,0.23,0.03c0.2,0,0.37-0.08,0.52-0.23s0.22-0.34,0.22-0.55c0-0.15-0.03-0.3-0.1-0.45
		c-0.05-0.11-0.11-0.19-0.17-0.25c-0.08-0.08-0.2-0.15-0.35-0.21s-0.3-0.1-0.45-0.1h-0.09v-0.09c0.15-0.02,0.31-0.08,0.46-0.17
		s0.27-0.2,0.34-0.33s0.11-0.27,0.11-0.42c0-0.2-0.06-0.36-0.19-0.49s-0.28-0.19-0.47-0.19c-0.3,0-0.56,0.16-0.76,0.49
		L109.05,147.28z"/>
</g>
<g>
	<path d="M103.04,21.78l-1.35,4.72c0.44-0.46,0.82-0.77,1.15-0.94s0.67-0.25,1.02-0.25c0.5,0,0.91,0.17,1.23,0.5
		s0.48,0.78,0.48,1.35c0,0.73-0.21,1.46-0.63,2.19s-0.95,1.29-1.58,1.7s-1.26,0.61-1.87,0.61c-0.69,0-1.39-0.26-2.12-0.77l2.08-7.16
		c0.16-0.55,0.24-0.88,0.24-0.97c0-0.12-0.04-0.21-0.11-0.27c-0.1-0.08-0.26-0.12-0.46-0.12c-0.1,0-0.24,0.02-0.44,0.05v-0.26
		L103.04,21.78z M100.39,30.97c0.46,0.25,0.86,0.38,1.2,0.38c0.4,0,0.82-0.15,1.25-0.44s0.8-0.79,1.12-1.49s0.48-1.4,0.48-2.11
		c0-0.42-0.1-0.75-0.31-0.98s-0.45-0.36-0.73-0.36c-0.42,0-0.84,0.17-1.24,0.51s-0.69,0.81-0.87,1.42L100.39,30.97z"/>
</g>
<g>
	<path d="M106.94,28.72l1.29-0.63h0.13v4.47c0,0.3,0.01,0.48,0.04,0.55s0.08,0.13,0.15,0.17s0.24,0.06,0.48,0.07v0.14h-1.99v-0.14
		c0.25-0.01,0.41-0.03,0.48-0.06s0.12-0.09,0.15-0.15s0.04-0.25,0.04-0.57v-2.86c0-0.39-0.01-0.63-0.04-0.74
		c-0.02-0.08-0.05-0.14-0.1-0.18s-0.11-0.06-0.17-0.06c-0.1,0-0.23,0.04-0.4,0.12L106.94,28.72z"/>
</g>
<g>
	<path d="M103.04,93.78l-1.35,4.72c0.44-0.46,0.82-0.77,1.15-0.94s0.67-0.25,1.02-0.25c0.5,0,0.91,0.17,1.23,0.5
		s0.48,0.78,0.48,1.35c0,0.73-0.21,1.46-0.63,2.19s-0.95,1.29-1.58,1.7s-1.26,0.61-1.87,0.61c-0.69,0-1.39-0.26-2.12-0.77l2.08-7.16
		c0.16-0.55,0.24-0.88,0.24-0.97c0-0.12-0.04-0.21-0.11-0.27c-0.1-0.08-0.26-0.12-0.46-0.12c-0.1,0-0.24,0.02-0.44,0.05v-0.26
		L103.04,93.78z M100.39,102.97c0.46,0.25,0.86,0.38,1.2,0.38c0.4,0,0.82-0.15,1.25-0.44s0.8-0.79,1.12-1.49s0.48-1.4,0.48-2.11
		c0-0.42-0.1-0.75-0.31-0.98s-0.45-0.36-0.73-0.36c-0.42,0-0.84,0.17-1.24,0.51s-0.69,0.81-0.87,1.42L100.39,102.97z"/>
</g>
<g>
	<path d="M109.67,104.48l-0.37,1.02h-3.12v-0.14c0.92-0.84,1.57-1.52,1.94-2.05s0.56-1.02,0.56-1.46c0-0.34-0.1-0.61-0.31-0.83
		s-0.45-0.32-0.74-0.32c-0.26,0-0.49,0.08-0.7,0.23s-0.36,0.38-0.46,0.67h-0.14c0.06-0.48,0.23-0.85,0.5-1.11s0.61-0.39,1.01-0.39
		c0.43,0,0.79,0.14,1.08,0.41s0.43,0.6,0.43,0.98c0,0.27-0.06,0.54-0.19,0.8c-0.19,0.42-0.51,0.87-0.94,1.34
		c-0.65,0.71-1.05,1.14-1.21,1.28h1.38c0.28,0,0.48-0.01,0.59-0.03s0.22-0.06,0.31-0.13s0.17-0.15,0.24-0.27H109.67z"/>
</g>
<g>
	<path d="M103.04,165.78l-1.35,4.72c0.44-0.46,0.82-0.77,1.15-0.94s0.67-0.25,1.02-0.25c0.5,0,0.91,0.17,1.23,0.5
		s0.48,0.78,0.48,1.35c0,0.73-0.21,1.46-0.63,2.19s-0.95,1.29-1.58,1.7s-1.26,0.61-1.87,0.61c-0.69,0-1.39-0.26-2.12-0.77l2.08-7.16
		c0.16-0.55,0.24-0.88,0.24-0.97c0-0.12-0.04-0.21-0.11-0.27c-0.1-0.08-0.26-0.12-0.46-0.12c-0.1,0-0.24,0.02-0.44,0.05v-0.26
		L103.04,165.78z M100.39,174.97c0.46,0.25,0.86,0.38,1.2,0.38c0.4,0,0.82-0.15,1.25-0.44s0.8-0.79,1.12-1.49s0.48-1.4,0.48-2.11
		c0-0.42-0.1-0.75-0.31-0.98s-0.45-0.36-0.73-0.36c-0.42,0-0.84,0.17-1.24,0.51s-0.69,0.81-0.87,1.42L100.39,174.97z"/>
</g>
<g>
	<path d="M106.41,173.21c0.15-0.36,0.34-0.63,0.57-0.83s0.52-0.29,0.86-0.29c0.42,0,0.75,0.14,0.98,0.41
		c0.17,0.21,0.26,0.43,0.26,0.66c0,0.39-0.24,0.78-0.73,1.2c0.33,0.13,0.57,0.31,0.74,0.55s0.25,0.52,0.25,0.84
		c0,0.46-0.15,0.86-0.44,1.19c-0.38,0.44-0.93,0.66-1.65,0.66c-0.36,0-0.6-0.04-0.73-0.13s-0.19-0.18-0.19-0.29
		c0-0.08,0.03-0.14,0.09-0.2s0.13-0.09,0.22-0.09c0.06,0,0.13,0.01,0.2,0.03c0.04,0.01,0.14,0.06,0.3,0.14s0.26,0.13,0.32,0.15
		c0.1,0.03,0.2,0.04,0.31,0.04c0.27,0,0.5-0.1,0.69-0.31s0.29-0.45,0.29-0.73c0-0.21-0.05-0.41-0.14-0.6
		c-0.07-0.15-0.14-0.26-0.22-0.33c-0.11-0.1-0.27-0.2-0.46-0.28s-0.39-0.13-0.6-0.13h-0.12v-0.12c0.21-0.03,0.41-0.1,0.62-0.22
		s0.36-0.27,0.45-0.44s0.14-0.36,0.14-0.57c0-0.27-0.08-0.48-0.25-0.65s-0.38-0.25-0.63-0.25c-0.4,0-0.74,0.22-1.01,0.65
		L106.41,173.21z"/>
</g>
<g>
	<g>
		<line class="st1" x1="112.5" y1="27" x2="149.35" y2="27"/>
		<g>
			<path d="M147.55,27l-2.19-3.6l0.12-0.08l5.88,2.33c2.05,0.45,4.09,0.9,6.14,1.35c-2.05,0.45-4.09,0.9-6.14,1.35l-5.88,2.33
				l-0.12-0.06L147.55,27z"/>
		</g>
	</g>
</g>
<g>
	<g>
		<line class="st1" x1="112.5" y1="99" x2="149.35" y2="99"/>
		<g>
			<path d="M147.55,99l-2.19-3.6l0.12-0.08l5.88,2.33c2.05,0.45,4.09,0.9,6.14,1.35c-2.05,0.45-4.09,0.9-6.14,1.35l-5.88,2.33
				l-0.12-0.06L147.55,99z"/>
		</g>
	</g>
</g>
<g>
	<g>
		<line class="st1" x1="112.5" y1="171" x2="149.35" y2="171"/>
		<g>
			<path d="M147.55,171l-2.19-3.6l0.12-0.08l5.88,2.33c2.05,0.45,4.09,0.9,6.14,1.35c-2.05,0.45-4.09,0.9-6.14,1.35l-5.88,2.33
				l-0.12-0.06L147.55,171z"/>
		</g>
	</g>
</g>
<g>
	<path d="M246.79,45.32l-0.2,0.71h-1.14c0.09,0.25,0.13,0.48,0.13,0.69c0,0.6-0.26,1.14-0.77,1.61c-0.52,0.47-1.22,0.73-2.12,0.78
		c-0.48,0.15-0.85,0.32-1.09,0.52c-0.09,0.07-0.14,0.15-0.14,0.23c0,0.09,0.04,0.17,0.12,0.25s0.29,0.15,0.62,0.23l1.33,0.31
		c0.73,0.17,1.22,0.38,1.46,0.62c0.23,0.24,0.35,0.52,0.35,0.83c0,0.37-0.14,0.72-0.41,1.03c-0.28,0.31-0.68,0.55-1.21,0.73
		c-0.53,0.18-1.12,0.26-1.76,0.26c-0.57,0-1.08-0.07-1.54-0.2s-0.8-0.32-1-0.54c-0.2-0.23-0.3-0.46-0.3-0.7
		c0-0.2,0.06-0.4,0.19-0.61s0.29-0.39,0.49-0.52c0.12-0.09,0.47-0.29,1.05-0.62c-0.21-0.16-0.31-0.34-0.31-0.54
		c0-0.18,0.09-0.38,0.28-0.58s0.58-0.43,1.17-0.68c-0.5-0.1-0.9-0.31-1.19-0.63s-0.44-0.68-0.44-1.08c0-0.65,0.28-1.23,0.85-1.74
		s1.32-0.77,2.27-0.77c0.34,0,0.62,0.03,0.84,0.1s0.43,0.18,0.64,0.32H246.79z M241.15,51.08c-0.37,0.17-0.65,0.39-0.84,0.65
		c-0.19,0.26-0.28,0.52-0.28,0.78c0,0.3,0.14,0.55,0.41,0.75c0.39,0.28,0.97,0.42,1.72,0.42c0.65,0,1.21-0.11,1.67-0.33
		c0.46-0.22,0.69-0.51,0.69-0.86c0-0.18-0.09-0.35-0.26-0.51s-0.5-0.29-0.99-0.39C243,51.54,242.3,51.37,241.15,51.08z
		 M244.42,46.39c0-0.36-0.1-0.65-0.3-0.86c-0.2-0.21-0.47-0.31-0.8-0.31c-0.52,0-0.94,0.26-1.28,0.78s-0.5,1.06-0.5,1.62
		c0,0.35,0.11,0.64,0.32,0.86c0.21,0.22,0.47,0.33,0.78,0.33c0.24,0,0.47-0.07,0.7-0.2s0.42-0.31,0.57-0.55
		c0.15-0.23,0.28-0.53,0.37-0.89C244.38,46.81,244.42,46.55,244.42,46.39z"/>
</g>
<g>
	<path d="M246.79,117.32l-0.2,0.71h-1.14c0.09,0.25,0.13,0.48,0.13,0.69c0,0.6-0.25,1.14-0.77,1.61c-0.51,0.47-1.22,0.73-2.12,0.78
		c-0.48,0.15-0.84,0.32-1.09,0.52c-0.09,0.07-0.14,0.15-0.14,0.23c0,0.09,0.04,0.17,0.12,0.25s0.29,0.15,0.62,0.23l1.33,0.31
		c0.73,0.17,1.22,0.38,1.46,0.62c0.23,0.24,0.35,0.52,0.35,0.83c0,0.37-0.14,0.72-0.41,1.03c-0.28,0.31-0.68,0.55-1.21,0.73
		c-0.53,0.18-1.12,0.26-1.76,0.26c-0.56,0-1.08-0.07-1.54-0.2s-0.8-0.32-1-0.54c-0.2-0.23-0.3-0.46-0.3-0.7c0-0.2,0.07-0.4,0.2-0.61
		s0.29-0.39,0.49-0.52c0.12-0.09,0.47-0.29,1.05-0.62c-0.21-0.16-0.31-0.34-0.31-0.54c0-0.18,0.09-0.38,0.28-0.58
		s0.58-0.43,1.17-0.68c-0.5-0.1-0.9-0.31-1.19-0.63s-0.44-0.68-0.44-1.08c0-0.65,0.28-1.23,0.85-1.74s1.32-0.77,2.27-0.77
		c0.34,0,0.62,0.03,0.84,0.1s0.43,0.18,0.64,0.32H246.79z M241.15,123.08c-0.37,0.17-0.65,0.39-0.84,0.65
		c-0.19,0.26-0.28,0.52-0.28,0.78c0,0.3,0.14,0.55,0.41,0.75c0.39,0.28,0.97,0.42,1.72,0.42c0.65,0,1.21-0.11,1.67-0.33
		c0.46-0.22,0.69-0.51,0.69-0.86c0-0.18-0.08-0.35-0.26-0.51s-0.5-0.29-1-0.39C243,123.54,242.3,123.37,241.15,123.08z
		 M244.42,118.39c0-0.36-0.1-0.65-0.3-0.86c-0.2-0.21-0.47-0.31-0.8-0.31c-0.51,0-0.94,0.26-1.27,0.78s-0.5,1.06-0.5,1.62
		c0,0.35,0.11,0.64,0.32,0.86c0.21,0.22,0.47,0.33,0.78,0.33c0.24,0,0.48-0.07,0.7-0.2s0.42-0.31,0.57-0.55
		c0.16-0.23,0.28-0.53,0.37-0.89C244.38,118.81,244.42,118.55,244.42,118.39z"/>
</g>
<g>
	<path d="M247.53,187.74l-0.2,0.71h-1.14c0.09,0.25,0.13,0.48,0.13,0.69c0,0.6-0.26,1.14-0.77,1.61c-0.52,0.47-1.22,0.73-2.12,0.78
		c-0.48,0.15-0.85,0.32-1.09,0.52c-0.09,0.07-0.14,0.15-0.14,0.23c0,0.09,0.04,0.17,0.12,0.25s0.29,0.15,0.62,0.23l1.33,0.31
		c0.73,0.17,1.22,0.38,1.46,0.62c0.23,0.24,0.35,0.52,0.35,0.83c0,0.37-0.14,0.72-0.41,1.03c-0.28,0.31-0.68,0.55-1.21,0.73
		c-0.53,0.18-1.12,0.26-1.76,0.26c-0.57,0-1.08-0.07-1.54-0.2s-0.8-0.32-1-0.54c-0.2-0.23-0.3-0.46-0.3-0.7
		c0-0.2,0.06-0.4,0.19-0.61s0.29-0.39,0.49-0.52c0.12-0.09,0.47-0.29,1.05-0.62c-0.21-0.16-0.31-0.34-0.31-0.54
		c0-0.18,0.09-0.38,0.28-0.58s0.58-0.43,1.17-0.68c-0.5-0.1-0.9-0.31-1.19-0.63s-0.44-0.68-0.44-1.08c0-0.65,0.28-1.23,0.85-1.74
		s1.32-0.77,2.27-0.77c0.34,0,0.62,0.03,0.84,0.1s0.43,0.18,0.64,0.32H247.53z M241.88,193.5c-0.37,0.17-0.65,0.39-0.84,0.65
		c-0.19,0.26-0.28,0.52-0.28,0.78c0,0.3,0.14,0.55,0.41,0.75c0.39,0.28,0.97,0.42,1.72,0.42c0.65,0,1.21-0.11,1.67-0.33
		c0.46-0.22,0.69-0.51,0.69-0.86c0-0.18-0.09-0.35-0.26-0.51s-0.5-0.29-0.99-0.39C243.74,193.96,243.03,193.79,241.88,193.5z
		 M245.16,188.81c0-0.36-0.1-0.65-0.3-0.86c-0.2-0.21-0.47-0.31-0.8-0.31c-0.52,0-0.94,0.26-1.28,0.78s-0.5,1.06-0.5,1.62
		c0,0.35,0.11,0.64,0.32,0.86c0.21,0.22,0.47,0.33,0.78,0.33c0.24,0,0.47-0.07,0.7-0.2s0.42-0.31,0.57-0.55
		c0.15-0.23,0.28-0.53,0.37-0.89C245.11,189.23,245.16,188.97,245.16,188.81z"/>
</g>
<g>
</g>
<g>
</g>
<g>
</g>
<g>
</g>
<g>
</g>
<g>
</g>
<g>
</g>
</svg>
