<svg id="レイヤー_1" data-name="レイヤー 1" xmlns="http://www.w3.org/2000/svg" viewBox="0 0 706.5 315"><defs><style>.cls-1,.cls-5,.cls-6{fill:#4c4b4c;}.cls-2{fill:#373737;fill-rule:evenodd;}.cls-10,.cls-3,.cls-8,.cls-9{fill:none;stroke:#231815;stroke-width:2px;}.cls-10,.cls-3,.cls-5,.cls-6,.cls-8,.cls-9{stroke-miterlimit:10;}.cls-4{font-size:21px;font-family:Meiryo, Meiryo;}.cls-4,.cls-7{fill:#231815;}.cls-5{stroke:#22ac38;}.cls-6{stroke:#e4007f;}.cls-8{stroke-dasharray:2.05 2.05;}.cls-9{stroke-dasharray:1.99 1.99;}.cls-10{stroke-dasharray:1.96 1.96;}</style></defs><title>アートボード 1</title><path class="cls-1" d="M73.57,37.53a7.08,7.08,0,0,0-1.47-3.1c-.15-.19-.31-.36-.48-.54a7.11,7.11,0,0,0-5-2.08h-37a7.11,7.11,0,0,0-5,2.08c-.17.18-.33.35-.48.54a7,7,0,0,0-1.46,3.1,7.1,7.1,0,0,0-.14,1.38v26a7.16,7.16,0,0,0,2.08,5c.16.16.32.3.49.45A7.07,7.07,0,0,0,29.6,72h37a7,7,0,0,0,4.53-1.64c.17-.14.33-.28.49-.44a7.22,7.22,0,0,0,1.5-2.2h0a6.93,6.93,0,0,0,.58-2.81v-26A8,8,0,0,0,73.57,37.53ZM27.15,36.46a3.45,3.45,0,0,1,2.45-1h37a3.44,3.44,0,0,1,2.45,1,3.57,3.57,0,0,1,.31.37L50,53.73a2.85,2.85,0,0,1-3.74,0L26.85,36.82A2.49,2.49,0,0,1,27.15,36.46Zm-1,28.44V40.58l14,12.24-14,12.23A.76.76,0,0,1,26.13,64.9ZM66.6,68.37h-37a3.45,3.45,0,0,1-1.72-.46L42.68,55l1.38,1.21a6.16,6.16,0,0,0,8.08,0L53.52,55l14.8,12.9A3.45,3.45,0,0,1,66.6,68.37Zm3.47-3.47a.76.76,0,0,1,0,.15L56,52.83l14-12.24Z"/><path class="cls-1" d="M73.57,100.22a7,7,0,0,0-1.47-3.1,5,5,0,0,0-.48-.54,7.11,7.11,0,0,0-5-2.08h-37a7.11,7.11,0,0,0-5,2.08,5,5,0,0,0-.48.54,6.9,6.9,0,0,0-1.46,3.1,7,7,0,0,0-.14,1.38v26a7.16,7.16,0,0,0,2.08,5l.49.45a7.13,7.13,0,0,0,4.53,1.63h37a7.06,7.06,0,0,0,4.53-1.64c.17-.14.33-.29.49-.44a7.22,7.22,0,0,0,1.5-2.2h0a7,7,0,0,0,.58-2.81v-26A7.87,7.87,0,0,0,73.57,100.22ZM27.15,99.15a3.46,3.46,0,0,1,2.45-1h37a3.44,3.44,0,0,1,2.76,1.38L50,116.41a2.85,2.85,0,0,1-3.74,0L26.85,99.51A2,2,0,0,1,27.15,99.15Zm-1,28.44V103.27l14,12.24-14,12.23A.76.76,0,0,1,26.13,127.59Zm40.47,3.46h-37a3.45,3.45,0,0,1-1.72-.45l14.8-12.9,1.38,1.2a6.13,6.13,0,0,0,8.08,0l1.38-1.2,14.8,12.9A3.45,3.45,0,0,1,66.6,131.05Zm3.47-3.46a.76.76,0,0,1,0,.15L56,115.52l14-12.25Z"/><path class="cls-1" d="M73.57,163.22a7,7,0,0,0-1.47-3.1,5,5,0,0,0-.48-.54,7.11,7.11,0,0,0-5-2.08h-37a7.11,7.11,0,0,0-5,2.08,5,5,0,0,0-.48.54,6.9,6.9,0,0,0-1.46,3.1,7,7,0,0,0-.14,1.38v26a7.16,7.16,0,0,0,2.08,5l.49.45a7.13,7.13,0,0,0,4.53,1.63h37a7.06,7.06,0,0,0,4.53-1.64c.17-.14.33-.29.49-.44a7.22,7.22,0,0,0,1.5-2.2h0a7,7,0,0,0,.58-2.81v-26A7.87,7.87,0,0,0,73.57,163.22Zm-46.42-1.07a3.46,3.46,0,0,1,2.45-1h37a3.44,3.44,0,0,1,2.76,1.38L50,179.41a2.85,2.85,0,0,1-3.74,0l-19.38-16.9A2,2,0,0,1,27.15,162.15Zm-1,28.44V166.27l14,12.24-14,12.23A.76.76,0,0,1,26.13,190.59Zm40.47,3.46h-37a3.45,3.45,0,0,1-1.72-.45l14.8-12.9,1.38,1.2a6.13,6.13,0,0,0,8.08,0l1.38-1.2,14.8,12.9A3.45,3.45,0,0,1,66.6,194.05Zm3.47-3.46a.76.76,0,0,1,0,.15L56,178.52l14-12.25Z"/><path class="cls-2" d="M176,68.21a3.46,3.46,0,0,1,1.23.19,2.43,2.43,0,0,1,.71.47,2.9,2.9,0,0,1,.62.9,9.32,9.32,0,0,1,.48,1.3c.13.48.28,1.18.44,2.08.29,1.51.56,3.1.82,4.77s.49,3.22.68,4.65a41.2,41.2,0,0,0,2.89-4.82,25.16,25.16,0,0,0,1.7-4.09,10.3,10.3,0,0,0,.52-2.83,1.43,1.43,0,0,0-.35-1.13,2.07,2.07,0,0,0-1.19-.35l.17-.86h4.63l.47.88a57.65,57.65,0,0,1-3.62,7.82,81.33,81.33,0,0,1-5.15,8.12,39.18,39.18,0,0,1-4.62,5.57A9,9,0,0,1,174,92.57a5.3,5.3,0,0,1-2,.39,7.18,7.18,0,0,1-.86-.06,3,3,0,0,1-.74-.17l.75-3.41h1.39c0,.75.26,1.13.77,1.13a3.82,3.82,0,0,0,2.38-1.28,27,27,0,0,0,3.18-3.84q-.51-3.08-1.39-7.42-.93-4.64-1.23-5.75a3.89,3.89,0,0,0-.77-1.7.9.9,0,0,0-.62-.23,1.49,1.49,0,0,0-1,.46,8.29,8.29,0,0,0-1.22,1.58l-1.14-.76A9.69,9.69,0,0,1,173.65,69a4,4,0,0,1,2.35-.75Z"/><polygon class="cls-2" points="181.34 59.95 183.69 59.95 189.67 65.48 188.72 66.49 182.52 62.22 182.32 62.22 176.01 66.49 175.06 65.48 181.34 59.95 181.34 59.95"/><path class="cls-2" d="M203.42,77.49h21.66v2.34H203.42V77.49Zm0-7.29h21.66v2.33H203.42V70.2Z"/><path class="cls-2" d="M254.26,60.05a14.14,14.14,0,0,1,3,.28l-.68,3H255a3.34,3.34,0,0,0-.64-1.44,1.52,1.52,0,0,0-1.17-.44,2.71,2.71,0,0,0-1.7.55,4.28,4.28,0,0,0-1.18,1.65,15.75,15.75,0,0,0-.92,2.93L249,68.49h4.52l-.39,1.78h-4.53l-3.27,15.32a12.36,12.36,0,0,1-2.48,5.69,5.37,5.37,0,0,1-4.2,1.87,5.84,5.84,0,0,1-1.16-.09l.3-1.54a4.26,4.26,0,0,0,.82,0,2.28,2.28,0,0,0,1.36-.4,3.68,3.68,0,0,0,1-1.41,13,13,0,0,0,.89-2.78l3.78-16.71h-3l.26-1.22a10.63,10.63,0,0,0,1.7-.19,2,2,0,0,0,.81-.37,2,2,0,0,0,.49-.64,9.56,9.56,0,0,0,.52-1.45,9.39,9.39,0,0,1,2.87-4.76,7.58,7.58,0,0,1,4.95-1.59Z"/><path class="cls-2" d="M295.37,58.45a12.72,12.72,0,0,1,7.88,5.85A20.4,20.4,0,0,1,306,75.14,20.31,20.31,0,0,1,303.26,86a12.68,12.68,0,0,1-7.89,5.83l-.43-1.35a10.14,10.14,0,0,0,6-5.35A22.78,22.78,0,0,0,303,75a22,22,0,0,0-2-9.87,10.09,10.09,0,0,0-6.1-5.28Zm-23,0,.48,1.36a10.08,10.08,0,0,0-6.09,5.28,21.85,21.85,0,0,0-2,9.87,22.78,22.78,0,0,0,2,10.14,10.12,10.12,0,0,0,6,5.35l-.42,1.35A12.68,12.68,0,0,1,264.49,86a20.31,20.31,0,0,1-2.74-10.83A20.31,20.31,0,0,1,264.5,64.3a12.72,12.72,0,0,1,7.88-5.85Z"/><path class="cls-2" d="M281.63,67.58a4.41,4.41,0,0,1,2.14.42A3,3,0,0,1,285,69.47a15.09,15.09,0,0,1,.9,3.34h.18c.86-1.21,1.54-2.13,2-2.75a11.94,11.94,0,0,1,1.33-1.47,4.2,4.2,0,0,1,1.2-.79,3.79,3.79,0,0,1,1.37-.22,5.34,5.34,0,0,1,1.78.31l-.83,3.8h-1.58c-.06-.49-.28-.74-.65-.74a1.27,1.27,0,0,0-.52.12,3.21,3.21,0,0,0-.72.56,13.48,13.48,0,0,0-1.12,1.25l-2,2.48c.41,2.48.74,4.25,1,5.32a5.2,5.2,0,0,0,.82,2.08.76.76,0,0,0,.59.27,1.19,1.19,0,0,0,.82-.35,5.79,5.79,0,0,0,1-1.53l1.6.73a7.92,7.92,0,0,1-2.32,2.78,5.1,5.1,0,0,1-3,.92,4.3,4.3,0,0,1-1.71-.28,2.54,2.54,0,0,1-1.09-.9,6.18,6.18,0,0,1-.79-1.79,22.46,22.46,0,0,1-.64-3h-.18c-1,1.43-1.79,2.52-2.39,3.27a13.9,13.9,0,0,1-1.54,1.69,4.36,4.36,0,0,1-1.23.79,3.93,3.93,0,0,1-1.41.23,6.27,6.27,0,0,1-.95-.1,6,6,0,0,1-.83-.2l.83-3.82h1.58a.89.89,0,0,0,.18.56.57.57,0,0,0,.43.18,1.31,1.31,0,0,0,.59-.13,3.74,3.74,0,0,0,.76-.59,15.47,15.47,0,0,0,1.22-1.34c.49-.6,1.32-1.64,2.5-3.12-.25-1.39-.48-2.58-.7-3.58a15.68,15.68,0,0,0-.59-2.18,2.68,2.68,0,0,0-.5-.91.77.77,0,0,0-.53-.23,1.08,1.08,0,0,0-.62.19,2.18,2.18,0,0,0-.55.6A7.76,7.76,0,0,0,278,72l-1.6-.74a8.2,8.2,0,0,1,2.3-2.78,4.86,4.86,0,0,1,2.91-.91Z"/><path class="cls-2" d="M203.42,120.69h21.66V123H203.42v-2.34Zm0-7.29h21.66v2.33H203.42V113.4Z"/><path class="cls-2" d="M389.87,101.65a12.72,12.72,0,0,1,7.88,5.85,20.4,20.4,0,0,1,2.75,10.84,20.31,20.31,0,0,1-2.74,10.83,12.68,12.68,0,0,1-7.89,5.83l-.43-1.35a10.14,10.14,0,0,0,6-5.35,22.78,22.78,0,0,0,2-10.14,22,22,0,0,0-2-9.87,10.09,10.09,0,0,0-6.1-5.28Zm-138.37,0L252,103a10.08,10.08,0,0,0-6.09,5.28,21.85,21.85,0,0,0-2,9.87,22.78,22.78,0,0,0,2,10.14,10.12,10.12,0,0,0,6,5.35L251.5,135a12.68,12.68,0,0,1-7.89-5.83,20.31,20.31,0,0,1-2.74-10.83,20.31,20.31,0,0,1,2.75-10.84,12.72,12.72,0,0,1,7.88-5.85Z"/><path class="cls-2" d="M260.75,110.78a4.41,4.41,0,0,1,2.14.42,3,3,0,0,1,1.21,1.47A15.09,15.09,0,0,1,265,116h.18c.86-1.21,1.54-2.13,2-2.75a11.94,11.94,0,0,1,1.33-1.47,4.2,4.2,0,0,1,1.2-.79,3.79,3.79,0,0,1,1.37-.22,5.34,5.34,0,0,1,1.78.31l-.83,3.8h-1.58c-.06-.49-.28-.74-.65-.74a1.27,1.27,0,0,0-.52.12,3.21,3.21,0,0,0-.72.56,13.48,13.48,0,0,0-1.12,1.25l-2,2.48c.41,2.48.74,4.25,1,5.32a5.2,5.2,0,0,0,.82,2.08.76.76,0,0,0,.59.27,1.19,1.19,0,0,0,.82-.35,5.79,5.79,0,0,0,1-1.53l1.6.73a7.92,7.92,0,0,1-2.32,2.78,5.1,5.1,0,0,1-3,.92,4.3,4.3,0,0,1-1.71-.28,2.54,2.54,0,0,1-1.09-.9,6.18,6.18,0,0,1-.79-1.79,22.46,22.46,0,0,1-.64-3h-.18c-1,1.43-1.79,2.52-2.39,3.27a13.9,13.9,0,0,1-1.54,1.69,4.36,4.36,0,0,1-1.23.79,3.93,3.93,0,0,1-1.41.23,6.27,6.27,0,0,1-.95-.1,6,6,0,0,1-.83-.2l.83-3.82h1.58a.89.89,0,0,0,.18.56.57.57,0,0,0,.43.18,1.31,1.31,0,0,0,.59-.13,3.74,3.74,0,0,0,.76-.59,15.47,15.47,0,0,0,1.22-1.34c.49-.6,1.32-1.64,2.5-3.12-.25-1.39-.48-2.58-.7-3.58a15.68,15.68,0,0,0-.59-2.18,2.68,2.68,0,0,0-.5-.91.77.77,0,0,0-.53-.23,1.08,1.08,0,0,0-.62.19,2.18,2.18,0,0,0-.55.6,7.76,7.76,0,0,0-.63,1.1l-1.6-.74a8.2,8.2,0,0,1,2.3-2.78,4.86,4.86,0,0,1,2.91-.91Z"/><polygon class="cls-2" points="274.81 98.83 290.41 98.83 290.41 100.79 283.62 100.79 283.62 115.36 281.54 115.36 281.54 100.79 274.81 100.79 274.81 98.83 274.81 98.83"/><path class="cls-2" d="M294.73,111.06h6.14l1,12.76a48.16,48.16,0,0,0,3.69-6.5,17.25,17.25,0,0,0,1.31-5.1l.24-1.16h4l1.09,12.78a56.42,56.42,0,0,0,3.7-6.26,9.73,9.73,0,0,0,1.15-4,1.42,1.42,0,0,0-.32-1,1.53,1.53,0,0,0-1.1-.38l.24-1.16h5l.61,1.16a39.74,39.74,0,0,1-3.61,6.91q-2.79,4.55-6.62,9.63h-3l-.54-5.2c-.15-1.41-.25-2.47-.3-3.19s-.07-1.28-.07-1.7h-.18a67.68,67.68,0,0,1-6.17,10.09h-3.2l-1.38-13.52a10.86,10.86,0,0,0-.31-1.82,1.85,1.85,0,0,0-.53-.87,1.75,1.75,0,0,0-1-.33Z"/><polygon class="cls-2" points="334.46 107.3 356.19 116.98 356.19 119.44 334.46 129.13 334.46 126.49 353.55 118.21 334.46 109.93 334.46 107.3 334.46 107.3"/><path class="cls-2" d="M378.71,105.71a3,3,0,0,0-2,.72,5,5,0,0,0-1.32,2.08,14.06,14.06,0,0,0-.71,3.29,41.28,41.28,0,0,0-.21,4.39q0,5.73,1.06,8.41c.71,1.79,1.81,2.68,3.3,2.68s2.47-.84,3.15-2.52a21.94,21.94,0,0,0,1-7.81,32.24,32.24,0,0,0-.53-6.55,8.27,8.27,0,0,0-1.46-3.6,2.94,2.94,0,0,0-2.28-1.09Zm.09-1.49a6.33,6.33,0,0,1,5.73,3q1.88,3,1.88,9,0,6.22-2,9.42a6.56,6.56,0,0,1-5.88,3.19,6.21,6.21,0,0,1-5.66-3c-1.23-2-1.85-5-1.85-9.07a24,24,0,0,1,.57-5.59,12.31,12.31,0,0,1,1.6-3.9,6.65,6.65,0,0,1,2.47-2.27,6.83,6.83,0,0,1,3.15-.74Z"/><rect class="cls-3" x="148.5" y="22.5" width="274.5" height="184.5"/><text class="cls-4" transform="translate(193.5 193.5)">線形二値分類モデル</text><path class="cls-5" d="M555.07,37.85a7.06,7.06,0,0,0-1.47-3.11,6,6,0,0,0-.48-.53,7.07,7.07,0,0,0-5-2.09h-37a7.07,7.07,0,0,0-5,2.09,6,6,0,0,0-.48.53,7.19,7.19,0,0,0-1.6,4.49v26a7,7,0,0,0,.59,2.82,6.91,6.91,0,0,0,1.49,2.2c.16.16.32.31.49.45a7.07,7.07,0,0,0,4.53,1.63h37a7,7,0,0,0,4.53-1.64,5,5,0,0,0,.49-.44,7.1,7.1,0,0,0,1.5-2.2h0a6.93,6.93,0,0,0,.58-2.81v-26A7.78,7.78,0,0,0,555.07,37.85Zm-46.42-1.07a3.42,3.42,0,0,1,2.45-1h37a3.4,3.4,0,0,1,2.45,1,2.67,2.67,0,0,1,.31.36L531.47,54a2.85,2.85,0,0,1-3.74,0L508.35,37.13A2.42,2.42,0,0,1,508.65,36.78Zm-1,28.43V40.89l14,12.24-14,12.23A.71.71,0,0,1,507.63,65.21Zm40.47,3.47h-37a3.45,3.45,0,0,1-1.72-.46l14.8-12.89,1.38,1.2a6.16,6.16,0,0,0,8.08,0l1.38-1.2,14.8,12.89A3.45,3.45,0,0,1,548.1,68.68Zm3.47-3.47a.71.71,0,0,1,0,.15l-14-12.22,14-12.24Z"/><path class="cls-5" d="M555.07,163.53a7.08,7.08,0,0,0-1.47-3.1c-.15-.19-.31-.36-.48-.54a7.11,7.11,0,0,0-5-2.08h-37a7.11,7.11,0,0,0-5,2.08c-.17.18-.33.35-.48.54a7,7,0,0,0-1.46,3.1,7.1,7.1,0,0,0-.14,1.38v26a7.16,7.16,0,0,0,2.08,5c.16.16.32.3.49.45A7.07,7.07,0,0,0,511.1,198h37a7,7,0,0,0,4.53-1.64c.17-.14.33-.28.49-.44a7.22,7.22,0,0,0,1.5-2.2h0a6.93,6.93,0,0,0,.58-2.81v-26A8,8,0,0,0,555.07,163.53Zm-46.42-1.07a3.45,3.45,0,0,1,2.45-1h37a3.44,3.44,0,0,1,2.45,1,3.57,3.57,0,0,1,.31.37l-19.39,16.9a2.85,2.85,0,0,1-3.74,0l-19.38-16.91A2.49,2.49,0,0,1,508.65,162.46Zm-1,28.44V166.58l14,12.24-14,12.23A.76.76,0,0,1,507.63,190.9Zm40.47,3.47h-37a3.45,3.45,0,0,1-1.72-.46l14.8-12.9,1.38,1.21a6.16,6.16,0,0,0,8.08,0L535,181l14.8,12.9A3.45,3.45,0,0,1,548.1,194.37Zm3.47-3.47a.76.76,0,0,1,0,.15l-14-12.22,14-12.24Z"/><path class="cls-5" d="M690.07,37.22a7,7,0,0,0-1.47-3.1,5,5,0,0,0-.48-.54,7.11,7.11,0,0,0-5-2.08h-37a7.11,7.11,0,0,0-5,2.08,5,5,0,0,0-.48.54,6.9,6.9,0,0,0-1.46,3.1A7,7,0,0,0,639,38.6v26a7.16,7.16,0,0,0,2.08,5l.49.45a7.13,7.13,0,0,0,4.53,1.63h37a7.06,7.06,0,0,0,4.53-1.64c.17-.14.33-.29.49-.44a7.22,7.22,0,0,0,1.5-2.2h0a7,7,0,0,0,.58-2.81v-26A7.87,7.87,0,0,0,690.07,37.22Zm-46.42-1.07a3.46,3.46,0,0,1,2.45-1h37a3.44,3.44,0,0,1,2.76,1.38l-19.39,16.9a2.85,2.85,0,0,1-3.74,0l-19.38-16.9A2,2,0,0,1,643.65,36.15Zm-1,28.44V40.27l14,12.24-14,12.23A.76.76,0,0,1,642.63,64.59Zm40.47,3.46h-37a3.45,3.45,0,0,1-1.72-.45l14.8-12.9,1.38,1.2a6.13,6.13,0,0,0,8.08,0L670,54.7l14.8,12.9A3.45,3.45,0,0,1,683.1,68.05Zm3.47-3.46a.76.76,0,0,1,0,.15l-14-12.22,14-12.25Z"/><path class="cls-6" d="M555.07,100.53a7.08,7.08,0,0,0-1.47-3.1c-.15-.19-.31-.36-.48-.54a7.11,7.11,0,0,0-5-2.08h-37a7.11,7.11,0,0,0-5,2.08c-.17.18-.33.35-.48.54a7,7,0,0,0-1.46,3.1,7.1,7.1,0,0,0-.14,1.38v26a7.16,7.16,0,0,0,2.08,5c.16.16.32.3.49.45A7.07,7.07,0,0,0,511.1,135h37a7,7,0,0,0,4.53-1.64c.17-.14.33-.28.49-.44a7.22,7.22,0,0,0,1.5-2.2h0a6.93,6.93,0,0,0,.58-2.81v-26A8,8,0,0,0,555.07,100.53Zm-46.42-1.07a3.45,3.45,0,0,1,2.45-1h37a3.44,3.44,0,0,1,2.45,1,3.57,3.57,0,0,1,.31.37l-19.39,16.9a2.85,2.85,0,0,1-3.74,0L508.35,99.82A2.49,2.49,0,0,1,508.65,99.46Zm-1,28.44V103.58l14,12.24-14,12.23A.76.76,0,0,1,507.63,127.9Zm40.47,3.47h-37a3.45,3.45,0,0,1-1.72-.46l14.8-12.9,1.38,1.21a6.16,6.16,0,0,0,8.08,0L535,118l14.8,12.9A3.45,3.45,0,0,1,548.1,131.37Zm3.47-3.47a.76.76,0,0,1,0,.15l-14-12.22,14-12.24Z"/><path class="cls-7" d="M528.58,107.49v.88a.3.3,0,0,0,.3.29h.74a.29.29,0,0,0,.3-.29v-.74h.25v.74a.3.3,0,0,0,.3.29h.74a.29.29,0,0,0,.3-.29v-.74h.25v.74a.3.3,0,0,0,.31.29h.73a.29.29,0,0,0,.3-.29v-.88a3.8,3.8,0,0,0,2.49-1.79c.32-.76.19-1.76-.28-3.69s-1.86-3-4.47-3-4,1.08-4.46,3-.6,2.93-.28,3.69A3.76,3.76,0,0,0,528.58,107.49Zm4.08-5a1.41,1.41,0,0,1,1.52,1.22,1.36,1.36,0,0,1-1,1.64,1.4,1.4,0,0,1-1.51-1.23A1.35,1.35,0,0,1,532.66,102.48Zm-.84,3.6h-2l1-1.17Zm-4.31-2.38a1.4,1.4,0,0,1,1.51-1.22,1.35,1.35,0,0,1,1,1.63,1.4,1.4,0,0,1-1.51,1.23A1.36,1.36,0,0,1,527.51,103.7Z"/><path class="cls-7" d="M537,111.73a1.13,1.13,0,0,0-1.42.43.56.56,0,0,1-.68.1l-2.62-1.16,2.33-1.07c.53-.24.92-.38,1.27-.09a1.14,1.14,0,0,0,1.38.34,1,1,0,0,0,.52-1.41,1.12,1.12,0,0,0-.8-.59,1,1,0,0,0,0-1,1.12,1.12,0,0,0-1.47-.49,1,1,0,0,0-.61,1.19c0,.36-.5.65-.85.81l-3.39,1.57-3.18-1.4c-.54-.24-.89-.44-.89-.88a1,1,0,0,0-.6-1.23,1.12,1.12,0,0,0-1.47.51,1,1,0,0,0,0,1,1.09,1.09,0,0,0-.8.6,1,1,0,0,0,.54,1.4,1.13,1.13,0,0,0,1.35-.32c.27-.25.84,0,1.19.12l2.22,1c-1.36.62-2.51,1.14-2.69,1.2a.6.6,0,0,1-.29,0s0,0,0,0a1.13,1.13,0,0,0-1.48-.5,1.05,1.05,0,0,0-.52,1.42,1.08,1.08,0,0,0,.81.58,1,1,0,0,0,0,1,1.13,1.13,0,0,0,1.48.5,1,1,0,0,0,.56-1.32.5.5,0,0,1,.36-.56l3.43-1.57c1.84.8,3.69,1.62,3.9,1.74a.68.68,0,0,1,.21.2l0,0a1.05,1.05,0,0,0,.55,1.41,1.14,1.14,0,0,0,1.47-.52,1.07,1.07,0,0,0,0-1,1.08,1.08,0,0,0,.79-.59A1,1,0,0,0,537,111.73Z"/><path class="cls-6" d="M690.07,100.53a7.08,7.08,0,0,0-1.47-3.1c-.15-.19-.31-.36-.48-.54a7.11,7.11,0,0,0-5-2.08h-37a7.11,7.11,0,0,0-5,2.08c-.17.18-.33.35-.48.54a7,7,0,0,0-1.46,3.1,7.1,7.1,0,0,0-.14,1.38v26a7.16,7.16,0,0,0,2.08,5c.16.16.32.3.49.45A7.07,7.07,0,0,0,646.1,135h37a7,7,0,0,0,4.53-1.64c.17-.14.33-.28.49-.44a7.22,7.22,0,0,0,1.5-2.2h0a6.93,6.93,0,0,0,.58-2.81v-26A8,8,0,0,0,690.07,100.53Zm-46.42-1.07a3.45,3.45,0,0,1,2.45-1h37a3.44,3.44,0,0,1,2.45,1,3.57,3.57,0,0,1,.31.37l-19.39,16.9a2.85,2.85,0,0,1-3.74,0L643.35,99.82A2.49,2.49,0,0,1,643.65,99.46Zm-1,28.44V103.58l14,12.24-14,12.23A.76.76,0,0,1,642.63,127.9Zm40.47,3.47h-37a3.45,3.45,0,0,1-1.72-.46l14.8-12.9,1.38,1.21a6.16,6.16,0,0,0,8.08,0L670,118l14.8,12.9A3.45,3.45,0,0,1,683.1,131.37Zm3.47-3.47a.76.76,0,0,1,0,.15l-14-12.22,14-12.24Z"/><path class="cls-7" d="M663.58,107.49v.88a.3.3,0,0,0,.3.29h.74a.29.29,0,0,0,.3-.29v-.74h.25v.74a.3.3,0,0,0,.3.29h.74a.29.29,0,0,0,.3-.29v-.74h.25v.74a.3.3,0,0,0,.31.29h.73a.29.29,0,0,0,.3-.29v-.88a3.8,3.8,0,0,0,2.49-1.79c.32-.76.19-1.76-.28-3.69s-1.86-3-4.47-3-4,1.08-4.46,3-.6,2.93-.28,3.69A3.76,3.76,0,0,0,663.58,107.49Zm4.08-5a1.41,1.41,0,0,1,1.52,1.22,1.36,1.36,0,0,1-1,1.64,1.4,1.4,0,0,1-1.51-1.23A1.35,1.35,0,0,1,667.66,102.48Zm-.84,3.6h-2l1-1.17Zm-4.31-2.38a1.4,1.4,0,0,1,1.51-1.22,1.35,1.35,0,0,1,1,1.63,1.4,1.4,0,0,1-1.51,1.23A1.36,1.36,0,0,1,662.51,103.7Z"/><path class="cls-7" d="M672,111.73a1.13,1.13,0,0,0-1.42.43.56.56,0,0,1-.68.1l-2.62-1.16,2.33-1.07c.53-.24.92-.38,1.27-.09a1.14,1.14,0,0,0,1.38.34,1,1,0,0,0,.52-1.41,1.12,1.12,0,0,0-.8-.59,1,1,0,0,0,0-1,1.12,1.12,0,0,0-1.47-.49,1,1,0,0,0-.61,1.19c0,.36-.5.65-.85.81l-3.39,1.57-3.18-1.4c-.54-.24-.89-.44-.89-.88a1,1,0,0,0-.6-1.23,1.12,1.12,0,0,0-1.47.51,1,1,0,0,0,0,1,1.09,1.09,0,0,0-.8.6,1,1,0,0,0,.54,1.4,1.13,1.13,0,0,0,1.35-.32c.27-.25.84,0,1.19.12l2.22,1c-1.36.62-2.51,1.14-2.69,1.2a.6.6,0,0,1-.29,0s0,0,0,0a1.13,1.13,0,0,0-1.48-.5,1.05,1.05,0,0,0-.52,1.42,1.08,1.08,0,0,0,.81.58,1,1,0,0,0,0,1,1.13,1.13,0,0,0,1.48.5,1,1,0,0,0,.56-1.32.5.5,0,0,1,.36-.56l3.43-1.57c1.84.8,3.69,1.62,3.9,1.74a.68.68,0,0,1,.21.2l0,0a1.05,1.05,0,0,0,.55,1.41,1.14,1.14,0,0,0,1.47-.52,1.07,1.07,0,0,0,0-1,1.08,1.08,0,0,0,.79-.59A1,1,0,0,0,672,111.73Z"/><path class="cls-6" d="M690.07,163.53a7.08,7.08,0,0,0-1.47-3.1c-.15-.19-.31-.36-.48-.54a7.11,7.11,0,0,0-5-2.08h-37a7.11,7.11,0,0,0-5,2.08c-.17.18-.33.35-.48.54a7,7,0,0,0-1.46,3.1,7.1,7.1,0,0,0-.14,1.38v26a7.16,7.16,0,0,0,2.08,5c.16.16.32.3.49.45A7.07,7.07,0,0,0,646.1,198h37a7,7,0,0,0,4.53-1.64c.17-.14.33-.28.49-.44a7.22,7.22,0,0,0,1.5-2.2h0a6.93,6.93,0,0,0,.58-2.81v-26A8,8,0,0,0,690.07,163.53Zm-46.42-1.07a3.45,3.45,0,0,1,2.45-1h37a3.44,3.44,0,0,1,2.45,1,3.57,3.57,0,0,1,.31.37l-19.39,16.9a2.85,2.85,0,0,1-3.74,0l-19.38-16.91A2.49,2.49,0,0,1,643.65,162.46Zm-1,28.44V166.58l14,12.24-14,12.23A.76.76,0,0,1,642.63,190.9Zm40.47,3.47h-37a3.45,3.45,0,0,1-1.72-.46l14.8-12.9,1.38,1.21a6.16,6.16,0,0,0,8.08,0L670,181l14.8,12.9A3.45,3.45,0,0,1,683.1,194.37Zm3.47-3.47a.76.76,0,0,1,0,.15l-14-12.22,14-12.24Z"/><path class="cls-7" d="M663.58,170.49v.88a.3.3,0,0,0,.3.29h.74a.29.29,0,0,0,.3-.29v-.74h.25v.74a.3.3,0,0,0,.3.29h.74a.29.29,0,0,0,.3-.29v-.74h.25v.74a.3.3,0,0,0,.31.29h.73a.29.29,0,0,0,.3-.29v-.88a3.8,3.8,0,0,0,2.49-1.79c.32-.76.19-1.76-.28-3.69s-1.86-3-4.47-3-4,1.08-4.46,3-.6,2.93-.28,3.69A3.76,3.76,0,0,0,663.58,170.49Zm4.08-5a1.41,1.41,0,0,1,1.52,1.22,1.36,1.36,0,0,1-1,1.64,1.4,1.4,0,0,1-1.51-1.23A1.35,1.35,0,0,1,667.66,165.48Zm-.84,3.6h-2l1-1.17Zm-4.31-2.38a1.4,1.4,0,0,1,1.51-1.22,1.35,1.35,0,0,1,1,1.63,1.4,1.4,0,0,1-1.51,1.23A1.36,1.36,0,0,1,662.51,166.7Z"/><path class="cls-7" d="M672,174.73a1.13,1.13,0,0,0-1.42.43.56.56,0,0,1-.68.1l-2.62-1.16,2.33-1.07c.53-.24.92-.38,1.27-.09a1.14,1.14,0,0,0,1.38.34,1,1,0,0,0,.52-1.41,1.12,1.12,0,0,0-.8-.59,1,1,0,0,0,0-1,1.12,1.12,0,0,0-1.47-.49,1,1,0,0,0-.61,1.19c0,.36-.5.65-.85.81l-3.39,1.57-3.18-1.4c-.54-.24-.89-.44-.89-.88a1,1,0,0,0-.6-1.23,1.12,1.12,0,0,0-1.47.51,1,1,0,0,0,0,1,1.09,1.09,0,0,0-.8.6,1,1,0,0,0,.54,1.4,1.13,1.13,0,0,0,1.35-.32c.27-.25.84,0,1.19.12l2.22,1c-1.36.62-2.51,1.14-2.69,1.2a.6.6,0,0,1-.29,0s0,0,0-.05a1.13,1.13,0,0,0-1.48-.5,1.05,1.05,0,0,0-.52,1.42,1.08,1.08,0,0,0,.81.58,1,1,0,0,0,0,1,1.13,1.13,0,0,0,1.48.5,1,1,0,0,0,.56-1.32.5.5,0,0,1,.36-.56l3.43-1.57c1.84.8,3.69,1.62,3.9,1.74a.68.68,0,0,1,.21.2l0,0a1.05,1.05,0,0,0,.55,1.41,1.14,1.14,0,0,0,1.47-.52,1.07,1.07,0,0,0,0-1,1.08,1.08,0,0,0,.79-.59A1,1,0,0,0,672,174.73Z"/><path class="cls-1" d="M571.59,197.8a5.45,5.45,0,0,0-3.89-1.61h-4.43a5.5,5.5,0,0,0-5.5,5.49v6.21A8.29,8.29,0,0,0,560,213.6a7.44,7.44,0,0,0,11,0,8.29,8.29,0,0,0,2.24-5.71v-6.21A5.49,5.49,0,0,0,571.59,197.8Zm-.51,10.09a6.17,6.17,0,0,1-1.66,4.25,5.31,5.31,0,0,1-7.86,0,6.17,6.17,0,0,1-1.66-4.25v-3h11.18Zm0-4.52h-5.57v-5.06h2.19a3.38,3.38,0,0,1,3.38,3.37Z"/><rect class="cls-1" x="560.81" y="190.4" width="1.21" height="3.49"/><polygon class="cls-1" points="566.48 191.92 565.42 191.31 563.68 194.33 564.73 194.94 566.48 191.92"/><polygon class="cls-1" points="552.35 200.07 555.84 200.07 555.84 198.86 552.35 198.86 552.35 200.07"/><rect class="cls-1" x="554.47" y="194.06" width="1.21" height="3.49" transform="translate(107.96 578.61) rotate(-60)"/><polygon class="cls-1" points="559.15 194.33 557.41 191.31 556.36 191.92 558.1 194.94 559.15 194.33"/><line class="cls-3" x1="81" y1="54" x2="129.84" y2="54"/><path class="cls-7" d="M139.5,54c-4.54,1.69-10.18,4.56-13.68,7.61L128.58,54l-2.76-7.61C129.32,49.44,135,52.32,139.5,54Z"/><line class="cls-3" x1="81" y1="117" x2="129.84" y2="117"/><path class="cls-7" d="M139.5,117c-4.54,1.69-10.18,4.56-13.68,7.61l2.76-7.61-2.76-7.61C129.32,112.44,135,115.32,139.5,117Z"/><line class="cls-3" x1="81" y1="180" x2="129.84" y2="180"/><path class="cls-7" d="M139.5,180c-4.54,1.69-10.18,4.56-13.68,7.61l2.76-7.61-2.76-7.61C129.32,175.44,135,178.32,139.5,180Z"/><line class="cls-3" x1="436.5" y1="54" x2="485.34" y2="54"/><path class="cls-7" d="M495,54c-4.54,1.69-10.18,4.56-13.68,7.61L484.08,54l-2.76-7.61C484.82,49.44,490.46,52.32,495,54Z"/><line class="cls-3" x1="436.5" y1="117" x2="485.34" y2="117"/><path class="cls-7" d="M495,117c-4.54,1.69-10.18,4.56-13.68,7.61l2.76-7.61-2.76-7.61C484.82,112.44,490.46,115.32,495,117Z"/><line class="cls-3" x1="436.5" y1="180" x2="485.34" y2="180"/><path class="cls-7" d="M495,180c-4.54,1.69-10.18,4.56-13.68,7.61l2.76-7.61-2.76-7.61C484.82,175.44,490.46,178.32,495,180Z"/><line class="cls-3" x1="567" y1="54" x2="615.84" y2="54"/><path class="cls-7" d="M625.5,54c-4.54,1.69-10.18,4.56-13.68,7.61L614.58,54l-2.76-7.61C615.32,49.44,621,52.32,625.5,54Z"/><line class="cls-3" x1="567" y1="117" x2="615.84" y2="117"/><path class="cls-7" d="M625.5,117c-4.54,1.69-10.18,4.56-13.68,7.61l2.76-7.61-2.76-7.61C615.32,112.44,621,115.32,625.5,117Z"/><line class="cls-3" x1="567" y1="180" x2="615.84" y2="180"/><path class="cls-7" d="M625.5,180c-4.54,1.69-10.18,4.56-13.68,7.61l2.76-7.61-2.76-7.61C615.32,175.44,621,178.32,625.5,180Z"/><text class="cls-4" transform="translate(13.5 238.5)">メール</text><text class="cls-4" transform="translate(225 238.5)">スパム判定器</text><text class="cls-4" transform="translate(486 238.5)">判定結果</text><text class="cls-4" transform="translate(643.5 238.5)">正解</text><line class="cls-3" x1="666" y1="252" x2="666" y2="253"/><line class="cls-8" x1="666" y1="255.05" x2="666" y2="294.98"/><polyline class="cls-3" points="666 296 666 297 665 297"/><line class="cls-9" x1="663.01" y1="297" x2="289.99" y2="297"/><polyline class="cls-3" points="289 297 288 297 288 296"/><line class="cls-10" x1="288" y1="294.04" x2="288" y2="263.64"/><line class="cls-3" x1="288" y1="262.66" x2="288" y2="261.66"/><path class="cls-7" d="M288,252c1.69,4.54,4.56,10.18,7.61,13.68L288,262.92l-7.61,2.76C283.44,262.18,286.32,256.54,288,252Z"/><text class="cls-4" transform="translate(450 288)">再学習</text></svg>