<svg id="レイヤー_1" data-name="レイヤー 1" xmlns="http://www.w3.org/2000/svg" xmlns:xlink="http://www.w3.org/1999/xlink" viewBox="0 0 463 243"><defs><style>.cls-1,.cls-2,.cls-3,.cls-8,.cls-9{fill:none;}.cls-1{clip-rule:evenodd;}.cls-11,.cls-2,.cls-5,.cls-6,.cls-7{fill-rule:evenodd;}.cls-22,.cls-4{font-size:18px;fill:#231815;}.cls-13,.cls-22,.cls-4{font-family:Meiryo, Meiryo;}.cls-5{fill:#0c6bb0;}.cls-6{fill:#c9d3e4;}.cls-7{fill:#e7eaf4;}.cls-8,.cls-9{stroke:#fff;stroke-linejoin:round;}.cls-9{stroke-width:3px;}.cls-10{clip-path:url(#clip-path);}.cls-11,.cls-21{fill:#fff;}.cls-12{clip-path:url(#clip-path-13);}.cls-13,.cls-14,.cls-16,.cls-19,.cls-21{font-size:15.96px;}.cls-13,.cls-14,.cls-16,.cls-19{fill:#373737;}.cls-14,.cls-16,.cls-19{font-family:SegoeUI, Segoe UI;}.cls-14{letter-spacing:0em;}.cls-15{letter-spacing:0em;}.cls-17{clip-path:url(#clip-path-28);}.cls-18{clip-path:url(#clip-path-29);}.cls-19{letter-spacing:0em;}.cls-20{letter-spacing:0em;}.cls-21{font-family:Meiryo-Bold, Meiryo;font-weight:700;}.cls-22{writing-mode:tb;text-orientation:upright;glyph-orientation-vertical:0deg;}</style><clipPath id="clip-path"><polygon class="cls-1" points="48.53 228.52 450.89 228.52 450.89 44.32 48.53 44.32 48.53 228.52 48.53 228.52"/></clipPath><clipPath id="clip-path-13"><rect class="cls-3" x="48.53" y="44.32" width="402.36" height="184.2"/></clipPath><clipPath id="clip-path-28"><polygon class="cls-1" points="348.89 228.52 448.97 228.52 448.97 44.32 348.89 44.32 348.89 228.52 348.89 228.52"/></clipPath><clipPath id="clip-path-29"><rect class="cls-3" x="348.89" y="44.32" width="100.08" height="184.2"/></clipPath></defs><title>アートボード 1</title><text class="cls-4" transform="translate(203 27)">評価データ</text><polygon class="cls-5" points="49.14 44.83 143.19 44.83 143.19 94.78 49.14 94.78 49.14 44.83 49.14 44.83"/><polygon class="cls-5" points="143.19 44.83 246.06 44.83 246.06 94.78 143.19 94.78 143.19 44.83 143.19 44.83"/><polygon class="cls-5" points="246.06 44.83 348.94 44.83 348.94 94.78 246.06 94.78 246.06 44.83 246.06 44.83"/><polygon class="cls-5" points="348.94 44.83 448.87 44.83 448.87 94.78 348.94 94.78 348.94 44.83 348.94 44.83"/><polygon class="cls-5" points="49.14 94.78 143.19 94.78 143.19 140.38 49.14 140.38 49.14 94.78 49.14 94.78"/><polygon class="cls-6" points="143.19 94.78 246.06 94.78 246.06 140.38 143.19 140.38 143.19 94.78 143.19 94.78"/><polygon class="cls-6" points="246.06 94.78 348.94 94.78 348.94 140.38 246.06 140.38 246.06 94.78 246.06 94.78"/><polygon class="cls-6" points="348.94 94.78 448.87 94.78 448.87 140.38 348.94 140.38 348.94 94.78 348.94 94.78"/><polygon class="cls-5" points="49.14 140.38 143.19 140.38 143.19 185.99 49.14 185.99 49.14 140.38 49.14 140.38"/><polygon class="cls-7" points="143.19 140.38 246.06 140.38 246.06 185.99 143.19 185.99 143.19 140.38 143.19 140.38"/><polygon class="cls-7" points="246.06 140.38 348.94 140.38 348.94 185.99 246.06 185.99 246.06 140.38 246.06 140.38"/><polygon class="cls-7" points="348.94 140.38 448.87 140.38 448.87 185.99 348.94 185.99 348.94 140.38 348.94 140.38"/><polygon class="cls-5" points="49.14 185.99 143.19 185.99 143.19 227.43 49.14 227.43 49.14 185.99 49.14 185.99"/><polygon class="cls-6" points="143.19 185.99 246.06 185.99 246.06 227.43 143.19 227.43 143.19 185.99 143.19 185.99"/><polygon class="cls-6" points="246.06 185.99 348.94 185.99 348.94 227.43 246.06 227.43 246.06 185.99 246.06 185.99"/><polygon class="cls-6" points="348.94 185.99 448.87 185.99 448.87 227.43 348.94 227.43 348.94 185.99 348.94 185.99"/><line class="cls-8" x1="143.19" y1="44.33" x2="143.19" y2="227.93"/><line class="cls-8" x1="246.06" y1="44.33" x2="246.06" y2="227.93"/><line class="cls-8" x1="348.93" y1="44.33" x2="348.93" y2="227.93"/><line class="cls-9" x1="48.64" y1="94.78" x2="449.37" y2="94.78"/><line class="cls-8" x1="48.64" y1="140.39" x2="449.37" y2="140.39"/><line class="cls-8" x1="48.64" y1="185.99" x2="449.37" y2="185.99"/><line class="cls-8" x1="49.14" y1="44.33" x2="49.14" y2="227.93"/><line class="cls-8" x1="448.87" y1="44.33" x2="448.87" y2="227.93"/><line class="cls-8" x1="48.64" y1="44.83" x2="449.37" y2="44.83"/><line class="cls-8" x1="48.64" y1="227.43" x2="449.37" y2="227.43"/><g class="cls-10"><path class="cls-11" d="M177.2,56.45a1.47,1.47,0,0,1,.55.09,1,1,0,0,1,.31.21,1.28,1.28,0,0,1,.28.4,3.77,3.77,0,0,1,.21.57c.06.22.12.52.2.92.12.67.24,1.38.36,2.12s.22,1.43.3,2.06a18.29,18.29,0,0,0,1.28-2.14,12.09,12.09,0,0,0,.76-1.81,4.77,4.77,0,0,0,.23-1.26.62.62,0,0,0-.16-.49A.92.92,0,0,0,181,57l.08-.38h2.05l.21.39a26.1,26.1,0,0,1-1.61,3.47,35.84,35.84,0,0,1-2.28,3.6,17.87,17.87,0,0,1-2.05,2.47,4.16,4.16,0,0,1-1.1.74,2.25,2.25,0,0,1-.89.18l-.38,0a1,1,0,0,1-.33-.08l.33-1.51h.62c0,.33.11.5.34.5a1.7,1.7,0,0,0,1.05-.56A12.06,12.06,0,0,0,178.44,64c-.15-.91-.35-2-.61-3.29s-.46-2.22-.55-2.54a1.74,1.74,0,0,0-.34-.76.38.38,0,0,0-.27-.1.69.69,0,0,0-.47.2,3.72,3.72,0,0,0-.54.7l-.51-.33a4.38,4.38,0,0,1,1-1.14,1.76,1.76,0,0,1,1-.33Z"/><g class="cls-10"><path class="cls-11" d="M189.59,60.57h9.6v1h-9.6v-1Zm0-3.24h9.6v1h-9.6v-1Z"/><g class="cls-10"><path class="cls-11" d="M210.22,53.27h1c0,.49-.05,1.19-.05,2.07v6.51a3.9,3.9,0,0,0,.05.69.76.76,0,0,0,.18.37.84.84,0,0,0,.37.23,3.45,3.45,0,0,0,.61.12q.36,0,1,.06V64h-6.72v-.71a9.91,9.91,0,0,0,1.23-.11,1.4,1.4,0,0,0,.57-.2.71.71,0,0,0,.28-.37,2.45,2.45,0,0,0,.09-.79V56.22a.7.7,0,0,0-.12-.46.42.42,0,0,0-.33-.14,1.37,1.37,0,0,0-.55.18,11.56,11.56,0,0,0-1.16.73l-.48-.83,4.07-2.43Z"/><g class="cls-10"><path class="cls-11" d="M280.08,56.45a1.45,1.45,0,0,1,.54.09,1,1,0,0,1,.31.21,1.14,1.14,0,0,1,.28.4,3.77,3.77,0,0,1,.21.57c.06.22.13.52.2.92.12.67.24,1.38.36,2.12s.22,1.43.3,2.06a18.29,18.29,0,0,0,1.28-2.14,11.12,11.12,0,0,0,.76-1.81,4.77,4.77,0,0,0,.23-1.26.59.59,0,0,0-.16-.49.92.92,0,0,0-.53-.16l.08-.38H286l.21.39a24.89,24.89,0,0,1-1.61,3.47,35.84,35.84,0,0,1-2.28,3.6,17.87,17.87,0,0,1-2.05,2.47,4,4,0,0,1-1.1.74,2.25,2.25,0,0,1-.89.18l-.38,0a1.14,1.14,0,0,1-.33-.08l.33-1.51h.62c0,.33.11.5.34.5a1.7,1.7,0,0,0,1-.56A12.06,12.06,0,0,0,281.31,64c-.15-.91-.35-2-.61-3.29s-.46-2.22-.55-2.54a1.74,1.74,0,0,0-.34-.76.36.36,0,0,0-.27-.1.7.7,0,0,0-.47.2,4.19,4.19,0,0,0-.54.7l-.5-.33a4.2,4.2,0,0,1,1-1.14,1.77,1.77,0,0,1,1.05-.33Z"/><g class="cls-10"><path class="cls-11" d="M292.46,60.57h9.61v1h-9.61v-1Zm0-3.24h9.61v1h-9.61v-1Z"/><g class="cls-10"><path class="cls-11" d="M312.51,54.14a1,1,0,0,0-.87.49,3.58,3.58,0,0,0-.46,1.44,18.76,18.76,0,0,0-.14,2.51,19.64,19.64,0,0,0,.15,2.73,3.66,3.66,0,0,0,.48,1.49,1,1,0,0,0,.87.48,1,1,0,0,0,.52-.14,1.32,1.32,0,0,0,.4-.46,2.87,2.87,0,0,0,.3-.81,8.94,8.94,0,0,0,.18-1.28c0-.5.05-1.07.05-1.69a22.25,22.25,0,0,0-.1-2.35,6.23,6.23,0,0,0-.3-1.46,1.76,1.76,0,0,0-.46-.73.92.92,0,0,0-.62-.22Zm.05-.87a3.29,3.29,0,0,1,2.86,1.3,6.83,6.83,0,0,1,.94,4,7.23,7.23,0,0,1-1,4.18,3.38,3.38,0,0,1-2.94,1.41,3.19,3.19,0,0,1-2.83-1.33,7.09,7.09,0,0,1-.92-4,7,7,0,0,1,1-4.12,3.32,3.32,0,0,1,2.87-1.42Z"/><g class="cls-10"><path class="cls-11" d="M401,60.83v2.62h2.88V60.83Zm-1.17-.89h5.25v4.41H401v.57h-1.17v-5Zm-13.43-.18v3.4h8.79v-3.4Zm-1.23-.95h11.25v6h-1.23v-.73h-8.79v.77h-1.23V58.81ZM400,57.69h5v.91h-5v-.91Zm-13.19-1.95H395v.94h-8.12v-.94ZM400,55.57h5v.91h-5v-.91Zm-.58-2.13h6.1v.89h-6.1v-.89Zm.57-2.18h5.11v.88H400v-.88Zm-10.09-.36h1.72A16.58,16.58,0,0,0,395,54a17.37,17.37,0,0,0,3.79,2.18l-.64,1a17.91,17.91,0,0,1-3.76-2.26,19.75,19.75,0,0,1-3.5-3.25,15.54,15.54,0,0,1-3.13,3.09,19.41,19.41,0,0,1-4.14,2.51l-.53-.86a20.88,20.88,0,0,0,4-2.53,13.87,13.87,0,0,0,2.91-3Zm19.54-.07h1.27v4.4h3.44v1h-3.44v8.69h-1.27V56.23h-3.38v-1h3.38v-4.4Z"/><g class="cls-10"><path class="cls-11" d="M78.83,106.41a1.45,1.45,0,0,1,.54.09,1.12,1.12,0,0,1,.32.2,1.4,1.4,0,0,1,.27.4,4.37,4.37,0,0,1,.21.58c.06.21.13.52.2.92.13.67.25,1.38.36,2.12s.22,1.42.3,2.06a17.13,17.13,0,0,0,1.29-2.14,11,11,0,0,0,.75-1.81,4.45,4.45,0,0,0,.23-1.26.66.66,0,0,0-.15-.5.88.88,0,0,0-.53-.15l.07-.39h2l.21.39a24.86,24.86,0,0,1-1.6,3.47,37.21,37.21,0,0,1-2.28,3.6,18,18,0,0,1-2,2.47,4,4,0,0,1-1.1.75,2.25,2.25,0,0,1-.9.17l-.38,0a1.59,1.59,0,0,1-.33-.08l.34-1.51h.61c0,.33.12.5.35.5a1.67,1.67,0,0,0,1-.57,11.34,11.34,0,0,0,1.41-1.7c-.15-.91-.36-2-.62-3.29s-.45-2.22-.54-2.55a1.73,1.73,0,0,0-.35-.75.36.36,0,0,0-.27-.1.68.68,0,0,0-.47.2,3.85,3.85,0,0,0-.53.7l-.51-.33a4.2,4.2,0,0,1,1-1.14,1.74,1.74,0,0,1,1-.33Z"/><g class="cls-10"><polygon class="cls-11" points="81.08 102.75 82.12 102.75 84.77 105.2 84.35 105.65 81.6 103.75 81.52 103.75 78.72 105.65 78.3 105.2 81.08 102.75 81.08 102.75"/><g class="cls-10"><path class="cls-11" d="M91.1,110.52h9.6v1H91.1v-1Zm0-3.23h9.6v1H91.1v-1Z"/><g class="cls-10"><path class="cls-11" d="M111.72,103.22h1c0,.5,0,1.19,0,2.08v6.51a2.86,2.86,0,0,0,.06.68.83.83,0,0,0,.17.38.89.89,0,0,0,.37.22,2.94,2.94,0,0,0,.61.13c.25,0,.57,0,1,.06V114h-6.73v-.71c.58,0,1-.07,1.24-.11a1.34,1.34,0,0,0,.56-.2.77.77,0,0,0,.29-.37,2.49,2.49,0,0,0,.09-.79v-5.63a.69.69,0,0,0-.12-.46.39.39,0,0,0-.33-.14,1.32,1.32,0,0,0-.55.18,11.38,11.38,0,0,0-1.17.73l-.47-.83,4.06-2.44Z"/><g class="cls-10"><g class="cls-12"><text class="cls-13" transform="translate(170.59 112.54)">真陽性</text></g><g class="cls-10"><g class="cls-12"><text class="cls-13" transform="translate(169.99 131.75)">（</text></g><g class="cls-10"><g class="cls-12"><text class="cls-14" transform="translate(185.95 131.75)">T<tspan class="cls-15" x="8.39" y="0">P</tspan></text></g><g class="cls-10"><g class="cls-12"><text class="cls-13" transform="translate(203.23 131.75)">）</text></g><g class="cls-10"><g class="cls-12"><text class="cls-13" transform="translate(273.47 112.54)">偽陽性</text></g><g class="cls-10"><g class="cls-12"><text class="cls-13" transform="translate(273.1 131.75)">（</text></g><g class="cls-10"><g class="cls-12"><text class="cls-16" transform="translate(289.06 131.75)">FP</text></g><g class="cls-10"><g class="cls-12"><text class="cls-13" transform="translate(305.74 131.75)">）</text></g></g></g></g></g></g></g></g></g></g></g></g></g></g></g></g></g></g></g></g><g class="cls-17"><g class="cls-18"><text class="cls-13" transform="translate(361.89 111.95)">正例と予測</text></g></g><g class="cls-17"><g class="cls-18"><text class="cls-13" transform="translate(377.84 131.75)">された数</text></g></g><g class="cls-10"><path class="cls-11" d="M78.83,152a1.45,1.45,0,0,1,.54.09,1.12,1.12,0,0,1,.32.2,1.4,1.4,0,0,1,.27.4,4.37,4.37,0,0,1,.21.58c.06.21.13.52.2.92.13.67.25,1.38.36,2.12s.22,1.42.3,2.06a17.13,17.13,0,0,0,1.29-2.14,11,11,0,0,0,.75-1.81,4.45,4.45,0,0,0,.23-1.26.66.66,0,0,0-.15-.5.88.88,0,0,0-.53-.15l.07-.39h2l.21.39a24.86,24.86,0,0,1-1.6,3.47,37.21,37.21,0,0,1-2.28,3.6,18,18,0,0,1-2,2.47,4,4,0,0,1-1.1.75,2.25,2.25,0,0,1-.9.17l-.38,0a1.59,1.59,0,0,1-.33-.08l.34-1.51h.61c0,.33.12.5.35.5a1.67,1.67,0,0,0,1-.57,11.34,11.34,0,0,0,1.41-1.7c-.15-.91-.36-2-.62-3.29s-.45-2.22-.54-2.55a1.73,1.73,0,0,0-.35-.75.36.36,0,0,0-.27-.1.68.68,0,0,0-.47.2,3.85,3.85,0,0,0-.53.7l-.51-.33a4.2,4.2,0,0,1,1-1.14,1.74,1.74,0,0,1,1-.33Z"/><g class="cls-10"><polygon class="cls-11" points="81.08 148.35 82.12 148.35 84.77 150.8 84.35 151.25 81.6 149.35 81.52 149.35 78.72 151.25 78.3 150.8 81.08 148.35 81.08 148.35"/><g class="cls-10"><path class="cls-11" d="M91.1,156.12h9.6v1H91.1v-1Zm0-3.23h9.6v1H91.1v-1Z"/><g class="cls-10"><path class="cls-11" d="M111.15,149.7a1,1,0,0,0-.88.48,3.86,3.86,0,0,0-.46,1.45,18.65,18.65,0,0,0-.14,2.51,18,18,0,0,0,.16,2.73,3.66,3.66,0,0,0,.48,1.49,1,1,0,0,0,.87.48.91.91,0,0,0,.52-.15,1.18,1.18,0,0,0,.39-.45,3,3,0,0,0,.3-.82,6.55,6.55,0,0,0,.18-1.27c0-.5.06-1.07.06-1.69a21.93,21.93,0,0,0-.11-2.35,6.23,6.23,0,0,0-.3-1.46,1.71,1.71,0,0,0-.46-.74.94.94,0,0,0-.61-.21Zm0-.88a3.29,3.29,0,0,1,2.86,1.31,6.82,6.82,0,0,1,1,4,7.31,7.31,0,0,1-1,4.18,3.39,3.39,0,0,1-3,1.41,3.2,3.2,0,0,1-2.83-1.33,7.11,7.11,0,0,1-.91-4,7,7,0,0,1,1-4.11,3.32,3.32,0,0,1,2.86-1.43Z"/><g class="cls-10"><g class="cls-12"><text class="cls-13" transform="translate(170.59 158.14)">偽陰性</text></g><g class="cls-10"><g class="cls-12"><text class="cls-13" transform="translate(168.79 177.34)">（</text></g><g class="cls-10"><g class="cls-12"><text class="cls-16" transform="translate(184.75 177.34)">FN</text></g><g class="cls-10"><g class="cls-12"><text class="cls-13" transform="translate(204.43 177.34)">）</text></g><g class="cls-10"><g class="cls-12"><text class="cls-13" transform="translate(273.47 158.14)">真陰性</text></g><g class="cls-10"><g class="cls-12"><text class="cls-13" transform="translate(271.3 177.34)">（</text></g><g class="cls-10"><g class="cls-12"><text class="cls-19" transform="translate(287.27 177.34)">T<tspan class="cls-20" x="8.39" y="0">N</tspan></text></g><g class="cls-10"><g class="cls-12"><text class="cls-13" transform="translate(307.54 177.34)">）</text></g></g></g></g></g></g></g></g></g></g></g></g></g><g class="cls-17"><g class="cls-18"><text class="cls-13" transform="translate(361.89 157.54)">負例と予測</text></g></g><g class="cls-17"><g class="cls-18"><text class="cls-13" transform="translate(377.84 177.34)">された数</text></g></g><g class="cls-10"><g class="cls-12"><text class="cls-21" transform="translate(80.23 203.75)">合計</text></g><g class="cls-10"><g class="cls-12"><text class="cls-13" transform="translate(162.67 203.75)">正例の数</text></g><g class="cls-10"><g class="cls-12"><text class="cls-13" transform="translate(265.55 203.75)">負例の数</text></g><g class="cls-10"><g class="cls-12"><text class="cls-13" transform="translate(366.94 203.75)">総事例数</text></g></g></g></g></g><text class="cls-22" transform="translate(25 83)">モデルの予測</text></svg>