<?xml version="1.0" encoding="utf-8" standalone="no"?>
<!DOCTYPE svg PUBLIC "-//W3C//DTD SVG 1.1//EN"
  "http://www.w3.org/Graphics/SVG/1.1/DTD/svg11.dtd">
<svg height="51.12pt" version="1.1" viewBox="0 0 109.158 51.12" width="109.158pt" xmlns="http://www.w3.org/2000/svg" xmlns:xlink="http://www.w3.org/1999/xlink">
 <metadata>
  <rdf:RDF xmlns:cc="http://creativecommons.org/ns#" xmlns:dc="http://purl.org/dc/elements/1.1/" xmlns:rdf="http://www.w3.org/1999/02/22-rdf-syntax-ns#">
   <cc:Work>
    <dc:type rdf:resource="http://purl.org/dc/dcmitype/StillImage"/>
    <dc:date>2021-10-18T18:37:25.167618</dc:date>
    <dc:format>image/svg+xml</dc:format>
    <dc:creator>
     <cc:Agent>
      <dc:title>Matplotlib v3.4.2, https://matplotlib.org/</dc:title>
     </cc:Agent>
    </dc:creator>
   </cc:Work>
  </rdf:RDF>
 </metadata>
 <defs>
  <style type="text/css">*{stroke-linecap:butt;stroke-linejoin:round;}</style>
 </defs>
 <g id="figure_1">
  <g id="patch_1">
   <path d="M 0 51.12 
L 109.158 51.12 
L 109.158 0 
L 0 0 
z
" style="fill:none;"/>
  </g>
  <g id="axes_1">
   <g id="patch_2">
    <path clip-path="url(#p30d138d7bf)" d="M 68.349 29.232 
C 69.322826 29.232 70.256897 28.845095 70.945496 28.156496 
C 71.634095 27.467897 72.021 26.533826 72.021 25.56 
C 72.021 24.586174 71.634095 23.652103 70.945496 22.963504 
C 70.256897 22.274905 69.322826 21.888 68.349 21.888 
C 67.375174 21.888 66.441103 22.274905 65.752504 22.963504 
C 65.063905 23.652103 64.677 24.586174 64.677 25.56 
C 64.677 26.533826 65.063905 27.467897 65.752504 28.156496 
C 66.441103 28.845095 67.375174 29.232 68.349 29.232 
z
" style="fill:none;stroke:#000000;stroke-linejoin:miter;stroke-width:2;"/>
   </g>
   <g id="line2d_1">
    <path clip-path="url(#p30d138d7bf)" d="M 22.449 25.56 
L 34.077 25.56 
L 44.787 25.56 
M 72.021 25.56 
L 83.649 25.56 
" style="fill:none;stroke:#000000;stroke-linecap:round;stroke-width:2;"/>
   </g>
   <g id="line2d_2">
    <path clip-path="url(#p30d138d7bf)" d="M 72.021 25.56 
L 75.387 25.56 
" style="fill:none;stroke:#000000;stroke-linecap:round;stroke-width:2;"/>
   </g>
   <g id="line2d_3">
    <path clip-path="url(#p30d138d7bf)" d="M 44.787 25.56 
L 44.787 40.86 
L 64.677 25.56 
L 44.787 10.26 
L 44.787 25.56 
" style="fill:none;stroke:#000000;stroke-linecap:round;stroke-width:2;"/>
   </g>
   <g id="text_1">
    <!-- $y$ -->
    <g transform="translate(86.709 29.394687)scale(0.14 -0.14)">
     <defs>
      <path d="M 1588 -325 
Q 1188 -997 936 -1164 
Q 684 -1331 294 -1331 
L -159 -1331 
L -63 -850 
L 269 -850 
Q 509 -850 678 -719 
Q 847 -588 1056 -206 
L 1234 128 
L 459 3500 
L 1069 3500 
L 1650 819 
L 3256 3500 
L 3859 3500 
L 1588 -325 
z
" id="DejaVuSans-Oblique-79" transform="scale(0.015625)"/>
     </defs>
     <use transform="translate(0 0.3125)" xlink:href="#DejaVuSans-Oblique-79"/>
    </g>
   </g>
   <g id="text_2">
    <!-- $x$ -->
    <g transform="translate(10.989 29.423125)scale(0.14 -0.14)">
     <defs>
      <path d="M 3841 3500 
L 2234 1784 
L 3219 0 
L 2559 0 
L 1819 1388 
L 531 0 
L -166 0 
L 1556 1844 
L 641 3500 
L 1300 3500 
L 1972 2234 
L 3144 3500 
L 3841 3500 
z
" id="DejaVuSans-Oblique-78" transform="scale(0.015625)"/>
     </defs>
     <use transform="translate(0 0.3125)" xlink:href="#DejaVuSans-Oblique-78"/>
    </g>
   </g>
  </g>
 </g>
 <defs>
  <clipPath id="p30d138d7bf">
   <rect height="36.72" width="94.758" x="7.2" y="7.2"/>
  </clipPath>
 </defs>
</svg>