<?xml version="1.0" encoding="utf-8" standalone="no"?>
<!DOCTYPE svg PUBLIC "-//W3C//DTD SVG 1.1//EN"
  "http://www.w3.org/Graphics/SVG/1.1/DTD/svg11.dtd">
<svg height="54.52pt" version="1.1" viewBox="0 0 111.453 54.52" width="111.453pt" xmlns="http://www.w3.org/2000/svg" xmlns:xlink="http://www.w3.org/1999/xlink">
 <metadata>
  <rdf:RDF xmlns:cc="http://creativecommons.org/ns#" xmlns:dc="http://purl.org/dc/elements/1.1/" xmlns:rdf="http://www.w3.org/1999/02/22-rdf-syntax-ns#">
   <cc:Work>
    <dc:type rdf:resource="http://purl.org/dc/dcmitype/StillImage"/>
    <dc:date>2021-10-18T18:37:24.786807</dc:date>
    <dc:format>image/svg+xml</dc:format>
    <dc:creator>
     <cc:Agent>
      <dc:title>Matplotlib v3.4.2, https://matplotlib.org/</dc:title>
     </cc:Agent>
    </dc:creator>
   </cc:Work>
  </rdf:RDF>
 </metadata>
 <defs>
  <style type="text/css">*{stroke-linecap:butt;stroke-linejoin:round;}</style>
 </defs>
 <g id="figure_1">
  <g id="patch_1">
   <path d="M 0 54.52 
L 111.453 54.52 
L 111.453 -0 
L 0 -0 
z
" style="fill:none;"/>
  </g>
  <g id="axes_1">
   <g id="line2d_1">
    <path clip-path="url(#pab8436c10a)" d="M 38.514 43.784 
L 55.562571 43.684082 
L 57.311143 43.384327 
L 59.059714 42.884735 
L 60.808286 42.185306 
L 62.556857 41.286041 
L 64.742571 39.880939 
L 66.928286 38.163592 
L 69.114 36.134 
L 71.299714 33.792163 
L 73.485429 31.138082 
L 75.234 28.79 
L 75.234 28.79 
L 72.611143 25.342816 
L 70.425429 22.813633 
L 68.239714 20.596694 
L 66.054 18.692 
L 63.868286 17.099551 
L 61.682571 15.819347 
L 59.934 15.02 
L 58.185429 14.42049 
L 56.436857 14.020816 
L 54.688286 13.82098 
L 53.814 13.796 
L 38.514 13.796 
L 38.514 13.796 
L 40.7172 16.244 
L 42.11256 18.08 
L 43.2876 19.916 
L 44.24232 21.752 
L 44.97672 23.588 
L 45.4908 25.424 
L 45.78456 27.26 
L 45.858 29.096 
L 45.71112 30.932 
L 45.34392 32.768 
L 44.7564 34.604 
L 43.94856 36.44 
L 42.9204 38.276 
L 41.67192 40.112 
L 40.20312 41.948 
L 38.514 43.784 
L 38.514 43.784 
" style="fill:none;stroke:#000000;stroke-linecap:round;stroke-width:2;"/>
   </g>
   <g id="line2d_2">
    <path clip-path="url(#pab8436c10a)" d="M 27.804 36.44 
L 43.94856 36.44 
" style="fill:none;stroke:#000000;stroke-linecap:round;stroke-width:2;"/>
   </g>
   <g id="line2d_3">
    <path clip-path="url(#pab8436c10a)" d="M 27.804 21.14 
L 43.94856 21.14 
" style="fill:none;stroke:#000000;stroke-linecap:round;stroke-width:2;"/>
   </g>
   <g id="line2d_4">
    <path clip-path="url(#pab8436c10a)" d="M 27.804 28.79 
M 75.234 28.79 
L 85.944 28.79 
" style="fill:none;stroke:#000000;stroke-linecap:round;stroke-width:2;"/>
   </g>
   <g id="text_1">
    <!-- $y$ -->
    <g transform="translate(89.004 32.624688)scale(0.14 -0.14)">
     <defs>
      <path d="M 1588 -325 
Q 1188 -997 936 -1164 
Q 684 -1331 294 -1331 
L -159 -1331 
L -63 -850 
L 269 -850 
Q 509 -850 678 -719 
Q 847 -588 1056 -206 
L 1234 128 
L 459 3500 
L 1069 3500 
L 1650 819 
L 3256 3500 
L 3859 3500 
L 1588 -325 
z
" id="DejaVuSans-Oblique-79" transform="scale(0.015625)"/>
     </defs>
     <use transform="translate(0 0.3125)" xlink:href="#DejaVuSans-Oblique-79"/>
    </g>
   </g>
   <g id="text_2">
    <!-- $x_1$ -->
    <g transform="translate(9.764 25.003125)scale(0.14 -0.14)">
     <defs>
      <path d="M 3841 3500 
L 2234 1784 
L 3219 0 
L 2559 0 
L 1819 1388 
L 531 0 
L -166 0 
L 1556 1844 
L 641 3500 
L 1300 3500 
L 1972 2234 
L 3144 3500 
L 3841 3500 
z
" id="DejaVuSans-Oblique-78" transform="scale(0.015625)"/>
      <path d="M 794 531 
L 1825 531 
L 1825 4091 
L 703 3866 
L 703 4441 
L 1819 4666 
L 2450 4666 
L 2450 531 
L 3481 531 
L 3481 0 
L 794 0 
L 794 531 
z
" id="DejaVuSans-31" transform="scale(0.015625)"/>
     </defs>
     <use transform="translate(0 0.3125)" xlink:href="#DejaVuSans-Oblique-78"/>
     <use transform="translate(59.179688 -16.09375)scale(0.7)" xlink:href="#DejaVuSans-31"/>
    </g>
   </g>
   <g id="text_3">
    <!-- $x_2$ -->
    <g transform="translate(9.764 40.303125)scale(0.14 -0.14)">
     <defs>
      <path d="M 1228 531 
L 3431 531 
L 3431 0 
L 469 0 
L 469 531 
Q 828 903 1448 1529 
Q 2069 2156 2228 2338 
Q 2531 2678 2651 2914 
Q 2772 3150 2772 3378 
Q 2772 3750 2511 3984 
Q 2250 4219 1831 4219 
Q 1534 4219 1204 4116 
Q 875 4013 500 3803 
L 500 4441 
Q 881 4594 1212 4672 
Q 1544 4750 1819 4750 
Q 2544 4750 2975 4387 
Q 3406 4025 3406 3419 
Q 3406 3131 3298 2873 
Q 3191 2616 2906 2266 
Q 2828 2175 2409 1742 
Q 1991 1309 1228 531 
z
" id="DejaVuSans-32" transform="scale(0.015625)"/>
     </defs>
     <use transform="translate(0 0.3125)" xlink:href="#DejaVuSans-Oblique-78"/>
     <use transform="translate(59.179688 -16.09375)scale(0.7)" xlink:href="#DejaVuSans-32"/>
    </g>
   </g>
  </g>
 </g>
 <defs>
  <clipPath id="pab8436c10a">
   <rect height="40.12" width="97.053" x="7.2" y="7.2"/>
  </clipPath>
 </defs>
</svg>