<?xml version="1.0" encoding="utf-8" standalone="no"?>
<!DOCTYPE svg PUBLIC "-//W3C//DTD SVG 1.1//EN"
  "http://www.w3.org/Graphics/SVG/1.1/DTD/svg11.dtd">
<svg height="100.25pt" version="1.1" viewBox="0 0 145.1436 100.25" width="145.1436pt" xmlns="http://www.w3.org/2000/svg" xmlns:xlink="http://www.w3.org/1999/xlink">
 <metadata>
  <rdf:RDF xmlns:cc="http://creativecommons.org/ns#" xmlns:dc="http://purl.org/dc/elements/1.1/" xmlns:rdf="http://www.w3.org/1999/02/22-rdf-syntax-ns#">
   <cc:Work>
    <dc:type rdf:resource="http://purl.org/dc/dcmitype/StillImage"/>
    <dc:date>2021-10-18T18:37:27.015602</dc:date>
    <dc:format>image/svg+xml</dc:format>
    <dc:creator>
     <cc:Agent>
      <dc:title>Matplotlib v3.4.2, https://matplotlib.org/</dc:title>
     </cc:Agent>
    </dc:creator>
   </cc:Work>
  </rdf:RDF>
 </metadata>
 <defs>
  <style type="text/css">*{stroke-linecap:butt;stroke-linejoin:round;}</style>
 </defs>
 <g id="figure_1">
  <g id="patch_1">
   <path d="M 0 100.25 
L 145.1436 100.25 
L 145.1436 0 
L 0 0 
z
" style="fill:none;"/>
  </g>
  <g id="axes_1">
   <g id="line2d_1">
    <path clip-path="url(#pfc94ad1796)" d="M 70.2768 43.784 
L 87.325371 43.684082 
L 89.073943 43.384327 
L 90.822514 42.884735 
L 92.571086 42.185306 
L 94.319657 41.286041 
L 96.505371 39.880939 
L 98.691086 38.163592 
L 100.8768 36.134 
L 103.062514 33.792163 
L 105.248229 31.138082 
L 106.9968 28.79 
L 106.9968 28.79 
L 104.373943 25.342816 
L 102.188229 22.813633 
L 100.002514 20.596694 
L 97.8168 18.692 
L 95.631086 17.099551 
L 93.445371 15.819347 
L 91.6968 15.02 
L 89.948229 14.42049 
L 88.199657 14.020816 
L 86.451086 13.82098 
L 85.5768 13.796 
L 70.2768 13.796 
L 70.2768 13.796 
L 72.48 16.244 
L 73.87536 18.08 
L 75.0504 19.916 
L 76.00512 21.752 
L 76.73952 23.588 
L 77.2536 25.424 
L 77.54736 27.26 
L 77.6208 29.096 
L 77.47392 30.932 
L 77.10672 32.768 
L 76.5192 34.604 
L 75.71136 36.44 
L 74.6832 38.276 
L 73.43472 40.112 
L 71.96592 41.948 
L 70.2768 43.784 
L 70.2768 43.784 
" style="fill:none;stroke:#000000;stroke-linecap:round;stroke-width:2;"/>
   </g>
   <g id="line2d_2">
    <path clip-path="url(#pfc94ad1796)" d="M 65.6868 43.784 
L 66.27432 43.172 
L 66.83736 42.56 
L 67.37592 41.948 
L 67.89 41.336 
L 68.3796 40.724 
L 68.84472 40.112 
L 69.28536 39.5 
L 69.70152 38.888 
L 70.0932 38.276 
L 70.4604 37.664 
L 70.80312 37.052 
L 71.12136 36.44 
L 71.41512 35.828 
L 71.6844 35.216 
L 71.9292 34.604 
L 72.14952 33.992 
L 72.34536 33.38 
L 72.51672 32.768 
L 72.6636 32.156 
L 72.786 31.544 
L 72.88392 30.932 
L 72.95736 30.32 
L 73.00632 29.708 
L 73.0308 29.096 
L 73.0308 28.484 
L 73.00632 27.872 
L 72.95736 27.26 
L 72.88392 26.648 
L 72.786 26.036 
L 72.6636 25.424 
L 72.51672 24.812 
L 72.34536 24.2 
L 72.14952 23.588 
L 71.9292 22.976 
L 71.6844 22.364 
L 71.41512 21.752 
L 71.12136 21.14 
L 70.80312 20.528 
L 70.4604 19.916 
L 70.0932 19.304 
L 69.70152 18.692 
L 69.28536 18.08 
L 68.84472 17.468 
L 68.3796 16.856 
L 67.89 16.244 
L 67.37592 15.632 
L 66.83736 15.02 
L 66.27432 14.408 
L 65.6868 13.796 
" style="fill:none;stroke:#000000;stroke-linecap:round;stroke-width:2;"/>
   </g>
   <g id="line2d_3">
    <path clip-path="url(#pfc94ad1796)" d="M 54.9768 36.44 
L 71.12136 36.44 
" style="fill:none;stroke:#000000;stroke-linecap:round;stroke-width:2;"/>
   </g>
   <g id="line2d_4">
    <path clip-path="url(#pfc94ad1796)" d="M 54.9768 21.14 
L 71.12136 21.14 
" style="fill:none;stroke:#000000;stroke-linecap:round;stroke-width:2;"/>
   </g>
   <g id="line2d_5">
    <path clip-path="url(#pfc94ad1796)" d="M 54.9768 28.79 
M 106.9968 28.79 
L 117.7068 28.79 
" style="fill:none;stroke:#000000;stroke-linecap:round;stroke-width:2;"/>
   </g>
   <g id="line2d_6">
    <path clip-path="url(#pfc94ad1796)" d="M 54.9768 21.14 
L 39.6768 21.14 
L 24.3768 21.14 
" style="fill:none;stroke:#000000;stroke-linecap:round;stroke-width:2;"/>
   </g>
   <g id="line2d_7">
    <path clip-path="url(#pfc94ad1796)" d="M 54.9768 36.44 
L 47.3268 36.44 
L 39.6768 36.44 
" style="fill:none;stroke:#000000;stroke-linecap:round;stroke-width:2;"/>
   </g>
   <g id="line2d_8">
    <path clip-path="url(#pfc94ad1796)" d="M 39.6768 36.44 
L 32.0268 36.44 
L 24.3768 36.44 
" style="fill:none;stroke:#000000;stroke-linecap:round;stroke-width:2;"/>
   </g>
   <g id="line2d_9">
    <path clip-path="url(#pfc94ad1796)" d="M 54.9768 21.14 
L 54.9768 44.09 
L 54.9768 67.04 
" style="fill:none;stroke:#000000;stroke-linecap:round;stroke-width:2;"/>
   </g>
   <g id="line2d_10">
    <path clip-path="url(#pfc94ad1796)" d="M 85.5768 89.99 
L 86.557074 89.958565 
L 87.533321 89.864387 
L 88.501527 89.707855 
L 89.457715 89.489611 
L 90.397956 89.210553 
L 91.318385 88.871826 
L 92.215221 88.474824 
L 93.084779 88.021176 
L 93.923484 87.512748 
L 94.727891 86.951628 
L 95.494694 86.340123 
L 96.220743 85.680745 
L 96.903053 84.976204 
L 97.538822 84.229394 
L 98.125435 83.443385 
L 98.660484 82.621406 
L 99.141769 81.766836 
L 99.567313 80.883185 
L 99.935367 79.974085 
L 100.244418 79.043272 
L 100.493197 78.09457 
L 100.680681 77.131878 
L 100.8061 76.159152 
L 100.868939 75.180389 
L 100.868939 74.199611 
L 100.8061 73.220848 
L 100.680681 72.248122 
L 100.493197 71.28543 
L 100.244418 70.336728 
L 99.935367 69.405915 
L 99.567313 68.496815 
L 99.141769 67.613164 
L 98.660484 66.758594 
L 98.125435 65.936615 
L 97.538822 65.150606 
L 96.903053 64.403796 
L 96.220743 63.699255 
L 95.494694 63.039877 
L 94.727891 62.428372 
L 93.923484 61.867252 
L 93.084779 61.358824 
L 92.215221 60.905176 
L 91.318385 60.508174 
L 90.397956 60.169447 
L 89.457715 59.890389 
L 88.501527 59.672145 
L 87.533321 59.515613 
L 86.557074 59.421435 
L 85.5768 59.39 
L 85.5768 59.39 
L 65.6868 59.39 
L 65.6868 74.69 
L 65.6868 89.99 
L 85.5768 89.99 
" style="fill:none;stroke:#000000;stroke-linecap:round;stroke-width:2;"/>
   </g>
   <g id="line2d_11">
    <path clip-path="url(#pfc94ad1796)" d="M 54.9768 82.34 
L 65.6868 82.34 
" style="fill:none;stroke:#000000;stroke-linecap:round;stroke-width:2;"/>
   </g>
   <g id="line2d_12">
    <path clip-path="url(#pfc94ad1796)" d="M 54.9768 67.04 
L 65.6868 67.04 
" style="fill:none;stroke:#000000;stroke-linecap:round;stroke-width:2;"/>
   </g>
   <g id="line2d_13">
    <path clip-path="url(#pfc94ad1796)" d="M 54.9768 74.69 
M 100.8768 74.69 
L 111.5868 74.69 
" style="fill:none;stroke:#000000;stroke-linecap:round;stroke-width:2;"/>
   </g>
   <g id="line2d_14">
    <path clip-path="url(#pfc94ad1796)" d="M 39.6768 36.44 
L 39.6768 59.39 
L 39.6768 82.34 
" style="fill:none;stroke:#000000;stroke-linecap:round;stroke-width:2;"/>
   </g>
   <g id="line2d_15">
    <path clip-path="url(#pfc94ad1796)" d="M 39.6768 82.34 
L 47.3268 82.34 
L 54.9768 82.34 
" style="fill:none;stroke:#000000;stroke-linecap:round;stroke-width:2;"/>
   </g>
   <g id="text_1">
    <!-- S -->
    <g transform="translate(120.7668 32.653125)scale(0.14 -0.14)">
     <defs>
      <path d="M 3425 4513 
L 3425 3897 
Q 3066 4069 2747 4153 
Q 2428 4238 2131 4238 
Q 1616 4238 1336 4038 
Q 1056 3838 1056 3469 
Q 1056 3159 1242 3001 
Q 1428 2844 1947 2747 
L 2328 2669 
Q 3034 2534 3370 2195 
Q 3706 1856 3706 1288 
Q 3706 609 3251 259 
Q 2797 -91 1919 -91 
Q 1588 -91 1214 -16 
Q 841 59 441 206 
L 441 856 
Q 825 641 1194 531 
Q 1563 422 1919 422 
Q 2459 422 2753 634 
Q 3047 847 3047 1241 
Q 3047 1584 2836 1778 
Q 2625 1972 2144 2069 
L 1759 2144 
Q 1053 2284 737 2584 
Q 422 2884 422 3419 
Q 422 4038 858 4394 
Q 1294 4750 2059 4750 
Q 2388 4750 2728 4690 
Q 3069 4631 3425 4513 
z
" id="DejaVuSans-53" transform="scale(0.015625)"/>
     </defs>
     <use xlink:href="#DejaVuSans-53"/>
    </g>
   </g>
   <g id="text_2">
    <!-- A -->
    <g transform="translate(11.739925 25.003125)scale(0.14 -0.14)">
     <defs>
      <path d="M 2188 4044 
L 1331 1722 
L 3047 1722 
L 2188 4044 
z
M 1831 4666 
L 2547 4666 
L 4325 0 
L 3669 0 
L 3244 1197 
L 1141 1197 
L 716 0 
L 50 0 
L 1831 4666 
z
" id="DejaVuSans-41" transform="scale(0.015625)"/>
     </defs>
     <use xlink:href="#DejaVuSans-41"/>
    </g>
   </g>
   <g id="text_3">
    <!-- B -->
    <g transform="translate(11.711488 40.303125)scale(0.14 -0.14)">
     <defs>
      <path d="M 1259 2228 
L 1259 519 
L 2272 519 
Q 2781 519 3026 730 
Q 3272 941 3272 1375 
Q 3272 1813 3026 2020 
Q 2781 2228 2272 2228 
L 1259 2228 
z
M 1259 4147 
L 1259 2741 
L 2194 2741 
Q 2656 2741 2882 2914 
Q 3109 3088 3109 3444 
Q 3109 3797 2882 3972 
Q 2656 4147 2194 4147 
L 1259 4147 
z
M 628 4666 
L 2241 4666 
Q 2963 4666 3353 4366 
Q 3744 4066 3744 3513 
Q 3744 3084 3544 2831 
Q 3344 2578 2956 2516 
Q 3422 2416 3680 2098 
Q 3938 1781 3938 1306 
Q 3938 681 3513 340 
Q 3088 0 2303 0 
L 628 0 
L 628 4666 
z
" id="DejaVuSans-42" transform="scale(0.015625)"/>
     </defs>
     <use xlink:href="#DejaVuSans-42"/>
    </g>
   </g>
   <g id="text_4">
    <!-- C -->
    <g transform="translate(114.6468 78.553125)scale(0.14 -0.14)">
     <defs>
      <path d="M 4122 4306 
L 4122 3641 
Q 3803 3938 3442 4084 
Q 3081 4231 2675 4231 
Q 1875 4231 1450 3742 
Q 1025 3253 1025 2328 
Q 1025 1406 1450 917 
Q 1875 428 2675 428 
Q 3081 428 3442 575 
Q 3803 722 4122 1019 
L 4122 359 
Q 3791 134 3420 21 
Q 3050 -91 2638 -91 
Q 1578 -91 968 557 
Q 359 1206 359 2328 
Q 359 3453 968 4101 
Q 1578 4750 2638 4750 
Q 3056 4750 3426 4639 
Q 3797 4528 4122 4306 
z
" id="DejaVuSans-43" transform="scale(0.015625)"/>
     </defs>
     <use xlink:href="#DejaVuSans-43"/>
    </g>
   </g>
   <g id="patch_2">
    <path clip-path="url(#pfc94ad1796)" d="M 54.9768 23.435 
C 55.585441 23.435 56.169236 23.193184 56.59961 22.76281 
C 57.029984 22.332436 57.2718 21.748641 57.2718 21.14 
C 57.2718 20.531359 57.029984 19.947564 56.59961 19.51719 
C 56.169236 19.086816 55.585441 18.845 54.9768 18.845 
C 54.368159 18.845 53.784364 19.086816 53.35399 19.51719 
C 52.923616 19.947564 52.6818 20.531359 52.6818 21.14 
C 52.6818 21.748641 52.923616 22.332436 53.35399 22.76281 
C 53.784364 23.193184 54.368159 23.435 54.9768 23.435 
z
" style="stroke:#000000;stroke-linejoin:miter;stroke-width:2;"/>
   </g>
   <g id="patch_3">
    <path clip-path="url(#pfc94ad1796)" d="M 39.6768 38.735 
C 40.285441 38.735 40.869236 38.493184 41.29961 38.06281 
C 41.729984 37.632436 41.9718 37.048641 41.9718 36.44 
C 41.9718 35.831359 41.729984 35.247564 41.29961 34.81719 
C 40.869236 34.386816 40.285441 34.145 39.6768 34.145 
C 39.068159 34.145 38.484364 34.386816 38.05399 34.81719 
C 37.623616 35.247564 37.3818 35.831359 37.3818 36.44 
C 37.3818 37.048641 37.623616 37.632436 38.05399 38.06281 
C 38.484364 38.493184 39.068159 38.735 39.6768 38.735 
z
" style="stroke:#000000;stroke-linejoin:miter;stroke-width:2;"/>
   </g>
  </g>
 </g>
 <defs>
  <clipPath id="pfc94ad1796">
   <rect height="85.85" width="130.7436" x="7.2" y="7.2"/>
  </clipPath>
 </defs>
</svg>