<?xml version="1.0" encoding="utf-8" standalone="no"?>
<!DOCTYPE svg PUBLIC "-//W3C//DTD SVG 1.1//EN"
  "http://www.w3.org/Graphics/SVG/1.1/DTD/svg11.dtd">
<svg height="54.52pt" version="1.1" viewBox="0 0 116.043 54.52" width="116.043pt" xmlns="http://www.w3.org/2000/svg" xmlns:xlink="http://www.w3.org/1999/xlink">
 <metadata>
  <rdf:RDF xmlns:cc="http://creativecommons.org/ns#" xmlns:dc="http://purl.org/dc/elements/1.1/" xmlns:rdf="http://www.w3.org/1999/02/22-rdf-syntax-ns#">
   <cc:Work>
    <dc:type rdf:resource="http://purl.org/dc/dcmitype/StillImage"/>
    <dc:date>2021-10-18T18:37:25.774161</dc:date>
    <dc:format>image/svg+xml</dc:format>
    <dc:creator>
     <cc:Agent>
      <dc:title>Matplotlib v3.4.2, https://matplotlib.org/</dc:title>
     </cc:Agent>
    </dc:creator>
   </cc:Work>
  </rdf:RDF>
 </metadata>
 <defs>
  <style type="text/css">*{stroke-linecap:butt;stroke-linejoin:round;}</style>
 </defs>
 <g id="figure_1">
  <g id="patch_1">
   <path d="M 0 54.52 
L 116.043 54.52 
L 116.043 -0 
L 0 -0 
z
" style="fill:none;"/>
  </g>
  <g id="axes_1">
   <g id="line2d_1">
    <path clip-path="url(#p4a1912883f)" d="M 43.104 43.784 
L 60.152571 43.684082 
L 61.901143 43.384327 
L 63.649714 42.884735 
L 65.398286 42.185306 
L 67.146857 41.286041 
L 69.332571 39.880939 
L 71.518286 38.163592 
L 73.704 36.134 
L 75.889714 33.792163 
L 78.075429 31.138082 
L 79.824 28.79 
L 79.824 28.79 
L 77.201143 25.342816 
L 75.015429 22.813633 
L 72.829714 20.596694 
L 70.644 18.692 
L 68.458286 17.099551 
L 66.272571 15.819347 
L 64.524 15.02 
L 62.775429 14.42049 
L 61.026857 14.020816 
L 59.278286 13.82098 
L 58.404 13.796 
L 43.104 13.796 
L 43.104 13.796 
L 45.3072 16.244 
L 46.70256 18.08 
L 47.8776 19.916 
L 48.83232 21.752 
L 49.56672 23.588 
L 50.0808 25.424 
L 50.37456 27.26 
L 50.448 29.096 
L 50.30112 30.932 
L 49.93392 32.768 
L 49.3464 34.604 
L 48.53856 36.44 
L 47.5104 38.276 
L 46.26192 40.112 
L 44.79312 41.948 
L 43.104 43.784 
L 43.104 43.784 
" style="fill:none;stroke:#000000;stroke-linecap:round;stroke-width:2;"/>
   </g>
   <g id="line2d_2">
    <path clip-path="url(#p4a1912883f)" d="M 38.514 43.784 
L 39.10152 43.172 
L 39.66456 42.56 
L 40.20312 41.948 
L 40.7172 41.336 
L 41.2068 40.724 
L 41.67192 40.112 
L 42.11256 39.5 
L 42.52872 38.888 
L 42.9204 38.276 
L 43.2876 37.664 
L 43.63032 37.052 
L 43.94856 36.44 
L 44.24232 35.828 
L 44.5116 35.216 
L 44.7564 34.604 
L 44.97672 33.992 
L 45.17256 33.38 
L 45.34392 32.768 
L 45.4908 32.156 
L 45.6132 31.544 
L 45.71112 30.932 
L 45.78456 30.32 
L 45.83352 29.708 
L 45.858 29.096 
L 45.858 28.484 
L 45.83352 27.872 
L 45.78456 27.26 
L 45.71112 26.648 
L 45.6132 26.036 
L 45.4908 25.424 
L 45.34392 24.812 
L 45.17256 24.2 
L 44.97672 23.588 
L 44.7564 22.976 
L 44.5116 22.364 
L 44.24232 21.752 
L 43.94856 21.14 
L 43.63032 20.528 
L 43.2876 19.916 
L 42.9204 19.304 
L 42.52872 18.692 
L 42.11256 18.08 
L 41.67192 17.468 
L 41.2068 16.856 
L 40.7172 16.244 
L 40.20312 15.632 
L 39.66456 15.02 
L 39.10152 14.408 
L 38.514 13.796 
" style="fill:none;stroke:#000000;stroke-linecap:round;stroke-width:2;"/>
   </g>
   <g id="line2d_3">
    <path clip-path="url(#p4a1912883f)" d="M 27.804 36.44 
L 43.94856 36.44 
" style="fill:none;stroke:#000000;stroke-linecap:round;stroke-width:2;"/>
   </g>
   <g id="line2d_4">
    <path clip-path="url(#p4a1912883f)" d="M 27.804 21.14 
L 43.94856 21.14 
" style="fill:none;stroke:#000000;stroke-linecap:round;stroke-width:2;"/>
   </g>
   <g id="line2d_5">
    <path clip-path="url(#p4a1912883f)" d="M 27.804 28.79 
M 79.824 28.79 
L 90.534 28.79 
" style="fill:none;stroke:#000000;stroke-linecap:round;stroke-width:2;"/>
   </g>
   <g id="text_1">
    <!-- $y$ -->
    <g transform="translate(93.594 32.624688)scale(0.14 -0.14)">
     <defs>
      <path d="M 1588 -325 
Q 1188 -997 936 -1164 
Q 684 -1331 294 -1331 
L -159 -1331 
L -63 -850 
L 269 -850 
Q 509 -850 678 -719 
Q 847 -588 1056 -206 
L 1234 128 
L 459 3500 
L 1069 3500 
L 1650 819 
L 3256 3500 
L 3859 3500 
L 1588 -325 
z
" id="DejaVuSans-Oblique-79" transform="scale(0.015625)"/>
     </defs>
     <use transform="translate(0 0.3125)" xlink:href="#DejaVuSans-Oblique-79"/>
    </g>
   </g>
   <g id="text_2">
    <!-- $x_1$ -->
    <g transform="translate(9.764 25.003125)scale(0.14 -0.14)">
     <defs>
      <path d="M 3841 3500 
L 2234 1784 
L 3219 0 
L 2559 0 
L 1819 1388 
L 531 0 
L -166 0 
L 1556 1844 
L 641 3500 
L 1300 3500 
L 1972 2234 
L 3144 3500 
L 3841 3500 
z
" id="DejaVuSans-Oblique-78" transform="scale(0.015625)"/>
      <path d="M 794 531 
L 1825 531 
L 1825 4091 
L 703 3866 
L 703 4441 
L 1819 4666 
L 2450 4666 
L 2450 531 
L 3481 531 
L 3481 0 
L 794 0 
L 794 531 
z
" id="DejaVuSans-31" transform="scale(0.015625)"/>
     </defs>
     <use transform="translate(0 0.3125)" xlink:href="#DejaVuSans-Oblique-78"/>
     <use transform="translate(59.179688 -16.09375)scale(0.7)" xlink:href="#DejaVuSans-31"/>
    </g>
   </g>
   <g id="text_3">
    <!-- $x_2$ -->
    <g transform="translate(9.764 40.303125)scale(0.14 -0.14)">
     <defs>
      <path d="M 1228 531 
L 3431 531 
L 3431 0 
L 469 0 
L 469 531 
Q 828 903 1448 1529 
Q 2069 2156 2228 2338 
Q 2531 2678 2651 2914 
Q 2772 3150 2772 3378 
Q 2772 3750 2511 3984 
Q 2250 4219 1831 4219 
Q 1534 4219 1204 4116 
Q 875 4013 500 3803 
L 500 4441 
Q 881 4594 1212 4672 
Q 1544 4750 1819 4750 
Q 2544 4750 2975 4387 
Q 3406 4025 3406 3419 
Q 3406 3131 3298 2873 
Q 3191 2616 2906 2266 
Q 2828 2175 2409 1742 
Q 1991 1309 1228 531 
z
" id="DejaVuSans-32" transform="scale(0.015625)"/>
     </defs>
     <use transform="translate(0 0.3125)" xlink:href="#DejaVuSans-Oblique-78"/>
     <use transform="translate(59.179688 -16.09375)scale(0.7)" xlink:href="#DejaVuSans-32"/>
    </g>
   </g>
  </g>
 </g>
 <defs>
  <clipPath id="p4a1912883f">
   <rect height="40.12" width="101.643" x="7.2" y="7.2"/>
  </clipPath>
 </defs>
</svg>