<?xml version="1.0" encoding="utf-8"?>
<!-- Generator: Adobe Illustrator 25.4.1, SVG Export Plug-In . SVG Version: 6.00 Build 0)  -->
<svg version="1.1" id="レイヤー_1" xmlns="http://www.w3.org/2000/svg" xmlns:xlink="http://www.w3.org/1999/xlink" x="0px"
	 y="0px" viewBox="0 0 819 252" style="enable-background:new 0 0 819 252;" xml:space="preserve">
<style type="text/css">
	.st0{fill:#C6C7C7;stroke:#000000;stroke-miterlimit:10;}
	.st1{font-family:'SegoeUI-Semilight';}
	.st2{font-size:14px;}
	.st3{fill:#EC73A8;stroke:#000000;stroke-miterlimit:10;}
	.st4{fill:#BDC4CA;stroke:#000000;stroke-miterlimit:10;}
	.st5{fill:#ADBFCA;stroke:#000000;stroke-miterlimit:10;}
	.st6{fill:#98B6C7;stroke:#000000;stroke-miterlimit:10;}
	.st7{fill:#79AAC2;stroke:#000000;stroke-miterlimit:10;}
	.st8{fill:#5F9BB9;stroke:#000000;stroke-miterlimit:10;}
	.st9{fill:#4893B7;stroke:#000000;stroke-miterlimit:10;}
	.st10{fill:#318AB6;stroke:#000000;stroke-miterlimit:10;}
	.st11{fill:#2584B4;stroke:#000000;stroke-miterlimit:10;}
	.st12{fill:#1277AB;stroke:#000000;stroke-miterlimit:10;}
	.st13{fill:#AAABAB;stroke:#000000;stroke-miterlimit:10;}
	.st14{fill:#6C98B9;stroke:#000000;stroke-miterlimit:10;}
	.st15{font-family:'Meiryo';}
	.st16{fill:none;stroke:#000000;stroke-miterlimit:10;}
	.st17{letter-spacing:3;}
</style>
<rect x="108" y="135" class="st0" width="54" height="27"/>
<text transform="matrix(1 0 0 1 127.1318 153)" class="st1 st2">#3</text>
<rect x="162" y="135" class="st3" width="18" height="27"/>
<text transform="matrix(1 0 0 1 166.3276 153)" class="st1 st2">U</text>
<rect x="180" y="135" class="st4" width="54" height="27"/>
<text transform="matrix(1 0 0 1 199.2856 153)" class="st1 st2">#7</text>
<rect x="234" y="135" class="st3" width="18" height="27"/>
<text transform="matrix(1 0 0 1 238.3276 153)" class="st1 st2">U</text>
<rect x="252" y="135" class="st5" width="54" height="27"/>
<text transform="matrix(1 0 0 1 270.978 153)" class="st1 st2">#4</text>
<rect x="306" y="135" class="st3" width="18" height="27"/>
<text transform="matrix(1 0 0 1 310.3276 153)" class="st1 st2">U</text>
<rect x="324" y="135" class="st6" width="54" height="27"/>
<text transform="matrix(1 0 0 1 343.1318 153)" class="st1 st2">#6</text>
<rect x="378" y="135" class="st3" width="18" height="27"/>
<text transform="matrix(1 0 0 1 382.3276 153)" class="st1 st2">U</text>
<rect x="396" y="135" class="st7" width="54" height="27"/>
<text transform="matrix(1 0 0 1 415.1318 153)" class="st1 st2">#5</text>
<rect x="450" y="135" class="st3" width="18" height="27"/>
<text transform="matrix(1 0 0 1 454.3276 153)" class="st1 st2">U</text>
<rect x="468" y="135" class="st8" width="54" height="27"/>
<text transform="matrix(1 0 0 1 487.1318 153)" class="st1 st2">#2</text>
<rect x="522" y="135" class="st3" width="18" height="27"/>
<text transform="matrix(1 0 0 1 526.3276 153)" class="st1 st2">U</text>
<rect x="540" y="135" class="st9" width="54" height="27"/>
<text transform="matrix(1 0 0 1 560.1948 153)" class="st1 st2">#1</text>
<rect x="594" y="135" class="st3" width="18" height="27"/>
<text transform="matrix(1 0 0 1 598.3276 153)" class="st1 st2">U</text>
<rect x="612" y="135" class="st10" width="54" height="27"/>
<text transform="matrix(1 0 0 1 631.1318 153)" class="st1 st2">#8</text>
<rect x="666" y="135" class="st3" width="18" height="27"/>
<text transform="matrix(1 0 0 1 670.3276 153)" class="st1 st2">U</text>
<rect x="684" y="135" class="st11" width="54" height="27"/>
<text transform="matrix(1 0 0 1 703.2856 153)" class="st1 st2">#7</text>
<rect x="738" y="135" class="st3" width="18" height="27"/>
<text transform="matrix(1 0 0 1 742.3276 153)" class="st1 st2">U</text>
<rect x="756" y="135" class="st12" width="54" height="27"/>
<text transform="matrix(1 0 0 1 774.978 153)" class="st1 st2">#4</text>
<rect x="108" y="63" class="st13" width="54" height="27"/>
<text transform="matrix(1 0 0 1 128.1948 81)" class="st1 st2">#1</text>
<rect x="324" y="63" class="st13" width="54" height="27"/>
<text transform="matrix(1 0 0 1 343.1318 81)" class="st1 st2">#5</text>
<rect x="540" y="63" class="st3" width="18" height="27"/>
<text transform="matrix(1 0 0 1 544.3276 81)" class="st1 st2">U</text>
<rect x="162" y="63" class="st13" width="54" height="27"/>
<text transform="matrix(1 0 0 1 181.1318 81)" class="st1 st2">#2</text>
<rect x="216" y="63" class="st13" width="54" height="27"/>
<text transform="matrix(1 0 0 1 235.1318 81)" class="st1 st2">#3</text>
<rect x="270" y="63" class="st13" width="54" height="27"/>
<text transform="matrix(1 0 0 1 288.978 81)" class="st1 st2">#4</text>
<rect x="378" y="63" class="st13" width="54" height="27"/>
<text transform="matrix(1 0 0 1 397.1318 81)" class="st1 st2">#6</text>
<rect x="432" y="63" class="st13" width="54" height="27"/>
<text transform="matrix(1 0 0 1 451.2856 81)" class="st1 st2">#7</text>
<rect x="486" y="63" class="st13" width="54" height="27"/>
<text transform="matrix(1 0 0 1 505.1318 81)" class="st1 st2">#8</text>
<rect x="558" y="63" class="st14" width="54" height="27"/>
<text transform="matrix(1 0 0 1 578.1948 81)" class="st1 st2">#1</text>
<rect x="612" y="63" class="st14" width="54" height="27"/>
<text transform="matrix(1 0 0 1 631.1318 81)" class="st1 st2">#2</text>
<rect x="666" y="63" class="st14" width="54" height="27"/>
<text transform="matrix(1 0 0 1 685.1318 81)" class="st1 st2">#3</text>
<rect x="720" y="63" class="st14" width="54" height="27"/>
<text transform="matrix(1 0 0 1 738.978 81)" class="st1 st2">#4</text>
<text transform="matrix(1 0 0 1 10 81)" class="st15 st2">最急降下法</text>
<text transform="matrix(1 0 0 1 9.0001 143.9999)"><tspan x="0" y="0" class="st15 st2">確率的勾配</tspan><tspan x="0" y="18" class="st15 st2">降下法</tspan></text>
<text transform="matrix(1 0 0 1 191.0001 45.0002)" class="st15 st2">よくないパラメータで勾配を計算し続ける</text>
<text transform="matrix(1 0 0 1 183.9999 188.9999)" class="st15 st2">パラメータで改善しながら勾配を計算できる</text>
<line class="st16" x1="108" y1="225" x2="108" y2="27"/>
<g>
	<g>
		<line class="st16" x1="90" y1="207" x2="803.96" y2="207"/>
		<g>
			<path d="M810,207c-2.84,1.05-6.36,2.85-8.55,4.76l1.72-4.76l-1.72-4.75C803.64,204.15,807.16,205.95,810,207z"/>
		</g>
	</g>
</g>
<text transform="matrix(1 0 0 1 755 234)" class="st15 st2">学習時間</text>
<text transform="matrix(1 0 0 1 333.2446 234)"><tspan x="0" y="0" class="st15 st2">(</tspan><tspan x="6.15" y="0" class="st15 st2 st17">U</tspan><tspan x="19.86" y="0" class="st15 st2">はパラメータの更新を表</tspan><tspan x="173.86" y="0" class="st15 st2 st17">す</tspan><tspan x="191.36" y="0" class="st15 st2">)</tspan></text>
<polyline class="st14" points="810,90 774,90 774,63 810,63 "/>
<text transform="matrix(1 0 0 1 793.1318 81)" class="st1 st2">#5</text>
</svg>
