<?xml version="1.0" encoding="utf-8"?>
<!-- Generator: Adobe Illustrator 25.4.1, SVG Export Plug-In . SVG Version: 6.00 Build 0)  -->
<svg version="1.1" id="_x38_" xmlns="http://www.w3.org/2000/svg" xmlns:xlink="http://www.w3.org/1999/xlink" x="0px" y="0px"
	 viewBox="0 0 512 403" style="enable-background:new 0 0 512 403;" xml:space="preserve">
<style type="text/css">
	.st0{fill:#A38A77;}
	.st1{fill:#CECECE;}
	.st2{fill:#65D69D;}
	.st3{fill:#717071;}
	.st4{fill:#EAEAEA;}
	.st5{fill:#B0D9ED;}
	.st6{fill:#FFFFFF;}
	.st7{fill:#231815;}
	.st8{fill:#FFFFE3;}
	.st9{fill:#EABD7D;}
	.st10{fill:#CC9F5F;}
	.st11{fill:#FFFFD9;}
</style>
<g>
	<path class="st0" d="M455.2,198c6.7,0.8,58.5,17.2,56.8,20.5c-1.7,3.4-19.5,17.1-19.5,17.1l-96.3,84.5c0,0-215.2-81.8-249.5-93.6
		s-28.5-10.9-26-10.9s120.7-83.3,120.7-83.3L455.2,198z"/>
	<path class="st1" d="M311.2,272.2c4.9,8.7,13.1,12,21.8,12c8.7,0,27.8-19.1,30.6-27.8c2.7-8.7,3.8-13.1-7.1-14.2
		S311.2,272.2,311.2,272.2z"/>
	<path class="st2" d="M64.1,280c-4.4-6.1-22.7-38.3-19.2-50.5s17.4-31.4,17.4-31.4S79.7,150.2,112,138c6.1-12.2,13.1-21.8,20-23.5
		c7-1.7,13.3,2.7,13.1,11.3c-0.3,8.6-0.3,8.6-0.3,8.6l31.5,7c0,0,6.5-15.5,16.8-14.7c10.3,0.8,13.8,11.3,12.9,18.2
		c-0.9,7,0.9,9.6,10.5,8.7c9.6-0.9,26.1-1.7,31.4-0.9c5.2,0.9-6.1,24.4-15.7,33.1c-9.6,8.7-14.8,9.6-20.9,25.3
		c-6.1,15.7-9.6,36.6,3.5,47.9c13.1,11.3,28.7,13.1,43.6,20c25.3-9.6,42.7-20.9,46.2-26.1c3.5-5.2,5.2-20.9,23.5-19.2
		c16.6-7,19.2,3.5,19.2,3.5c7-2.6,17.4,5.2,9.6,7c-7.8,1.7-18.3,7-25.3,16.6s-14.8,15.7-14.8,15.7s-22.6,29.6-36.6,33.1
		c-13.9,3.5-19.2,7.8-34.8,7.8c-15.7,0-20.9-0.9-20.9-0.9s-0.9,41.8-7.8,49.7c-7,7.8-12.2,28.7-51.4,21.8
		C125.9,381.1,64.1,280,64.1,280z"/>
	<path class="st3" d="M4.4,369c-1.2,14.5-1.2,25.3-1.2,25.3h230.5l42.2-29c6-10.9,9.7-29-3.6-29c-13.3,0-21.7,1.2-30.2,9.7
		c-8.4,8.4-39.8,37.4-59.1,36.2c-19.3-1.2-29-22.9-27.8-32.6c1.2-9.7-3.6-53.1-7.2-67.6c-3.6-14.5-36.2-29-44.7-32.6
		c-8.4-3.6-54.3-25.3-70-22.9C17.7,229,9.2,242.3,4.4,258C-0.4,273.7,4.4,369,4.4,369z"/>
	<path class="st4" d="M451.4,65.1L264.2,10.6c0,0-10.2,3.3-10.8,5.3c-0.7,2-2,127.9-2,127.9l1.3,2.6c33.4,17,194.1,56.4,194.1,56.4
		l5.2-6.6L451.4,65.1z"/>
	<path class="st1" d="M253.4,15.9c0,0,189.5,55.4,191.5,56l-2,128.8c0,0-110-22.9-190.1-54.4c-1.2-1.1-0.3-39.2-0.3-39.2L253.4,15.9
		z"/>
	<path class="st5" d="M264,129l3.3-95.1c0,0,159.8,46.2,162.4,46.2c2.6,0-1.3,96.4-1.3,96.4L264,129z"/>
	<path class="st1" d="M274.1,166.9c4.3,1.5,32.4,12.8,62.2,21.8c33.8,10.3,69.5,18.5,70.9,19.6c2.7,2.2-2.2,5.5-5.5,7.6
		c-3.3,2.2-16.9,22.4-21.3,21.8c-4.4-0.5-113.5-34.4-126.6-38.7c-13.1-4.4-16.4-4.4-12.6-8.2c3.8-3.8,24-19.6,24-19.6L274.1,166.9z"
		/>
	<polygon class="st6" points="270,178.7 274.8,174 280.2,176.2 276.2,181.3 	"/>
	<polygon class="st6" points="279.3,182.3 284,177.6 289.5,179.8 285.5,184.8 	"/>
	<polygon class="st6" points="288.6,185.9 293.3,181.1 298.8,183.3 294.8,188.4 	"/>
	<polygon class="st6" points="297.9,189.4 302.6,184.7 308,186.9 304,192 	"/>
	<polygon class="st6" points="307.1,193 311.9,188.3 317.3,190.5 313.3,195.6 	"/>
	<polygon class="st6" points="316.4,196.6 321.1,191.8 326.6,194 322.6,199.1 	"/>
	<polygon class="st6" points="326.9,200 331.5,195.1 337,197.2 333.2,202.4 	"/>
	<polygon class="st6" points="336.8,203.5 341.2,198.4 346.8,200.2 343.2,205.6 	"/>
	<polygon class="st6" points="381.6,215 385.7,209.8 391.4,211.2 388,216.8 	"/>
	<polygon class="st6" points="370.3,212.4 374.4,207.1 380.1,208.6 376.7,214.1 	"/>
	<polygon class="st6" points="359,209.7 363.1,204.4 368.8,205.9 365.4,211.4 	"/>
	<polygon class="st6" points="347.7,207 351.8,201.7 357.5,203.2 354.1,208.8 	"/>
	<polygon class="st6" points="262.2,186.6 266.9,181.9 272.3,184.1 268.3,189.2 	"/>
	<polygon class="st6" points="271.4,190.2 276.2,185.5 281.6,187.6 277.6,192.7 	"/>
	<polygon class="st6" points="280.7,193.8 285.4,189 290.9,191.2 286.9,196.3 	"/>
	<polygon class="st6" points="290,197.3 294.7,192.6 300.2,194.8 296.2,199.9 	"/>
	<polygon class="st6" points="299.2,200.9 304,196.2 309.4,198.3 305.4,203.4 	"/>
	<polygon class="st6" points="308.5,204.5 313.3,199.7 318.7,201.9 314.7,207 	"/>
	<polygon class="st6" points="319,207.9 323.6,203 329.1,205 325.3,210.2 	"/>
	<polygon class="st6" points="328.9,211.3 333.3,206.3 338.9,208.1 335.3,213.5 	"/>
	<polygon class="st6" points="373.7,222.9 377.8,217.6 383.5,219.1 380.2,224.7 	"/>
	<polygon class="st6" points="362.4,220.2 366.5,215 372.2,216.4 368.9,222 	"/>
	<polygon class="st6" points="351.1,217.6 355.2,212.3 360.9,213.8 357.6,219.3 	"/>
	<polygon class="st6" points="339.8,214.9 343.9,209.6 349.6,211.1 346.3,216.6 	"/>
	<path class="st7" d="M121.1,127c-2.2,3.7-3.7,6.4-4.9,8.2c-1.3,1.8-2.3,2.8-3.1,3c-0.8,0.2-1.5-0.3-1.7-1.4c-0.2-1.1,0.1-2.7,1-4.4
		c1.9-3.5,3.8-6.9,5.9-10.1c2.1-3.1,4.5-6.1,7.5-7.9c1.5-0.9,3.2-1.7,5.1-2.1c1.9-0.4,4-0.4,5.9,0.2c1.9,0.6,3.6,1.7,5,3
		c1.3,1.3,2.3,2.8,3.1,4.4c0.7,1.6,1.2,3.7,1.3,5.7c0.1,2-0.1,3.9-0.3,5.4c-0.5,2.9-1.2,4-1.8,0.4c-0.6-3.7-1.6-6-2.9-8.1
		c-0.7-1-1.4-1.9-2.4-2.8c-1-0.9-2.1-1.7-3.5-2.1c-1.4-0.4-3.1-0.3-4.8,0.5c-1.7,0.7-3.4,2-4.8,3.2c-1.4,1.2-2.5,2.5-3.3,3.4
		C121.5,126.4,121.1,127,121.1,127z"/>
	<path class="st7" d="M149.6,136.9c-5.3-0.4-7.5-2.1-7.8-3.7c-0.3-1.5,1.3-2.9,3.4-2.2c4.3,1.4,9,1.1,12.5,1.9
		c3.5,0.8,7,1.7,10.4,3.3c3.3,1.6,9.4,6.1,4.9,5.4c-4.4-0.7-6.5,0-11.6-1.4c-2.6-0.7-5.5-1.5-7.9-2.2
		C151.3,137.4,149.6,136.9,149.6,136.9z"/>
	<path class="st7" d="M183.1,136.6c-2.7,3.6-4.5,6.2-6,8c-1.5,1.8-2.6,2.7-3.5,2.9c-0.9,0.2-1.4-0.4-1.5-1.6
		c-0.1-1.1,0.3-2.8,1.5-4.5c2.3-3.5,4.7-6.8,7.2-9.8c1.3-1.5,2.6-2.9,4.2-4.2c1.6-1.2,3.4-2.3,5.4-2.8c2-0.5,4.3-0.5,6.2,0.1
		c2,0.6,3.8,1.6,5.2,2.9c1.4,1.3,2.6,2.8,3.5,4.5c0.9,1.7,1.4,3.5,1.7,5.2c0.3,1.8,0.3,3.9,0,6c-0.3,2-0.8,4-1.3,5.4
		c-1,2.9-1.9,4-1.9,0.1c0-3.9-0.5-6.6-1.3-9.1c-0.4-1.2-0.9-2.5-1.6-3.7c-0.7-1.2-1.7-2.5-3-3.7c-1.4-1.2-3.1-2-4.7-2
		c-1.7-0.1-3.5,0.7-5,1.7c-1.6,1-2.9,2.2-3.8,3.1C183.6,136.1,183.1,136.6,183.1,136.6z"/>
	<path class="st7" d="M219,197.4c5.1-3.5,10.2-7.6,14.9-12.1c4.6-4.5,8.9-9.4,12.2-14.5c1.7-2.5,3.1-5,4.4-7.6
		c0.6-1.4,1-2.8,1.3-4.3c0.2-1.5,0.2-3-0.3-4.7c-0.5-1.6-1.8-3.2-3.3-3.9c-1.5-0.8-3-0.9-4-0.9c-1,0-1.9,0-2.7,0c-0.8,0-1.5,0-2.2,0
		c-10.4-0.3-25.9,1.1-24.6,5.2c1.1,3.4,16.8,2.3,23.9,0.8c0.9-0.2,2.4-0.4,4.3-0.7c1-0.1,1.9-0.3,2.6-0.2c0.3,0,0.6,0.1,0.9,0.2
		c0.3,0.1,0.5,0.3,0.7,0.6c0.4,0.6,0.6,1.7,0.5,2.9c-0.1,1.2-0.4,2.6-1,3.9c-1.2,2.8-2.8,5.8-4.7,8.6c-3.7,5.7-8.6,11.1-13.4,15.5
		c-4.8,4.4-9.6,7.9-13.2,10.1c-7.2,4.4-15.6,8.5-23.8,10.8c-4.1,1.2-8.2,1.8-12,2.1c-3.8,0.2-7.2-0.1-10.1-0.7
		c-0.7-0.2-1.4-0.3-2.1-0.4c-0.7-0.1-1.3-0.3-1.9-0.4c-1.3-0.2-2.3-0.5-3.4-0.6c-2-0.3-3.4-0.5-4.1,0c-0.6,0.4-0.4,1.3,1.4,2.7
		c1.7,1.3,5.1,3.1,10.4,3.6c5.3,0.5,9.7,0.1,13.7-0.6c4-0.7,7.6-1.7,11.2-2.9c3.6-1.2,7.2-2.6,11.2-4.6
		C209.8,203.1,214.1,200.7,219,197.4z"/>
	<path class="st7" d="M154.5,198.6c-1.4,0.6-2.8,1.6-3.9,2.8c-1.1,1.2-2,2.8-2.2,4.5c-0.3,1.7,0.2,3.3,0.7,4.5
		c0.6,1.2,1.3,2,1.8,2.7c0.9,1.2,2.9,2.3,4.7,2c0.4-0.1,0.8-0.2,1.1-0.4c0.3-0.2,0.6-0.4,0.7-0.6c0.3-0.5,0.3-1,0-1.7
		c-0.2-0.5-0.6-0.9-0.9-1.1c-0.3-0.3-0.6-0.4-0.9-0.6c-0.6-0.3-1.4-0.5-2.1-0.6c-0.3,0-1.1-0.3-1.7-1.1c-0.3-0.4-0.6-0.8-0.8-1.4
		c-0.2-0.6-0.3-1.2-0.2-1.9c0.1-1.4,1-2.8,2-3.7c1-1,2.2-1.6,3.1-1.8c1.8-0.5,3.8-0.6,5.7-0.3c1.9,0.3,3.5,1,4.7,1.6
		c1.2,0.6,2.5,0.3,3.1-0.3c0.5-0.6,0.3-1.8-2.1-2.5c-2.4-0.6-4.1-0.9-5.9-1c-0.9-0.1-1.9-0.1-3,0C157.1,197.8,155.8,198,154.5,198.6
		z"/>
	<path class="st7" d="M91.2,147.5c4.2-4.4,7.9-6.9,10.7-8.3c2.8-1.4,4.6-1.7,5.5-1.4c0.9,0.3,0.9,1.2,0.3,2.3
		c-0.7,1.1-2.1,2.4-4.1,3.7c-4.1,2.6-7.7,5.9-10.7,9.3c-1.6,1.6-2.9,3.4-4.3,5.1c-1.3,1.7-2.6,3.3-3.7,4.8
		c-4.7,6.1-8.7,12.6-12.4,19.3c-2,3.3-4.6,8.5-6.4,11.8c-1.7,3.3-2.9,4.6-1.8-0.3c0.2-1.2,0.5-2.4,0.8-3.4c0.3-1.1,0.5-2.1,0.7-3
		c0.6-1.9,0.9-3.7,1.6-5.5c0.6-1.8,1.2-3.7,2.2-5.7c0.9-2.1,2.1-4.3,3.6-7c3.1-5.2,7.5-10.9,11.3-14.9c1.9-2,3.6-3.7,4.9-4.8
		C90.4,148.2,91.2,147.5,91.2,147.5z"/>
	<path class="st7" d="M49.4,222.3c-1.7,5.8-3.5,8.2-5.1,8.5c-1.6,0.3-2.7-1.7-1.6-4.2c2.1-5,3.2-10.4,5.4-14.3
		c2.2-3.8,4.7-7.5,8-10.4c1.7-1.5,4.5-3.2,6.5-4c2-0.7,3.1-0.6,1.3,1.3c-1.7,1.9-2.6,3.5-3.6,5.2c-1,1.7-2,3.4-3.7,5.8
		c-1.7,2.4-3.6,5.4-5,7.8c-0.7,1.2-1.2,2.3-1.6,3C49.6,221.8,49.4,222.3,49.4,222.3z"/>
	<path class="st7" d="M216.1,202c3.8-5.2,7.2-8.4,9.8-10.4c2.6-2,4.3-2.7,5.2-2.7c1.9,0.1,0.6,3.3-3.2,6.7
		c-3.8,3.5-7.1,7.4-9.8,11.4c-1.3,2-2.5,4-3.5,6c-1,2-1.9,3.9-2.7,5.7c-1.6,3.6-2.6,7.4-3.2,11.2c-0.6,3.9-0.6,7.8-0.1,11.7
		c0.3,1.9,0.7,4.4,1.4,6.7c0.7,2.3,1.7,4.6,2.7,6.3c0.4,0.9,0.9,1.6,1.2,2.1c0.3,0.6,0.5,1,0.5,1.2c0,0.2-0.2,0.2-0.7-0.1
		c-0.2-0.2-0.5-0.4-0.9-0.7c-0.4-0.3-0.8-0.7-1.2-1.2c-1.9-2-3.2-3.9-4.3-5.8c-0.5-1-1.1-1.9-1.5-2.8l-0.6-1.4
		c-0.2-0.5-0.4-1-0.5-1.5c-1.4-3.9-2.3-8.5-1.6-15.2c0.4-3.3,1.3-6.9,2.6-10.2c1.3-3.3,2.9-6.3,4.5-8.9c1.6-2.5,3.1-4.6,4.2-6
		C215.4,202.8,216.1,202,216.1,202z"/>
	<path class="st7" d="M204.9,258.8c-9.8-4.4-13.4-8.2-13.6-10c-0.2-1.8,2.8-1.8,6.5,0.6c7.4,4.8,15.9,7.7,22.3,10.7
		c6.4,3,12.8,5.8,19.2,9c6.3,3.3,18.9,10.3,10.3,7.9c-4.3-1.2-7.4-1.9-10.6-2.8c-3.3-0.9-6.7-1.9-11.6-4.1
		c-4.9-2.1-10.6-4.9-14.9-7.2C208,260.5,204.9,258.8,204.9,258.8z"/>
	<path class="st7" d="M272.2,278c-4.3,2.1-7.5,3.2-9.9,3.7c-2.3,0.5-3.8,0.5-4.6,0c-0.8-0.5-0.8-1.3-0.1-2.2c0.7-0.9,2-1.9,3.9-2.5
		c3.8-1.3,7.4-2.8,10.7-4.5c3.3-1.6,6.3-3.4,8.9-4.9c5.3-2.9,10.2-6.4,14.9-10.3c2.3-1.9,6-4.9,8.3-6.8c2.4-1.9,3.7-2.5,1.6,0.9
		c-0.5,0.8-1,1.7-1.5,2.4c-0.5,0.7-0.9,1.4-1.4,2.1c-0.8,1.4-1.7,2.6-2.6,3.8c-0.9,1.3-1.9,2.5-3.2,3.8c-0.3,0.3-0.6,0.7-1,1
		c-0.4,0.3-0.7,0.7-1.1,1c-0.8,0.7-1.6,1.5-2.7,2.2c-4,3-9.1,5.7-13.2,7.4c-2,0.9-3.8,1.6-5.1,2C273,277.7,272.2,278,272.2,278z"/>
	<path class="st7" d="M199.5,313.4c-6.1-2.1-10.2-4.6-12.8-6.5c-2.6-2-3.7-3.6-3.8-4.6c-0.2-1,0.7-1.3,2-1.1
		c1.4,0.2,3.2,1.1,5.4,2.4c2.1,1.4,4.4,2.5,6.7,3.6c2.3,1,4.7,1.9,7,2.5c2.3,0.8,4.6,1.2,6.8,1.8c2.2,0.4,4.3,1,6.3,1.3
		c7.9,1.7,16,2.4,24.2,2.6c1,0,2.2,0.1,3.4,0.1c1.2,0,2.5,0,3.8,0.1c1.3,0,2.5,0,3.8,0c1.2,0,2.3,0,3.3,0c4,0,5.8,0.4,0.6,1.8
		c-1.3,0.4-2.5,0.6-3.6,0.9c-1.1,0.3-2.2,0.5-3.2,0.8c-2.1,0.4-4,0.9-6,1.2c-2,0.3-4.1,0.6-6.5,0.7c-2.4,0.2-5.1,0.1-8.3-0.1
		c-6.5-0.5-13.9-2.1-19.5-3.8c-2.8-0.9-5.2-1.7-6.9-2.5C200.5,313.8,199.5,313.4,199.5,313.4z"/>
	<path class="st7" d="M281.7,310.3c-5.2,3-9.5,4.3-12.5,4.9c-3,0.5-4.8,0.2-5.6-0.3c-0.8-0.5-0.6-1.4,0.4-2.2c1-0.9,2.7-1.6,5-2.3
		c2.3-0.6,4.5-1.5,6.6-2.5c2.1-1,4.1-2.1,6-3.3c1.9-1.1,3.7-2.5,5.4-3.6c1.6-1.3,3.3-2.4,4.8-3.6c6-4.5,11.4-9.8,16.6-15.3
		c2.7-2.7,6.4-7.1,8.9-9.9c2.4-2.8,3.8-3.8,1.7,0.7c-0.5,1.1-1,2.1-1.5,3.1c-0.5,1-0.9,1.9-1.4,2.8c-1,1.7-1.8,3.4-2.8,4.9
		c-1,1.6-2,3.3-3.4,5c-1.3,1.8-3,3.7-5.2,5.8c-4.3,4.3-9.9,8.5-14.7,11.4c-2.4,1.4-4.4,2.6-6,3.3
		C282.6,309.8,281.7,310.3,281.7,310.3z"/>
	<path class="st7" d="M308,247.7c-0.9,2.6-1.5,4.4-2.1,5.7c-0.6,1.3-1.2,2-1.8,2.3c-0.6,0.3-1.2,0-1.5-0.6c-0.3-0.7-0.5-1.8-0.1-3
		c0.8-2.5,1.6-5,2.6-7.3c0.5-1.2,1.1-2.2,1.7-3.2c0.7-1,1.2-1.9,2-2.7c2.8-3.1,6.3-5.8,10.3-7.1c0.5-0.2,1.1-0.3,1.7-0.5
		c0.6-0.1,1.3-0.2,1.9-0.3c0.6-0.1,1.3-0.1,1.9-0.1c0.6,0,1.2,0,1.6,0.1c1.9,0.3,2.6,0.8,0.3,1.4c-0.6,0.1-1.1,0.3-1.6,0.5
		c-0.5,0.2-0.9,0.4-1.3,0.6c-0.8,0.5-1.6,0.8-2.3,1.3c-1.5,0.9-2.9,2-5.1,3.5c-2.2,1.6-4.4,3.8-6,5.8c-0.7,1-1.4,1.9-1.7,2.5
		C308.3,247.4,308,247.7,308,247.7z"/>
	<path class="st7" d="M326.5,240.6c-1.2,1.6-2.1,2.7-2.9,3.4c-0.8,0.7-1.6,1-2.2,0.9c-0.6,0-1.1-0.4-1.2-1c-0.1-0.6,0-1.4,0.6-2.2
		c1.2-1.5,2.4-3.1,3.6-4.5c1.2-1.4,2.5-2.7,3.8-3.6c2.7-1.7,5.7-3,8.9-3.1c1.6-0.1,4,0.3,5.3,0.9c1.4,0.7,1.8,1.3,0.1,1.4
		c-1.7,0.2-2.9,0.7-4.1,1.2c-1.2,0.5-2.4,1.1-4.2,1.8c-1.8,0.7-3.8,1.8-5.3,2.8c-0.7,0.5-1.4,1-1.8,1.4
		C326.7,240.4,326.5,240.6,326.5,240.6z"/>
	<path class="st7" d="M334.5,246.5c-3.1,3.2-5,4.2-6.2,3.9c-1.2-0.3-1.4-2,0.2-3.4c1.6-1.4,3-2.8,4.5-4.2c1.4-1.4,2.9-2.6,4.4-3.4
		c2.9-1.6,6.1-2.9,9.4-3.3c1.7-0.2,4.2,0,5.8,0.5c1.5,0.5,2.1,1,0.2,1.4c-1.9,0.4-3.1,1-4.4,1.6c-1.3,0.6-2.6,1.2-4.7,2
		c-2,0.8-4.4,1.9-6.1,2.9c-0.9,0.5-1.6,1-2.1,1.3C334.8,246.3,334.5,246.5,334.5,246.5z"/>
	<path class="st7" d="M346.8,244.8c2.1-1.2,4.2-2,6-2.4c0.9-0.2,1.8-0.3,2.6-0.3c0.8-0.1,1.5,0,2.1,0.1c2.6,0.4,3.8,1.3,4.1,2
		c0.3,0.7-0.2,1.2-1.1,1.5c-0.2,0.1-0.5,0.1-0.8,0.2c-0.3,0.1-0.6,0.1-0.9,0.1c-0.7,0-1.4,0.1-2.2,0c-3.4,0-6.8,1.5-9.6,3.4
		c-2.8,1.9-5.1,4.2-7.2,6.2c-4.1,4.1-7.8,9.1-12.5,13.2c-2.3,2.1-6.4,4.8-9.3,5.6c-1.4,0.5-2.5,0.6-2.7,0.5
		c-0.3-0.2,0.2-0.6,1.8-1.7c3-2.1,4.7-4.2,6.4-6.3c1.7-2.2,3.5-4.5,6.5-8c1.5-1.7,3.1-3.6,4.9-5.4c1.8-1.8,3.6-3.5,5.4-4.8
		c1.8-1.3,3.4-2.3,4.6-3c0.6-0.3,1.1-0.6,1.4-0.7C346.6,244.9,346.8,244.8,346.8,244.8z"/>
	<path class="st7" d="M337.2,284.5c-5.8,1.8-10.6,0.8-13.3-0.6c-2.8-1.5-3.7-3.2-3.7-4.1c0-0.9,0.8-1.2,1.9-1.1
		c1.1,0.1,2.5,0.5,4.4,1.2c3.7,1.3,8.1,0.7,11.6-0.9c3.5-1.6,6.5-4,9.1-6.2c2.6-2.2,5.1-4.7,7.6-7.3c2.6-2.6,5.1-4.9,6.9-7.5
		c0.5-0.6,0.9-1.4,1.4-2.2c0.4-0.8,0.8-1.7,1-2.6c0.5-1.9,0.4-4,0-5.5c-0.4-1.6-1.2-2.6-1.2-3c0-0.2,0.2-0.2,0.7,0
		c0.5,0.2,1.2,0.8,2,1.9c1.5,2.2,1.9,4.4,2.1,6.4c0.1,2-0.2,4-0.8,5.9c-1.3,3.7-3.8,7.1-7.5,10.9c-3.7,4-8.6,8.6-13.3,11.3
		c-2.3,1.4-4.5,2.3-6.1,2.8C338.1,284.3,337.2,284.5,337.2,284.5z"/>
	<path class="st7" d="M220.8,330.2c-1-7.2-0.6-10.6,0.8-11.7c0.6-0.5,1.4-0.4,2.1,0.2c0.7,0.7,1.3,1.9,1.3,3.5
		c0.2,3.3,0.6,6.5,0.8,9.5c0.3,3.1,0.4,6.1,0.1,8.7c-0.6,5.2-1.7,10.4-4,15.1c-1.1,2.4-3.3,5.7-5.1,7.4c-1.8,1.8-2.8,2.2-1.7-0.7
		c1.1-2.9,1.4-5.1,1.9-7.3c0.4-2.3,0.8-4.6,1.6-8.1c0.8-3.5,1.5-7.6,1.8-10.9c0.1-1.6,0.3-3.1,0.3-4.1
		C220.8,330.8,220.8,330.2,220.8,330.2z"/>
	<path class="st7" d="M5,278c-0.2,29,0.1,50.1,0.5,64.7c0.4,14.6,0.9,22.7,0.9,25.8c-0.1,1.6-0.4,1.9-0.9,1.1
		c-0.3-0.4-0.6-1.1-0.9-2c-0.3-1-0.8-2.2-1.1-3.6c-1.4-5.8-2.6-15.6-3-27.7C0.2,323.9,0,311.8,0,299.9c0-6,0-11.9,0-17.8
		c0.1-5.9,0.1-11.7,0.4-17.6c0.2-3,0.6-6,1.2-8.9c0.6-2.9,1.5-5.7,2.6-8.5c1.1-2.8,2.5-5.4,4-7.8c1.6-2.5,3.5-4.7,5.7-6.8
		c2.2-2,4.6-3.7,7.3-4.9c0.6-0.3,1.3-0.6,2-0.8c0.7-0.3,1.3-0.5,2-0.7c0.7-0.2,1.4-0.4,2.1-0.6c0.7-0.2,1.4-0.3,2.1-0.4
		c5.6-0.9,11-0.2,15.9,0.8c4.9,1.1,9.6,2.6,14.2,4.1c4.6,1.5,9.2,3.1,13.8,4.7c9.2,3.3,18.2,6.8,27.2,10.6c4.5,1.9,8.9,3.9,13.4,5.9
		c4.4,2,8.9,4.2,13.2,6.7c4.3,2.5,8.5,5.4,12.2,8.7c1.9,1.7,3.7,3.5,5.3,5.5c1.6,2,3.1,4.1,4.4,6.3c0.7,1.1,1.2,2.3,1.8,3.5
		c0.5,1.2,1.1,2.5,1.6,3.8c1,2.6,1.9,5.4,2.5,8.3c1.4,5.8,2,11.9,2.2,17.9c0.2,6.1-0.1,12-0.4,17.6c-0.3,5.6-0.6,10.8-0.6,15.3
		c-0.1,4.5,0,8.4,0.1,11.2c0.2,2.9,0.3,4.7,0.2,5.3c-0.1,0.6-0.4-0.2-0.9-2.6c-0.5-2.4-1.1-6.5-1.3-12.6c-0.3-6.1-0.2-11.7-0.2-17
		c0-5.3-0.1-10.2-0.4-14.9c-0.6-9.4-2.1-17.9-5.4-26c-1.7-4-3.8-7.9-6.7-11.3c-2.9-3.5-6.4-6.7-10.6-9.7
		c-8.4-5.9-19.5-10.6-32.8-16.3c-13.3-5.6-27.9-11.1-42.5-15.9c-7.3-2.4-14.4-4.5-21.2-4.5c-6.8-0.1-12.9,2.5-17.3,6.6
		c-2.2,2-4,4.4-5.5,6.9c-1.4,2.5-2.6,5-3.5,7.5c-1.8,5-2.5,9.6-2.8,13.5c-0.3,3.9-0.3,7.2-0.4,9.4C5,276.8,5,278,5,278z"/>
	<path class="st7" d="M202,377.7c-3.6,2-7.1,3.7-10.6,4.8c-3.5,1.2-6.9,1.9-10.2,1.9c-1.6,0-3.2-0.1-4.7-0.3
		c-0.8-0.1-1.5-0.3-2.2-0.5c-0.7-0.2-1.4-0.4-2-0.7c-2.6-1.1-4.7-2.5-6.3-4c-1.6-1.5-2.8-3.2-3.7-4.7c-0.8-1.6-1.3-3-1.4-4.4
		c-0.1-0.6-0.1-1.2-0.1-1.8c0-0.5,0-1,0.1-1.4c0.1-0.4,0.1-0.8,0.3-1.1c0.1-0.3,0.2-0.6,0.4-0.8c0.5-0.8,0.8-0.8,1.1-0.3
		c0.1,0.3,0.3,0.6,0.4,1.1c0.1,0.5,0.3,1.1,0.5,1.8c0.4,1.3,1.1,3,2.4,4.8c1.3,1.7,3.2,3.6,5.7,5.1c5,3.1,11.6,2.8,17.4,0.9
		c6-1.9,11.5-5.2,16.9-8.4c10.7-6.5,20.2-13.7,28.3-20.4c3.6-2.9,6.9-6.1,10.7-9.2c1.9-1.6,3.9-3.1,6.1-4.4c2.2-1.3,4.6-2.5,7.1-3.2
		c2.5-0.7,5.2-1.2,8-1c2.7,0.2,5.6,0.9,8.1,2.5c2.4,1.5,4.4,3.7,5.7,6.3c0.6,1.3,1.1,2.7,1.3,4.2c0.1,0.4,0.1,0.7,0.1,1.1
		c0,0.4,0,0.8,0,1.1c0,0.7-0.2,1.8-0.2,1.6l0,0.1l0.1,0.4c0.1,0.4,0.1,0.7,0.1,1c0.1,0.7,0.1,1.4,0.1,2.1c0.1,1.4,0,2.8-0.1,4.2
		c-0.1,1.5-0.5,3-1,4.6c-0.6,1.6-1.2,3.2-2.4,4.7c-0.2,0.4-0.6,0.7-0.9,1.1c-0.3,0.3-0.6,0.7-1,1c-0.7,0.6-1.5,1.2-2.2,1.6
		c-1.4,0.9-2.8,1.8-4.2,2.7c-5.6,3.5-11.1,7-15.4,9.6c-8.6,5.2-12.3,6.8-1.6-1.1c7.4-5.5,13.2-10,18.8-14.2c0.3-0.3,0.7-0.5,1-0.8
		l0.8-0.7c0.3-0.2,0.4-0.5,0.7-0.8l0.3-0.4l0.3-0.5c0.8-1.2,1.2-2.6,1.5-4.1c0.3-1.5,0.4-3.1,0.4-4.8c0-0.8-0.1-1.7-0.2-2.5
		c-0.1-0.4-0.1-0.9-0.2-1.3l-0.1-0.6l-0.2-1.1c0.1-0.4,0.1-0.7,0.2-1.1c0-0.1,0.1-0.3,0-0.4c0-0.3,0-0.6,0-0.9
		c0-0.6-0.2-1.2-0.4-1.9c-0.5-1.3-1.2-2.5-2.4-3.6c-1.1-1.1-2.5-2-4.1-2.5c-1.7-0.5-3.6-0.7-5.7-0.4c-1.7,0.2-3.4,0.7-5.1,1.3
		c-1.7,0.7-3.3,1.6-5,2.7c-3.3,2.2-6.4,5-9.6,7.8c-6.5,5.7-13.3,10.8-19.4,15c-6.1,4.2-11.7,7.5-15.6,9.7
		C204.4,376.5,202,377.7,202,377.7z"/>
	<path class="st7" d="M364.1,306.8c-7.9-2.8-16.7-6-24.3-8.8c-7.6-2.8-14.1-5.3-17.3-6.9c-6.5-3.2-16.8-6.2-17.3-2.5
		c-0.4,3,9.9,6.4,14.9,7.2c2.5,0.4,11,2.7,20.1,5.6c9.2,2.9,19.1,6.2,24.6,8.4c11,4.3,24.2,8.9,32.2,11.9c8.1,3,13.7-0.6,0.6-4
		C384.5,314.2,379.2,312.1,364.1,306.8z"/>
	<path class="st7" d="M422.6,304.6c-8.5,5.1-14.4,13.9-20.7,17.7c-6.3,3.8-3.2-6.3,0.2-9.3c3.4-3,9.4-8.5,14.2-12.7
		c4.7-4.2,37.1-33.4,41.2-37c4-3.6,36.7-31.1,43.2-38.8c6.5-7.7,13.3-5.5,10.4-2c-2.9,3.5-16.4,15.7-18.4,17.5
		c-2,1.8-25.4,19.2-29.7,23.9c-4.3,4.8-18.2,16.4-23.6,21.2C433.8,290,425.8,302.7,422.6,304.6z"/>
	<path class="st7" d="M485.6,205.3c-4.3-1.6-9.1-3.3-13.4-4.7c-4.2-1.4-7.9-2.6-9.7-3.5c-3.6-1.9-9.5-2.8-9.8,0.8
		c-0.3,3,5.4,4.3,8.2,4.1c1.4-0.1,6.1,0.5,11.2,1.7c5.1,1.2,10.5,2.9,13.4,4.2c5.9,2.6,13,5.3,17.3,7.1c4.3,1.8,8.2-2.3,1-3.9
		C496.7,209.6,493.8,208.3,485.6,205.3z"/>
	<path class="st7" d="M271.1,207.2c-22.2-7.4-31.7-12.4-33.7-14.2c-1.9-1.8,3.9-0.6,12.9,3c18,7.3,36.7,12.8,51.4,17.5
		c14.8,4.7,29.7,9.1,44.6,13.4c14.8,4.5,44.8,13.1,25.8,9.1c-9.5-2-16.2-3.4-23.3-5c-7.1-1.6-14.7-3.4-25.9-6.7
		c-11.2-3.3-24.2-7.4-34.3-10.9c-5.1-1.8-9.4-3.3-12.5-4.4C272.9,207.8,271.1,207.2,271.1,207.2z"/>
	<path class="st7" d="M304.3,179.7c-22.2-7.4-31.7-12.4-33.6-14.2c-1.9-1.8,3.9-0.6,12.9,3c18,7.3,36.7,12.8,51.4,17.5
		c14.8,4.7,29.7,9.1,44.6,13.4c14.8,4.5,44.8,13.1,25.8,9.1c-9.5-2-16.2-3.4-23.3-5c-7.1-1.6-14.7-3.4-25.9-6.7
		c-11.2-3.3-24.2-7.4-34.3-10.9c-5.1-1.8-9.4-3.3-12.5-4.4C306.1,180.4,304.3,179.7,304.3,179.7z"/>
	<path class="st7" d="M385,166.5c7,1.8,14.1,3.5,21.3,5.2c3.6,0.8,7.2,1.7,10.8,2.5c4.3,1,8.6,1.9,12.9,2.9c1-33.7,2.1-67.8,3-97.6
		c-18.4-5.2-35.1-9.9-49.3-13.9c-13.8-3.9-25.1-7.1-32.9-9.5c-17.1-5.2-38.6-11.4-55.4-16c-16.8-4.6-29-7.5-27.9-5.2
		c0.9,1.9,14.4,7,30.7,12.1c16.3,5.2,35.5,10.3,47.7,13.2c5.4,1.3,16.6,4.1,31.5,7.9c7.4,1.9,15.8,4.1,24.8,6.4
		c8.7,2.3,17.9,4.8,27.6,7.4c-0.5,28.1-1.4,65.1-2.1,92.1c-2.2-0.5-4.4-1-6.5-1.4c-2.4-0.6-4.8-1.1-7.2-1.6
		c-4.7-1.1-9.2-2.1-13.6-3.2c-8.6-2.1-16.3-4-22.9-5.8c-19.5-5.2-40.1-11.1-59.6-17.1c-9.7-3-19.2-6.1-28-9.1
		c-4.4-1.5-8.7-3-12.8-4.4c-3.8-1.3-7.4-2.6-10.9-3.8c0.8-23.9,1.3-39.8,1.7-53c1.5-42.9-3-64.6-4.1,3.4c-0.4,21-0.7,38.4-0.9,51.8
		c2.8,0.9,5.5,1.9,8.2,2.8c2.3,0.8,4.5,1.5,6.8,2.3c4.5,1.5,8.9,3,13.3,4.4c8.8,2.9,17.7,5.7,27.1,8.6
		C337,153.6,357.8,159.6,385,166.5z"/>
	<path class="st7" d="M388.4,233.5c-7.5,10-10.2,6.2-6.6,2.6c3.7-3.7,6.4-8.1,9.1-11.3c2.7-3.1,5.4-6.3,8.4-9.2
		c3-2.9,9.7-8.1,6.6-3.9c-3.1,4.2-3.8,6.3-7.8,11C394.1,227.5,388.4,233.5,388.4,233.5z"/>
	<path class="st7" d="M249.1,187c-10.8,9.8-12.7,5.4-7.7,2c5-3.5,9.2-7.9,13-11c3.8-3,7.6-6.1,11.6-8.8c4-2.7,12.6-7.5,8.2-3.4
		c-4.5,4.1-5.8,6.3-11.5,10.8C256.9,181.3,249.1,187,249.1,187z"/>
	<path class="st7" d="M273.3,20.3c-17-5.1-23.8-5,1.1,2.6c25.4,7.7,39.3,10.7,71.5,20.1c32.2,9.4,62.2,18.6,84.7,25.3
		c22,6.6,21.4,3.4-23.3-8.6c-23.9-6.5-27.2-7.8-61.2-17.6C319.1,34.2,295.4,26.9,273.3,20.3z"/>
	<path class="st7" d="M313.7,129.4c0-1,1.2-6.9,1.2-6.9l12.7,3.8c0,0-5,10.1-6.9,14.8l-3.6-1.2l5.5-12l-4.8-1.2l-0.7,3.8
		L313.7,129.4z"/>
	<path class="st7" d="M331.1,130.8c1-1.7,5.9-3.3,8.7-1c1.3,1.1,1.7,4.4-2.4,7.8c-2.9,2.4-6.2,4-5.4,4c0.7,0,7.3,1.4,7.3,1.4l-0.9,3
		l-9.8-2.8l0.9-3.5c0,0,6.8-3.3,6.8-5.7c0-3.5-4.7,0-4.7,0L331.1,130.8z"/>
	<path class="st7" d="M350.3,132c-0.9,0-1.8,0.2-2.6,0.7c-0.8,0.5-1.5,1.2-2,2.1c-1.2,2.1-1.7,4.6-1.7,7c0,1.4,0.2,2.6,0.5,3.8
		c0.2,0.6,0.4,1.1,0.7,1.6c0.3,0.5,0.7,0.9,1.3,1.2l0.7-1.3l-0.7,1.3c0.8,0.5,1.7,0.7,2.5,0.7c1.2,0,2.3-0.5,3.2-1.3
		c1.3-1.1,2.1-2.7,2.6-4.4c0.6-1.7,0.9-3.5,0.9-5.2c0-1.8-0.6-3.4-1.6-4.5C353.2,132.6,351.8,132,350.3,132z M351.6,143.8
		c-0.4,0.8-0.8,1.4-1.3,1.8c-0.4,0.4-0.8,0.5-1.2,0.5c-0.3,0-0.6-0.1-1.1-0.3c0,0-0.1-0.1-0.2-0.2c-0.2-0.3-0.4-0.8-0.5-1.4
		c-0.1-0.7-0.2-1.4-0.2-2.3c0-1.9,0.4-4.1,1.3-5.5c0.3-0.5,0.6-0.8,1-1c0.3-0.2,0.7-0.3,1-0.3c0.6,0,1.1,0.2,1.6,0.8
		c0.5,0.5,0.8,1.3,0.8,2.5C352.8,140.1,352.3,142.3,351.6,143.8z"/>
	<path class="st7" d="M368.4,137.3c-1-1.1-2.4-1.7-3.8-1.7c-0.9,0-1.8,0.2-2.6,0.7c-0.8,0.5-1.5,1.2-2,2.1c-1.2,2.1-1.7,4.6-1.7,7
		c0,1.4,0.2,2.6,0.5,3.8c0.2,0.6,0.4,1.1,0.7,1.6c0.3,0.5,0.7,0.9,1.3,1.2l0.7-1.3l-0.7,1.3c0.8,0.5,1.7,0.7,2.5,0.7
		c1.2,0,2.3-0.5,3.2-1.3c1.3-1.1,2.1-2.7,2.6-4.4c0.6-1.7,0.9-3.5,0.9-5.2C370,140,369.4,138.4,368.4,137.3z M365.8,147.4
		c-0.4,0.8-0.8,1.4-1.3,1.8c-0.4,0.4-0.8,0.5-1.2,0.5c-0.3,0-0.6-0.1-1.1-0.3c0,0-0.1-0.1-0.2-0.2c-0.2-0.3-0.4-0.8-0.5-1.4
		c-0.1-0.7-0.2-1.4-0.2-2.3c0-1.9,0.4-4.1,1.3-5.5c0.3-0.5,0.6-0.8,1-1c0.3-0.2,0.7-0.3,1-0.3c0.6,0,1.1,0.2,1.6,0.8
		c0.5,0.5,0.8,1.3,0.8,2.5C367,143.6,366.5,145.8,365.8,147.4z"/>
	<path class="st7" d="M399.6,50.9c-20.2-6.6-41.3-12.5-61.1-17.8c-19.8-5.4-38.3-10.4-53.5-15.1c-30.4-9.5,8.9-2.1,28,3.3
		c19.1,5.4,53.6,14.9,80.4,22.8c6.7,2,23.2,6.7,44.3,13.7c2.6,0.9,5.3,1.9,8.1,2.9c1.4,0.5,2.8,1,4.2,1.5c1.1,0.4,2.2,0.8,3.4,1.2
		l0.5,0.2l0.2,0.1l0,0.3l0,1.1l0,2.2c0,6.1-0.1,12.4-0.1,18.9c-0.1,13-0.2,26.5-0.3,40.1c-0.1,13.5-0.2,27.1-0.3,39.9
		c0,6.4-0.1,12.7-0.1,18.7c0,3,0,5.9-0.1,8.8c0,1.6,0,3.1,0,4.6c0.1,0.7-0.4,1.2-0.8,1.8l-0.4,0.5l-0.3,0.5
		c-0.5,0.6-0.9,1.2-1.5,1.8l-0.2,0.2l-0.4,0.3c-0.2,0.2-0.5,0.4-0.8,0.6c-0.6,0.3-1.2,0.6-1.8,0.5c-0.3,0-0.6,0-0.9-0.1l-0.8-0.2
		l-1-0.2c-1.3-0.3-2.5-0.6-3.8-0.9c-2.5-0.6-4.9-1.1-7.1-1.6c-4.6-1.1-8.7-2.1-12.4-2.9c-7.4-1.8-12.8-3.1-15.7-3.9
		c-7.2-1.8-29.8-7.7-58.4-16.1c-14.3-4.2-30.2-9.2-46.4-14.5c-8.1-2.7-16.3-5.5-24.4-8.3c-4.1-1.4-8.1-2.9-12.2-4.3
		c-4.5-1.6-8.9-3.3-13.3-4.9c0.1-20.9,0.3-40.8,0.4-57.6c0.1-16.4,0.1-29.7,0-37.9c-0.1-10.9,0-20.1,0.3-27.5
		c0.1-1.8,0.2-3.5,0.3-5.1c0.1-1.1,0.1-2.2,0.2-3.3l0.1-0.2l0.2-0.1l0.4-0.3c0.3-0.2,0.5-0.3,0.8-0.5c0.6-0.4,0.8-0.5,1.1-0.6
		c2.5-1.3,4.6-2.2,6.3-2.8c1.7-0.6,3.1-0.8,3.9-0.6c0.4,0,0.7,0.3,0.8,0.4c0.1,0.1,0,0.2-0.1,0.3c-0.3,0.1-0.9,0.4-2.1,1
		c-1.2,0.6-2.8,1.5-4.9,2.8c-0.5,0.3-1.1,0.7-1.7,1.1c-0.3,0.2-0.6,0.4-0.9,0.6c-0.2,0.1-0.4,0.3-0.6,0.4c-0.3,0.1-0.1,0.4-0.2,0.6
		c0,0.4,0,0.8,0,1.1c0,0.9,0,1.9,0,2.9c0,4.1,0,8.9,0,14.1c0,10.4-0.1,22.6-0.1,34.5c-0.2,23.9-0.3,46.7-0.3,52.7
		c0,2.5-0.2,10.2-0.4,21.6c2,0.8,4.2,1.6,6.5,2.5c2.6,1,5.4,2,8.3,3.1c5.7,2.1,11.9,4.4,18.4,6.6c12.9,4.5,26.9,9.2,40.5,13.5
		c27.1,8.6,52.3,15.6,62.8,18.2c6.8,1.7,16.6,4.2,28.2,7c5.8,1.4,12,2.9,18.4,4.4c3.2,0.7,6.4,1.5,9.6,2.2c0.4,0.1,0.7-0.1,0.9-0.3
		c0.3-0.2,0.5-0.5,0.8-0.8c0.5-0.6,1.1-1.3,1.5-2l0.3-0.4c0.1-0.1,0-0.3,0.1-0.5l0-1.2l0-2.6c0.3-27.3,0.6-55.2,0.7-71.1
		c0.1-8,0-17.9-0.2-28.6c-0.1-5.3-0.2-10.9-0.3-16.4c-0.1-2.8-0.1-5.6-0.2-8.3l0-2.1l0-0.5c0-0.1,0-0.3-0.1-0.4l-0.4-0.1
		c-0.2,0-0.2-0.1-0.6-0.2l-2-0.6c-5.2-1.6-10.2-3.3-15.1-4.8c-4.9-1.4-9.4-2.7-13.6-4C410,54.1,403.4,52.2,399.6,50.9z"/>
	<path class="st7" d="M445.2,85.5c0.2-10.6-1.7-14.6-2.2,1c-0.5,15.9,0.4,24.3,0.2,44.4c-0.3,20.1-0.9,38.8-1.2,52.9
		c-0.3,13.7,2.5,12.9,2-14.8c-0.3-14.8,0.1-16.9,0.2-38.1C444.4,114,444.9,99.2,445.2,85.5z"/>
	<path class="st7" d="M241.2,131.6c-0.8,1.6-2.4,2.5-3.6,3.2c-1.1,0.7-11.1,6.1-12.2,7.6c-1.1,1.4-3.1,2.2-6.1,4.7
		c-2.2,1.8-6.8,3.1-6.8,3.1c-0.5-0.6,4.1-5.4,5.9-6.5c1.8-1.1,4.9-3.1,6-3.8c1.1-0.7,7.4-5.2,8-5.9c0.6-0.7,2.4-2.2,4.2-3.6
		c1.8-1.4,3.3-0.9,4.3-0.4C241.7,130.5,241.2,131.6,241.2,131.6z"/>
	<path class="st7" d="M60.7,232.2c0.6-8.3,3-9.5,7.7-15.4c4.7-5.9,8.9-9.5,8.9-4.2c0,5.3-4.2,13.6-4.2,19c0,5.3-4.2,6.5-4.2,6.5
		L60.7,232.2z"/>
	<path class="st7" d="M89.8,243.5c-2.4-3.6,3-9.5,6.5-13.1c3.6-3.6,5.1-13.4,7.7-9.5c0,0,2.4,13.1,2.4,19s-3,10.1-8.3,10.1
		C92.7,250,89.8,243.5,89.8,243.5z"/>
	<path class="st7" d="M197.7,254.2c-4.7,8.3-4.5,10.6,1.8,15.4c5.3,4.2,4.2,8.9,9.5,7.1c5.3-1.8,7.7-4.2,8.9-11.9
		C219.1,257.1,197.7,254.2,197.7,254.2z"/>
	<path class="st7" d="M226.2,268.4c-4.7,5.3-3,13.1-0.6,13.6c2.4,0.6,1.7,9.3,6.5,7.1c0,0,6.5,7.1,10.1-1.8
		c3.6-8.9,1.2-14.8,1.2-14.8L226.2,268.4z"/>
</g>
<g>
	<path class="st8" d="M329.3,97.3c0,0-9.2-2.8-11.3-4.6c-2-1.9-1.7-6.1,2-7c-1.4-1.4-0.7-4.1,0.5-4.7s2.8-1.5,2.8-1.5
		s-1-2.5,1.5-3.7c2.5-1.2,4.2-2.2,4.6-2.9c0.4-0.7,0.5-2.5-0.8-3.3c-1-0.9,1.3-0.3,3.5,0.8c2.1,1.1,3,2.3,3,3.9c0,0.6,0,1,0.7,1.4
		c0.7,0.4,1.2,0.6,1.6,1.4c0.4,0.8,0.3,1.8,0.3,1.8s1.8,0.2,2.6,1.3c0.8,1,0.9,3,0.5,3.9c-0.4,0.9-0.7,1.1-0.7,1.1s1,1,1.5,1.5
		c0.5,0.5,1.7,3.7,0.7,4.7c-0.2,0.2-1.1,1.3-1.9,1.7c-3.2,1.7-9.5,3.9-9.5,3.9L329.3,97.3z"/>
	<path class="st9" d="M341.4,95c-0.1,1-0.4,2.3-1.1,2.7c-0.7,0.4-1.5,0.5-1.5,0.5s0,0.1,0,0.2c-0.1,0.9-0.7,4.7-0.9,5.9
		c-0.2,1.4-0.7,5-2.5,6c-0.3,0.1-0.5,0.3-0.8,0.4c-1.6,0.7-3.3,1.1-5.7,1.1c-3.2-0.1-4.1-0.4-4.8-0.8c-0.6-0.4-1.3-3.3-1.5-3.6
		c-0.1-0.3-1.2-4.8-1.1-4.9c0.1-0.1-0.5-2.8-0.7-3.8c0-0.2-0.1-0.3-0.1-0.3s-2.4-1-2.5-2.2c-0.2-1.2-0.3-3.5-0.3-3.5
		s1.4,2.1,11.9,2.1c7.1,0,10.3-1.9,10.8-2.1c0.5-0.1,0.6-0.2,0.7,0C341.6,92.9,341.6,94,341.4,95z"/>
	<path class="st10" d="M338.8,98.4c-0.1,0.9-0.7,4.7-0.9,5.9c-0.2,1.4-0.7,5-2.5,6c-0.3,0.1-0.5,0.3-0.8,0.4c1.5-3.5,2.1-9,1.6-9.9
		c-0.6-1.1-1.4-0.5-3.7-0.4c-2.3,0.2-6.4,0.4-9.4-1.1l-0.9-0.8c0,0,2.7,0.4,5.5,0.4C330.3,99.1,336.5,98.8,338.8,98.4z"/>
	<path class="st11" d="M321.9,86.9c3.3,1.3,4.9,1.7,9.7,1.3c4.7-0.4,8.1-2.3,8.1-2.3s-7.6,1-9.7,1C327.9,86.9,321.9,86.9,321.9,86.9
		z"/>
	<path class="st11" d="M325.7,79.6c2.2,1,3.3,1.4,6.4,1.1s5.3-1.8,5.3-1.8s-5.1,0.8-6.4,0.8C329.7,79.6,325.7,79.6,325.7,79.6z"/>
	<path d="M322,86.9c-0.5-0.1-1.1-0.3-1.6-0.7c-0.3-0.2-0.5-0.4-0.7-0.7c-0.2-0.3-0.4-0.6-0.4-1c-0.1-0.7-0.2-1.3,0-2
		c0.1-0.3,0.2-0.7,0.4-0.9c0.1-0.1,0.2-0.3,0.3-0.4c0.1-0.1,0.2-0.2,0.4-0.3c0.9-0.8,1.7-1.2,2.2-1.3c0.3-0.1,0.5,0,0.5,0
		c0.1,0.1,0,0.1,0,0c-0.2-0.1-0.5,0.1-0.8,0.3c-0.4,0.3-0.8,0.6-1.5,1.2c-0.7,0.5-1,1.2-1.1,1.9c0,0.3,0,0.6,0,0.9
		c0,0.1,0,0.3,0.1,0.4c0,0.1,0.1,0.2,0.1,0.3c0.1,0.3,0.2,0.4,0.3,0.7c0.1,0.1,0.2,0.3,0.4,0.5c0.2,0.2,0.6,0.4,1.2,0.6
		c1.2,0.3,1.9,0.3,2.2,0.4c0.3,0.1,0.3,0.1-0.1,0.2c-0.4,0-0.8,0.1-1.2,0.1C322.3,86.9,322,86.9,322,86.9z"/>
	<path d="M318,87.5c0.5-0.7,1.1-1,1.5-1.2c0.5-0.2,0.8-0.2,0.9-0.3c0-0.1,0-0.1-0.1-0.2c-0.1,0-0.3-0.1-0.7-0.1
		c-0.3,0-0.7,0.1-1.2,0.3c-0.5,0.3-1,0.7-1.4,1.3c-0.4,0.6-0.6,1.3-0.7,2c-0.1,0.7,0,1.4,0.3,2c0.5,1.2,1.6,2,2.7,2.4
		c1.1,0.4,2.4,0.6,3.7,0.7c1.3,0.1,2.8,0.3,4.6,0.4c3.5,0.2,6.9,0,10-0.7c0.4-0.1,0.8-0.2,1.1-0.3c0.4-0.1,0.7-0.2,1.1-0.4
		c0.7-0.3,1.4-0.7,1.9-1.1c0.6-0.5,1-1.1,1.2-1.8c0.1-0.4,0.1-0.7,0.1-1c0-0.3,0-0.7,0-1c0-0.3-0.1-0.6-0.2-0.9
		c-0.1-0.3-0.3-0.5-0.5-0.7c-0.4-0.3-0.6-0.5-0.8-0.6c-0.2-0.1-0.3-0.2-0.4-0.2c-0.1,0-0.1,0.1,0,0.3c0.1,0.2,0.3,0.4,0.5,0.7
		c0.1,0.1,0.3,0.3,0.4,0.5c0.1,0.2,0.2,0.4,0.2,0.7c0,0.3,0.1,0.6,0.1,1c0,0.4,0,0.8-0.1,1.1c-0.2,0.7-0.9,1.5-1.8,2.1
		c-0.3,0.2-0.5,0.3-0.8,0.4c-0.2,0.1-0.5,0.2-0.8,0.3c-0.2,0.1-0.5,0.2-0.7,0.2c-0.2,0.1-0.4,0.1-0.7,0.2c-0.9,0.2-1.7,0.4-2.5,0.5
		c-0.9,0.1-1.8,0.2-3,0.3c-1.2,0.1-2.6,0.1-4.4,0c-1.5-0.1-2.9-0.2-4.2-0.4c-1.4-0.2-2.7-0.4-3.8-0.9c-0.6-0.3-1.1-0.6-1.5-1
		c-0.1-0.1-0.2-0.2-0.3-0.3l-0.2-0.4l-0.2-0.4c-0.1-0.1-0.1-0.3-0.1-0.4c-0.1-0.5-0.1-1.1,0-1.6C317.4,88.4,317.7,87.9,318,87.5z"/>
	<path d="M340.8,81.2c0.1,0.5,0.1,1,0.1,1.5c0,0.5-0.2,1-0.4,1.5c-0.2,0.4-0.5,0.8-0.8,0.9c-0.3,0.2-0.6,0.3-0.8,0.4
		c-0.4,0.1-0.9,0.3-1.3,0.3c-0.2,0.1-0.3,0.1-0.5,0.1c-0.1,0-0.2,0.1-0.2,0.3c0,0.1,0.1,0.2,0.2,0.3c0.2,0.1,0.4,0.1,0.7,0.1
		c0.5,0,1-0.2,1.3-0.4c0.1-0.1,0.5-0.3,0.9-0.6c0.4-0.3,0.8-0.8,1-1.4c0.2-0.6,0.3-1.3,0.3-1.8c0-0.6-0.1-1.1-0.2-1.5
		c-0.2-0.7-0.9-1.4-1.6-1.8c-0.7-0.4-1.5-0.5-2.1-0.4c-0.6,0-0.9,0.3-0.9,0.5c0,0.1,0.1,0.1,0.3,0.1c0.2,0,0.4,0,0.8-0.1
		c0.4-0.1,0.7,0,1,0c0.3,0.1,0.6,0.2,0.9,0.3C340,79.8,340.5,80.3,340.8,81.2z"/>
	<path d="M326.6,86.6c0.8,0.1,1.7,0.1,2.7,0.1c0.5,0,1,0,1.4-0.1c0.2,0,0.5-0.1,0.7-0.1c0.1,0,0.2,0,0.3,0c0.1,0,0.2,0,0.4,0
		c0.9,0,1.5-0.1,1.9-0.1c0.4-0.1,0.5-0.1,0.4,0c-0.1,0.1-0.3,0.2-0.6,0.3c-0.3,0.1-0.8,0.2-1.5,0.3c-0.3,0-0.7,0.1-1,0.1
		c-0.3,0-0.6,0.1-0.9,0.1c-0.5,0.1-1,0.1-1.3,0.1c-0.6,0-0.4,0-2.3-0.1c-1.9-0.1-2.3-0.3-1.7-0.4C325.7,86.7,326.6,86.6,326.6,86.6z
		"/>
	<path d="M326.9,79.6c0.6,0.1,1.4,0.1,2.3,0.1c0.9,0,1.7,0,2.5,0c1.6,0,2.1-0.2,1.9-0.1c-0.1,0.1-0.2,0.2-0.5,0.3
		c-0.3,0.1-0.7,0.2-1.3,0.3c-1.2,0-2.2,0-2.7,0.1c-0.3,0-0.4,0-0.6,0c-0.2,0-0.6,0-1.4-0.1c-0.9-0.1-1.4-0.4-1.5-0.5
		c-0.2-0.2-0.1-0.2,0.1-0.1c0.2,0.1,0.5,0.1,0.8,0.1C326.7,79.6,326.9,79.6,326.9,79.6z"/>
	<path d="M323.4,76.5c0.2-0.2,0.4-0.5,0.7-0.7c0.3-0.2,0.5-0.4,0.9-0.6c0.6-0.3,1.3-0.6,1.9-0.9c0.6-0.3,1.3-0.6,1.8-1.1
		c0.5-0.4,0.8-1,0.8-1.6c0.1-0.6-0.1-1.1-0.4-1.5c-0.2-0.3-0.5-0.6-0.8-0.7c-0.2-0.2-0.4-0.2-0.5-0.3c-0.1,0-0.1-0.1,0,0
		c0.2,0.1,0.5,0.1,1,0.4c0.2,0.1,0.5,0.3,0.7,0.7c0.2,0.3,0.4,0.8,0.4,1.3c0,0.5-0.1,1.1-0.4,1.5c-0.3,0.4-0.6,0.7-0.9,0.9
		c-0.7,0.5-1.2,0.8-1.7,1c-0.4,0.2-0.6,0.3-0.9,0.4c-0.2,0.1-0.4,0.2-0.7,0.3c-0.3,0.2-0.8,0.4-1.2,0.9c-0.5,0.5-0.8,1-0.9,1.3
		c-0.1,0.4-0.1,0.6,0,0.8c0.1,0.1,0.2,0.2,0.1,0.2c0,0-0.1,0-0.1,0c-0.1,0-0.1-0.1-0.2-0.2c-0.1-0.2-0.2-0.4-0.2-0.7
		c0-0.3,0.1-0.5,0.2-0.7C323.2,76.8,323.4,76.5,323.4,76.5z"/>
	<path d="M330.8,69.1c0.7,0.3,1.5,0.8,2.3,1.3c0.4,0.2,0.9,0.5,1.2,0.9c0.4,0.4,0.6,0.8,0.8,1.3c0.3,0.9,0.2,1.6,0.1,2
		C335,75,335,75.1,335,75c0-0.1,0-0.3,0-0.7c0-0.3-0.1-0.8-0.3-1.4c-0.2-0.6-0.6-1.1-1-1.4c-0.4-0.3-0.7-0.5-1-0.6
		c-0.3-0.1-0.3-0.2-0.5-0.4c-0.2-0.1-0.5-0.4-1.3-0.8c-0.8-0.4-1.3-0.5-1.6-0.6c-0.2-0.1-0.2-0.1,0.1-0.2c0.3,0,0.7,0,1,0
		c0.2,0,0.3,0,0.4,0.1C330.7,69.1,330.8,69.1,330.8,69.1z"/>
	<path d="M336.1,75.4c0.1,0.1,0.3,0.2,0.5,0.4c0.2,0.1,0.4,0.3,0.7,0.5c0.4,0.4,0.6,1,0.7,1.5c0.1,0.5,0,0.9-0.1,1.1
		c-0.1,0.2-0.2,0.2-0.1,0.2c0-0.2-0.1-0.5-0.2-1.1c-0.1-0.7-0.5-1.2-0.7-1.3c-0.1-0.1-0.1-0.1-0.2-0.2c-0.1-0.1-0.2-0.2-0.7-0.5
		c-0.4-0.3-0.6-0.7-0.6-0.9c0-0.2,0.1-0.1,0.2,0c0.1,0.1,0.2,0.2,0.4,0.3C336,75.3,336.1,75.4,336.1,75.4z"/>
	<path d="M318.4,94.3c0,0.5,0,1.2,0.2,1.9c0,0.1,0,0.2,0.1,0.2c0,0.1,0,0.1,0.1,0.2c0.1,0.1,0.2,0.2,0.3,0.4
		c0.2,0.2,0.5,0.5,0.7,0.6c0.5,0.4,0.9,0.6,1.1,0.7c0.2,0.1,0.3,0.1,0.2,0.1c-0.1,0-0.2,0.1-0.5,0.1c-0.3,0-0.6-0.1-1-0.4
		c-0.4-0.3-0.8-0.6-1-0.9c-0.1-0.2-0.2-0.3-0.3-0.5c-0.1-0.2-0.1-0.3-0.1-0.4c-0.1-0.2-0.1-0.3-0.1-0.5c0-0.2,0-0.5-0.1-1.2
		c0-0.7,0.1-1.1,0.1-1.3c0.1-0.2,0.2-0.1,0.2,0C318.2,93.7,318.4,94.3,318.4,94.3z"/>
	<path d="M341.8,94c0,0.6,0,1.3-0.2,2.1c-0.1,0.4-0.2,0.8-0.5,1.1c-0.2,0.3-0.5,0.7-0.9,0.8c-0.1,0-0.2,0.1-0.2,0.1
		c-0.1,0-0.2,0.1-0.2,0.1c-0.1,0-0.2,0.1-0.2,0.1c-0.1,0-0.1,0-0.2,0c-0.1,0-0.2,0-0.4,0c-0.1,0-0.2,0-0.3,0c-0.3,0-0.4-0.1-0.3-0.1
		c0.2-0.1,0.7-0.2,1.5-0.6c0.4-0.3,0.7-0.6,0.8-1c0.1-0.2,0.1-0.3,0.2-0.5c0-0.2,0.1-0.3,0.1-0.4c0-0.2,0.1-0.3,0.1-0.5
		c0-0.2,0.1-0.5,0.1-1.2c0-0.7,0-1.2,0.1-1.4c0.1-0.2,0.1-0.2,0.2,0c0,0.2,0.1,0.5,0.1,0.7C341.8,93.8,341.8,94,341.8,94z"/>
	<path d="M325.6,98.8c1,0.1,2.2,0.1,3.5,0.1c0.3,0,0.7,0,1,0c0.3,0,0.6,0,1,0c0.6,0,1.3-0.1,1.9,0c0.6,0,1.1,0.1,1.5,0.1
		c0.4,0,0.7,0,1-0.1c0.2,0,0.4-0.1,0.4-0.1c0.1,0,0.1,0,0,0c-0.1,0.1-0.4,0.3-0.8,0.4c-0.4,0.1-1.1,0.2-2,0.2
		c-0.9,0-1.7,0.1-2.4,0.1c-0.3,0-0.7,0-1,0c-0.3,0-0.5,0-0.7,0c-0.4,0-0.5,0-0.9,0c-0.3,0-0.9,0-2.2-0.1c-1.3-0.1-2-0.4-2.3-0.5
		c-0.3-0.2-0.2-0.2,0.1-0.1c0.3,0.1,0.8,0.1,1.2,0.1C325.3,98.9,325.6,98.8,325.6,98.8z"/>
	<path d="M321.4,99.6c-0.1-0.7-0.2-1-0.4-1.1c-0.1-0.1-0.2,0-0.3,0.2c-0.1,0.2-0.2,0.6-0.1,1.1c0.1,1.1,0.4,1.8,0.7,2.7
		c0.1,0.4,0.3,0.8,0.5,1.3c0.1,0.5,0.2,1,0.3,1.7c0.1,0.6,0.2,1.3,0.4,1.9c0.2,0.6,0.3,1.2,0.5,1.7c0.2,0.6,0.3,1.1,0.7,1.6
		c0.3,0.5,0.8,0.9,1.3,1.1c0.5,0.2,0.9,0.1,1.1,0c0.2-0.1,0.2-0.2,0.1-0.3c-0.1-0.1-0.2-0.1-0.3-0.2c-0.1,0-0.1-0.1-0.2-0.1
		c-0.1,0-0.2-0.1-0.3-0.1c-0.4-0.2-0.8-0.4-1.3-1.1c-0.3-0.4-0.4-0.7-0.5-1c-0.1-0.3-0.2-0.6-0.3-0.9c-0.1-0.3-0.2-0.7-0.3-1.1
		c-0.1-0.4-0.2-0.9-0.4-1.6c-0.1-0.5-0.2-1.1-0.3-1.6c-0.1-0.5-0.2-1-0.3-1.5C321.7,101.3,321.5,100.4,321.4,99.6z"/>
	<path d="M338.8,100.7c0.1-0.6,0.1-1.1-0.1-1.2c-0.2-0.1-0.5,0.2-0.8,1.1c-0.4,1.9,0,3-0.4,5.4c-0.2,1.2-0.6,2.3-1.3,3.2
		c-0.6,0.9-1.5,1.3-2.2,1.6c-0.2,0.1-0.3,0.1-0.5,0.2c-0.1,0.1-0.2,0.1-0.3,0.2c-0.1,0.1-0.2,0.3,0,0.3c0.1,0.1,0.5,0.1,0.9,0
		c0.5-0.1,1.2-0.4,1.8-1.1c0.6-0.7,0.9-1.2,1.2-1.8c0.3-0.6,0.6-1.3,0.8-2.5C338.3,104.1,338.4,102.3,338.8,100.7z"/>
	<path d="M328.8,112.1c-0.4,0-0.7-0.1-0.9-0.2c-0.2-0.1-0.2-0.3-0.2-0.4c0-0.1,0.1-0.2,0.2-0.3c0.1,0,0.2-0.1,0.3,0
		c0.5,0.2,1.2,0.1,1.7,0.1c0.5,0,1-0.1,1.5-0.1c0.2,0,0.6,0,0.9,0.1c0.3,0,0.4,0.1,0.1,0.3c-0.6,0.3-0.8,0.5-1.6,0.6
		c-0.4,0-0.9,0-1.2,0C329,112.1,328.8,112.1,328.8,112.1z"/>
	<path d="M326.2,103.7c0.1,0.2,0.2,0.3,0.4,0.5c0.2,0.2,0.4,0.3,0.5,0.5c0.3,0.3,0.4,0.6,0.3,0.5c0,0-0.2-0.1-0.5-0.3
		c-0.3-0.2-0.5-0.4-0.6-0.5c-0.1-0.1-0.1-0.1-0.3-0.5c-0.3-0.4-0.1-0.6-0.1-0.5C326,103.5,326.2,103.7,326.2,103.7z"/>
	<path d="M328.9,106.9c0.1,0.1,0.3,0.3,0.5,0.4c0.2,0.1,0.4,0.3,0.5,0.5c0.3,0.4,0.2,0.6,0.2,0.5c0-0.1-0.2-0.1-0.4-0.3
		c-0.2-0.2-0.4-0.3-0.6-0.4c-0.1-0.1-0.1-0.1-0.4-0.4c-0.3-0.3-0.3-0.5-0.1-0.4C328.7,106.8,328.9,106.9,328.9,106.9z"/>
	<path d="M325.6,107.5c0.2,0,0.4-0.3,0.7-0.4c0.3-0.1,0.4,0,0.4,0c0,0-0.1,0.2-0.2,0.3c-0.2,0.1-0.3,0.2-0.4,0.3
		c-0.1,0.1-0.1,0-0.3,0.1c-0.2,0.1-0.3,0-0.3,0c0,0,0-0.1,0-0.1C325.5,107.7,325.6,107.5,325.6,107.5z"/>
	<path d="M328.9,105.2c0.4-0.3,0.9-0.7,1.3-1.1c0.4-0.4,0.7-0.4,0.6-0.4c-0.1,0.1-0.1,0.3-0.4,0.6c-0.3,0.3-0.5,0.5-0.7,0.7
		c-0.1,0.2-0.1,0.1-0.6,0.4c-0.2,0.2-0.4,0.3-0.5,0.3c-0.1,0-0.1-0.1,0-0.1C328.8,105.4,328.9,105.2,328.9,105.2z"/>
	<path d="M331,101.1c0.2,0.3,0.7,0.7,1,1.1c0.3,0.4,0.3,0.6,0.2,0.6c0-0.1-0.2-0.1-0.4-0.4c-0.2-0.3-0.5-0.4-0.6-0.5
		c-0.1-0.1,0-0.1-0.4-0.5c-0.3-0.4-0.2-0.6-0.1-0.5C330.7,101,331,101.1,331,101.1z"/>
	<path d="M333.2,102.6c0.2,0,0.5-0.3,0.7-0.4c0.2-0.1,0.4-0.2,0.3-0.1c0,0,0,0.2-0.1,0.3c-0.2,0.1-0.3,0.3-0.4,0.3
		c-0.1,0.1-0.1,0-0.3,0.1c-0.3,0.1-0.4-0.1-0.3-0.1C333.1,102.7,333.2,102.6,333.2,102.6z"/>
	<path d="M333,103.8c0.2,0.3,0.6,0.7,0.9,1.1c0.3,0.4,0.4,0.5,0.3,0.5c-0.1,0-0.3,0-0.5-0.3c-0.2-0.3-0.4-0.5-0.6-0.6
		c-0.1-0.1,0-0.1-0.3-0.5c-0.3-0.4-0.3-0.5-0.1-0.5C332.8,103.6,333,103.8,333,103.8z"/>
	<path d="M327,101.6c0.4-0.2,0.8-0.7,1.3-0.9c0.5-0.3,0.8-0.2,0.7-0.1c-0.1,0-0.2,0.2-0.5,0.4c-0.3,0.2-0.6,0.4-0.7,0.5
		c-0.1,0.1-0.1,0-0.6,0.4c-0.5,0.3-0.6,0.2-0.5,0.1C326.8,101.8,327,101.6,327,101.6z"/>
	<path d="M324.4,100.7c0.2,0.3,0.6,0.6,0.8,1c0.2,0.4,0.2,0.6,0.1,0.5c0-0.1-0.2-0.1-0.4-0.3c-0.2-0.2-0.4-0.4-0.5-0.5
		c-0.1-0.1,0-0.1-0.3-0.4c-0.3-0.3-0.2-0.5-0.1-0.4C324.2,100.6,324.4,100.7,324.4,100.7z"/>
	<path d="M323.4,104.4c0.2-0.1,0.5-0.4,0.8-0.6c0.3-0.1,0.5-0.1,0.4-0.1c0,0-0.1,0.2-0.3,0.3c-0.2,0.1-0.3,0.3-0.4,0.3
		c-0.1,0.1-0.1,0-0.3,0.2c-0.3,0.2-0.4,0.1-0.4,0C323.3,104.5,323.4,104.4,323.4,104.4z"/>
	<path d="M328.5,110.2c0.2-0.2,0.5-0.5,0.9-0.7c0.3-0.2,0.5-0.1,0.5-0.1c0,0-0.1,0.2-0.3,0.3c-0.2,0.1-0.4,0.3-0.4,0.4
		c-0.1,0.1-0.1,0-0.4,0.2c-0.3,0.2-0.4,0.2-0.4,0.1C328.5,110.4,328.5,110.2,328.5,110.2z"/>
	<path d="M332.3,108c0.2-0.2,0.6-0.5,0.9-0.7c0.4-0.2,0.5-0.1,0.5-0.1c-0.1,0-0.1,0.2-0.3,0.3c-0.2,0.1-0.4,0.3-0.5,0.4
		c-0.1,0.1-0.1,0-0.4,0.3c-0.3,0.3-0.4,0.2-0.4,0.1C332.2,108.2,332.3,108,332.3,108z"/>
	<path d="M332,109.8c0.2,0.3,0.6,0.6,0.8,0.9c0.3,0.3,0.4,0.4,0.3,0.4c0,0-0.2,0-0.5-0.2c-0.2-0.2-0.4-0.4-0.5-0.5
		c-0.1-0.1,0-0.1-0.3-0.4c-0.3-0.3-0.3-0.5-0.1-0.4C331.8,109.7,332,109.8,332,109.8z"/>
	<path d="M335.4,107.2c0.2,0.3,0.7,0.7,1,1c0.3,0.3,0.5,0.5,0.4,0.4c-0.1,0-0.3,0-0.6-0.2c-0.3-0.2-0.5-0.4-0.7-0.5
		c-0.1-0.1-0.1-0.1-0.4-0.5c-0.3-0.4-0.2-0.6-0.1-0.5C335.2,107.1,335.4,107.2,335.4,107.2z"/>
	<path d="M335.7,105.2c0.2-0.2,0.5-0.5,0.8-0.7c0.3-0.2,0.5-0.2,0.4-0.2c0,0,0,0.2-0.2,0.4c-0.2,0.2-0.3,0.3-0.4,0.4
		c-0.1,0.1-0.1,0-0.3,0.3c-0.3,0.2-0.4,0.2-0.4,0.1C335.7,105.4,335.7,105.2,335.7,105.2z"/>
	<path d="M335.2,99.6c0.1,0.2,0.4,0.4,0.5,0.7c0.1,0.3,0,0.4,0,0.4c0,0-0.2-0.1-0.3-0.2c-0.1-0.2-0.2-0.3-0.3-0.3
		c-0.1-0.1,0-0.1-0.2-0.3c-0.2-0.2-0.1-0.4,0-0.3C335.1,99.5,335.2,99.6,335.2,99.6z"/>
</g>
<g>
	<path class="st8" d="M346.2,102.8c0,0-9.2-2.8-11.3-4.6s-1.7-6.1,2-7c-1.4-1.4-0.7-4.1,0.5-4.7s2.8-1.5,2.8-1.5s-1-2.5,1.5-3.7
		c2.5-1.2,4.2-2.2,4.6-2.9c0.4-0.7,0.5-2.5-0.8-3.3c-1-0.9,1.3-0.3,3.5,0.8c2.1,1.1,3,2.3,3,3.9c0,0.6,0,1,0.7,1.4
		c0.7,0.4,1.2,0.6,1.6,1.4c0.4,0.8,0.3,1.8,0.3,1.8s1.8,0.2,2.6,1.3c0.8,1,0.9,3,0.5,3.9c-0.4,0.9-0.7,1.1-0.7,1.1s1,1,1.5,1.5
		c0.5,0.5,1.7,3.7,0.7,4.7c-0.2,0.2-1.1,1.3-1.9,1.7c-3.2,1.7-9.5,3.9-9.5,3.9L346.2,102.8z"/>
	<path class="st9" d="M358.4,100.4c-0.1,1-0.4,2.3-1.1,2.7c-0.7,0.4-1.5,0.5-1.5,0.5s0,0.1,0,0.2c-0.1,0.9-0.7,4.7-0.9,5.9
		c-0.2,1.4-0.7,5-2.5,6c-0.3,0.1-0.5,0.3-0.8,0.4c-1.6,0.7-3.3,1.1-5.7,1.1c-3.2-0.1-4.1-0.4-4.8-0.8c-0.6-0.4-1.3-3.3-1.5-3.6
		c-0.1-0.3-1.2-4.8-1.1-4.9c0.1-0.1-0.5-2.8-0.7-3.8c0-0.2-0.1-0.3-0.1-0.3s-2.4-1-2.5-2.2c-0.2-1.2-0.3-3.5-0.3-3.5
		s1.4,2.1,11.9,2.1c7.1,0,10.3-1.9,10.8-2.1c0.5-0.1,0.6-0.2,0.7,0C358.5,98.3,358.5,99.4,358.4,100.4z"/>
	<path class="st10" d="M355.8,103.8c-0.1,0.9-0.7,4.7-0.9,5.9c-0.2,1.4-0.7,5-2.5,6c-0.3,0.1-0.5,0.3-0.8,0.4c1.5-3.5,2.1-9,1.6-9.9
		c-0.6-1.1-1.4-0.5-3.7-0.4c-2.3,0.2-6.4,0.4-9.4-1.1l-0.9-0.8c0,0,2.7,0.4,5.5,0.4C347.3,104.5,353.5,104.2,355.8,103.8z"/>
	<path class="st11" d="M338.8,92.3c3.3,1.3,4.9,1.7,9.7,1.3c4.7-0.4,8.1-2.3,8.1-2.3s-7.6,1-9.7,1C344.9,92.3,338.8,92.3,338.8,92.3
		z"/>
	<path class="st11" d="M342.6,85c2.2,1,3.3,1.4,6.4,1.1c3.1-0.3,5.3-1.8,5.3-1.8S349.3,85,348,85C346.6,85,342.6,85,342.6,85z"/>
	<path d="M338.9,92.3c-0.5-0.1-1.1-0.3-1.6-0.7c-0.3-0.2-0.5-0.4-0.7-0.7c-0.2-0.3-0.4-0.6-0.4-1c-0.1-0.7-0.2-1.3,0-2
		c0.1-0.3,0.2-0.7,0.4-0.9c0.1-0.1,0.2-0.3,0.3-0.4c0.1-0.1,0.2-0.2,0.4-0.3c0.9-0.8,1.7-1.2,2.2-1.3c0.3-0.1,0.5,0,0.5,0
		c0.1,0.1,0,0.1,0,0c-0.2-0.1-0.5,0.1-0.8,0.3c-0.4,0.3-0.8,0.6-1.5,1.2c-0.7,0.5-1,1.2-1.1,1.9c0,0.3,0,0.6,0,0.9
		c0,0.1,0,0.3,0.1,0.4c0,0.1,0.1,0.2,0.1,0.3c0.1,0.3,0.2,0.4,0.3,0.7c0.1,0.1,0.2,0.3,0.4,0.5c0.2,0.2,0.6,0.4,1.2,0.6
		c1.2,0.3,1.9,0.3,2.2,0.4c0.3,0.1,0.3,0.1-0.1,0.2c-0.4,0-0.8,0.1-1.2,0.1C339.2,92.3,338.9,92.3,338.9,92.3z"/>
	<path d="M334.9,92.9c0.5-0.7,1.1-1,1.5-1.2c0.5-0.2,0.8-0.2,0.9-0.3c0-0.1,0-0.1-0.1-0.2c-0.1,0-0.3-0.1-0.7-0.1
		c-0.3,0-0.7,0.1-1.2,0.3c-0.5,0.3-1,0.7-1.4,1.3c-0.4,0.6-0.6,1.3-0.7,2c-0.1,0.7,0,1.4,0.3,2c0.5,1.2,1.6,2,2.7,2.4
		c1.1,0.4,2.4,0.6,3.7,0.7c1.3,0.1,2.8,0.3,4.6,0.4c3.5,0.2,6.9,0,10-0.7c0.4-0.1,0.8-0.2,1.1-0.3c0.4-0.1,0.7-0.2,1.1-0.4
		c0.7-0.3,1.4-0.7,1.9-1.1c0.6-0.5,1-1.1,1.2-1.8c0.1-0.4,0.1-0.7,0.1-1c0-0.3,0-0.7,0-1c0-0.3-0.1-0.6-0.2-0.9
		c-0.1-0.3-0.3-0.5-0.5-0.7c-0.4-0.3-0.6-0.5-0.8-0.6c-0.2-0.1-0.3-0.2-0.4-0.2c-0.1,0-0.1,0.1,0,0.3c0.1,0.2,0.3,0.4,0.5,0.7
		c0.1,0.1,0.3,0.3,0.4,0.5c0.1,0.2,0.2,0.4,0.2,0.7c0,0.3,0.1,0.6,0.1,1c0,0.4,0,0.8-0.1,1.1c-0.2,0.7-0.9,1.5-1.8,2.1
		c-0.3,0.2-0.5,0.3-0.8,0.4c-0.2,0.1-0.5,0.2-0.8,0.3c-0.2,0.1-0.5,0.2-0.7,0.2c-0.2,0.1-0.4,0.1-0.7,0.2c-0.9,0.2-1.7,0.4-2.5,0.5
		c-0.9,0.1-1.8,0.2-3,0.3c-1.2,0.1-2.6,0.1-4.4,0c-1.5-0.1-2.9-0.2-4.2-0.4c-1.4-0.2-2.7-0.4-3.8-0.9c-0.6-0.3-1.1-0.6-1.5-1
		c-0.1-0.1-0.2-0.2-0.3-0.3l-0.2-0.4l-0.2-0.4c-0.1-0.1-0.1-0.3-0.1-0.4c-0.1-0.5-0.1-1.1,0-1.6C334.4,93.8,334.6,93.3,334.9,92.9z"
		/>
	<path d="M357.7,86.6c0.1,0.5,0.1,1,0.1,1.5c0,0.5-0.2,1-0.4,1.5c-0.2,0.4-0.5,0.8-0.8,0.9c-0.3,0.2-0.6,0.3-0.8,0.4
		c-0.4,0.1-0.9,0.3-1.3,0.3c-0.2,0.1-0.3,0.1-0.5,0.1c-0.1,0-0.2,0.1-0.2,0.3c0,0.1,0.1,0.2,0.2,0.3c0.2,0.1,0.4,0.1,0.7,0.1
		c0.5,0,1-0.2,1.3-0.4c0.1-0.1,0.5-0.3,0.9-0.6c0.4-0.3,0.8-0.8,1-1.4c0.2-0.6,0.3-1.3,0.3-1.8c0-0.6-0.1-1.1-0.2-1.5
		c-0.2-0.7-0.9-1.4-1.6-1.8c-0.7-0.4-1.5-0.5-2.1-0.4c-0.6,0-0.9,0.3-0.9,0.5c0,0.1,0.1,0.1,0.3,0.1c0.2,0,0.4,0,0.8-0.1
		c0.4-0.1,0.7,0,1,0c0.3,0.1,0.6,0.2,0.9,0.3C356.9,85.3,357.4,85.7,357.7,86.6z"/>
	<path d="M343.5,92c0.8,0.1,1.7,0.1,2.7,0.1c0.5,0,1,0,1.4-0.1c0.2,0,0.5-0.1,0.7-0.1c0.1,0,0.2,0,0.3,0c0.1,0,0.2,0,0.4,0
		c0.9,0,1.5-0.1,1.9-0.1c0.4-0.1,0.5-0.1,0.4,0c-0.1,0.1-0.3,0.2-0.6,0.3c-0.3,0.1-0.8,0.2-1.5,0.3c-0.3,0-0.7,0.1-1,0.1
		c-0.3,0-0.6,0.1-0.9,0.1c-0.5,0.1-1,0.1-1.3,0.1c-0.6,0-0.4,0-2.3-0.1c-1.9-0.1-2.3-0.3-1.7-0.4C342.6,92.2,343.5,92,343.5,92z"/>
	<path d="M343.8,85c0.6,0.1,1.4,0.1,2.3,0.1c0.9,0,1.7,0,2.5,0c1.6,0,2.1-0.2,1.9-0.1c-0.1,0.1-0.2,0.2-0.5,0.3
		c-0.3,0.1-0.7,0.2-1.3,0.3c-1.2,0-2.2,0-2.7,0.1c-0.3,0-0.4,0-0.6,0c-0.2,0-0.6,0-1.4-0.1c-0.9-0.1-1.4-0.4-1.5-0.5
		c-0.2-0.2-0.1-0.2,0.1-0.1c0.2,0.1,0.5,0.1,0.8,0.1C343.6,85,343.8,85,343.8,85z"/>
	<path d="M340.4,81.9c0.2-0.2,0.4-0.5,0.7-0.7c0.3-0.2,0.5-0.4,0.9-0.6c0.6-0.3,1.3-0.6,1.9-0.9c0.6-0.3,1.3-0.6,1.8-1.1
		c0.5-0.4,0.8-1,0.8-1.6c0.1-0.6-0.1-1.1-0.4-1.5c-0.2-0.3-0.5-0.6-0.8-0.7c-0.2-0.2-0.4-0.2-0.5-0.3c-0.1,0-0.1-0.1,0,0
		c0.2,0.1,0.5,0.1,1,0.4c0.2,0.1,0.5,0.3,0.7,0.7c0.2,0.3,0.4,0.8,0.4,1.3c0,0.5-0.1,1.1-0.4,1.5c-0.3,0.4-0.6,0.7-0.9,0.9
		c-0.7,0.5-1.2,0.8-1.7,1c-0.4,0.2-0.6,0.3-0.9,0.4c-0.2,0.1-0.4,0.2-0.7,0.3c-0.3,0.2-0.8,0.4-1.2,0.9c-0.5,0.5-0.8,1-0.9,1.3
		c-0.1,0.4-0.1,0.6,0,0.8c0.1,0.1,0.2,0.2,0.1,0.2c0,0-0.1,0-0.1,0c-0.1,0-0.1-0.1-0.2-0.2c-0.1-0.2-0.2-0.4-0.2-0.7
		c0-0.3,0.1-0.5,0.2-0.7C340.1,82.2,340.4,81.9,340.4,81.9z"/>
	<path d="M347.7,74.6c0.7,0.3,1.5,0.8,2.3,1.3c0.4,0.2,0.9,0.5,1.2,0.9c0.4,0.4,0.6,0.8,0.8,1.3c0.3,0.9,0.2,1.6,0.1,2
		c-0.1,0.4-0.2,0.5-0.2,0.3c0-0.1,0-0.3,0-0.7c0-0.3-0.1-0.8-0.3-1.4c-0.2-0.6-0.6-1.1-1-1.4c-0.4-0.3-0.7-0.5-1-0.6
		c-0.3-0.1-0.3-0.2-0.5-0.4c-0.2-0.1-0.5-0.4-1.3-0.8c-0.8-0.4-1.3-0.5-1.6-0.6c-0.2-0.1-0.2-0.1,0.1-0.2c0.3,0,0.7,0,1,0
		c0.2,0,0.3,0,0.4,0.1C347.6,74.5,347.7,74.6,347.7,74.6z"/>
	<path d="M353,80.8c0.1,0.1,0.3,0.2,0.5,0.4c0.2,0.1,0.4,0.3,0.7,0.5c0.4,0.4,0.6,1,0.7,1.5c0.1,0.5,0,0.9-0.1,1.1
		c-0.1,0.2-0.2,0.2-0.1,0.2c0-0.2-0.1-0.5-0.2-1.1c-0.1-0.7-0.5-1.2-0.7-1.3c-0.1-0.1-0.1-0.1-0.2-0.2c-0.1-0.1-0.2-0.2-0.7-0.5
		c-0.4-0.3-0.6-0.7-0.6-0.9c0-0.2,0.1-0.1,0.2,0c0.1,0.1,0.2,0.2,0.4,0.3C352.9,80.7,353,80.8,353,80.8z"/>
	<path d="M335.3,99.7c0,0.5,0,1.2,0.2,1.9c0,0.1,0,0.2,0.1,0.2c0,0.1,0,0.1,0.1,0.2c0.1,0.1,0.2,0.2,0.3,0.4
		c0.2,0.2,0.5,0.5,0.7,0.6c0.5,0.4,0.9,0.6,1.1,0.7c0.2,0.1,0.3,0.1,0.2,0.1c-0.1,0-0.2,0.1-0.5,0.1c-0.3,0-0.6-0.1-1-0.4
		c-0.4-0.3-0.8-0.6-1-0.9c-0.1-0.2-0.2-0.3-0.3-0.5c-0.1-0.2-0.1-0.3-0.1-0.4c-0.1-0.2-0.1-0.3-0.1-0.5c0-0.2,0-0.5-0.1-1.2
		c0-0.7,0.1-1.1,0.1-1.3c0.1-0.2,0.2-0.1,0.2,0C335.1,99.1,335.3,99.7,335.3,99.7z"/>
	<path d="M358.7,99.4c0,0.6,0,1.3-0.2,2.1c-0.1,0.4-0.2,0.8-0.5,1.1c-0.2,0.3-0.5,0.7-0.9,0.8c-0.1,0-0.2,0.1-0.2,0.1
		c-0.1,0-0.2,0.1-0.2,0.1c-0.1,0-0.2,0.1-0.2,0.1c-0.1,0-0.1,0-0.2,0c-0.1,0-0.2,0-0.4,0c-0.1,0-0.2,0-0.3,0c-0.3,0-0.4-0.1-0.3-0.1
		c0.2-0.1,0.7-0.2,1.5-0.6c0.4-0.3,0.7-0.6,0.8-1c0.1-0.2,0.1-0.3,0.2-0.5c0-0.2,0.1-0.3,0.1-0.4c0-0.2,0.1-0.3,0.1-0.5
		c0-0.2,0.1-0.5,0.1-1.2c0-0.7,0-1.2,0.1-1.4c0.1-0.2,0.1-0.2,0.2,0c0,0.2,0.1,0.5,0.1,0.7C358.7,99.2,358.7,99.4,358.7,99.4z"/>
	<path d="M342.5,104.3c1,0.1,2.2,0.1,3.5,0.1c0.3,0,0.7,0,1,0c0.3,0,0.6,0,1,0c0.6,0,1.3-0.1,1.9,0c0.6,0,1.1,0.1,1.5,0.1
		c0.4,0,0.7,0,1-0.1c0.2,0,0.4-0.1,0.4-0.1c0.1,0,0.1,0,0,0c-0.1,0.1-0.4,0.3-0.8,0.4c-0.4,0.1-1.1,0.2-2,0.2
		c-0.9,0-1.7,0.1-2.4,0.1c-0.3,0-0.7,0-1,0c-0.3,0-0.5,0-0.7,0c-0.4,0-0.5,0-0.9,0c-0.3,0-0.9,0-2.2-0.1c-1.3-0.1-2-0.4-2.3-0.5
		c-0.3-0.2-0.2-0.2,0.1-0.1c0.3,0.1,0.8,0.1,1.2,0.1C342.2,104.3,342.5,104.3,342.5,104.3z"/>
	<path d="M338.4,105c-0.1-0.7-0.2-1-0.4-1.1c-0.1-0.1-0.2,0-0.3,0.2c-0.1,0.2-0.2,0.6-0.1,1.1c0.1,1.1,0.4,1.8,0.7,2.7
		c0.1,0.4,0.3,0.8,0.5,1.3c0.1,0.5,0.2,1,0.3,1.7c0.1,0.6,0.2,1.3,0.4,1.9c0.2,0.6,0.3,1.2,0.5,1.7c0.2,0.6,0.3,1.1,0.7,1.6
		c0.3,0.5,0.8,0.9,1.3,1.1c0.5,0.2,0.9,0.1,1.1,0c0.2-0.1,0.2-0.2,0.1-0.3c-0.1-0.1-0.2-0.1-0.3-0.2c-0.1,0-0.1-0.1-0.2-0.1
		c-0.1,0-0.2-0.1-0.3-0.1c-0.4-0.2-0.8-0.4-1.3-1.1c-0.3-0.4-0.4-0.7-0.5-1c-0.1-0.3-0.2-0.6-0.3-0.9c-0.1-0.3-0.2-0.7-0.3-1.1
		c-0.1-0.4-0.2-0.9-0.4-1.6c-0.1-0.5-0.2-1.1-0.3-1.6c-0.1-0.5-0.2-1-0.3-1.5C338.6,106.8,338.4,105.8,338.4,105z"/>
	<path d="M355.7,106.1c0.1-0.6,0.1-1.1-0.1-1.2c-0.2-0.1-0.5,0.2-0.8,1.1c-0.4,1.9,0,3-0.4,5.4c-0.2,1.2-0.6,2.3-1.3,3.2
		c-0.6,0.9-1.5,1.3-2.2,1.6c-0.2,0.1-0.3,0.1-0.5,0.2c-0.1,0.1-0.2,0.1-0.3,0.2c-0.1,0.1-0.2,0.3,0,0.3c0.1,0.1,0.5,0.1,0.9,0
		c0.5-0.1,1.2-0.4,1.8-1.1c0.6-0.7,0.9-1.2,1.2-1.8c0.3-0.6,0.6-1.3,0.8-2.5C355.2,109.5,355.4,107.7,355.7,106.1z"/>
	<path d="M345.7,117.5c-0.4,0-0.7-0.1-0.9-0.2c-0.2-0.1-0.2-0.3-0.2-0.4c0-0.1,0.1-0.2,0.2-0.3c0.1,0,0.2-0.1,0.3,0
		c0.5,0.2,1.2,0.1,1.7,0.1c0.5,0,1-0.1,1.5-0.1c0.2,0,0.6,0,0.9,0.1c0.3,0,0.4,0.1,0.1,0.3c-0.6,0.3-0.8,0.5-1.6,0.6
		c-0.4,0-0.9,0-1.2,0C346,117.5,345.7,117.5,345.7,117.5z"/>
	<path d="M343.1,109.1c0.1,0.2,0.2,0.3,0.4,0.5c0.2,0.2,0.4,0.3,0.5,0.5c0.3,0.3,0.4,0.6,0.3,0.5c0,0-0.2-0.1-0.5-0.3
		c-0.3-0.2-0.5-0.4-0.6-0.5c-0.1-0.1-0.1-0.1-0.3-0.5c-0.3-0.4-0.1-0.6-0.1-0.5C342.9,108.9,343.1,109.1,343.1,109.1z"/>
	<path d="M345.8,112.3c0.1,0.1,0.3,0.3,0.5,0.4c0.2,0.1,0.4,0.3,0.5,0.5c0.3,0.4,0.2,0.6,0.2,0.5c0-0.1-0.2-0.1-0.4-0.3
		c-0.2-0.2-0.4-0.3-0.6-0.4c-0.1-0.1-0.1-0.1-0.4-0.4c-0.3-0.3-0.3-0.5-0.1-0.4C345.6,112.2,345.8,112.3,345.8,112.3z"/>
	<path d="M342.5,112.9c0.2,0,0.4-0.3,0.7-0.4c0.3-0.1,0.4,0,0.4,0c0,0-0.1,0.2-0.2,0.3c-0.2,0.1-0.3,0.2-0.4,0.3
		c-0.1,0.1-0.1,0-0.3,0.1c-0.2,0.1-0.3,0-0.3,0c0,0,0-0.1,0-0.1C342.4,113.1,342.5,112.9,342.5,112.9z"/>
	<path d="M345.8,110.6c0.4-0.3,0.9-0.7,1.3-1.1c0.4-0.4,0.7-0.4,0.6-0.4c-0.1,0.1-0.1,0.3-0.4,0.6c-0.3,0.3-0.5,0.5-0.7,0.7
		c-0.1,0.2-0.1,0.1-0.6,0.4c-0.2,0.2-0.4,0.3-0.5,0.3c-0.1,0-0.1-0.1,0-0.1C345.7,110.8,345.8,110.6,345.8,110.6z"/>
	<path d="M347.9,106.5c0.2,0.3,0.7,0.7,1,1.1c0.3,0.4,0.3,0.6,0.2,0.6c0-0.1-0.2-0.1-0.4-0.4c-0.2-0.3-0.5-0.4-0.6-0.5
		c-0.1-0.1,0-0.1-0.4-0.5c-0.3-0.4-0.2-0.6-0.1-0.5C347.7,106.4,347.9,106.5,347.9,106.5z"/>
	<path d="M350.2,108c0.2,0,0.5-0.3,0.7-0.4c0.2-0.1,0.4-0.2,0.3-0.1c0,0,0,0.2-0.1,0.3c-0.2,0.1-0.3,0.3-0.4,0.3
		c-0.1,0.1-0.1,0-0.3,0.1c-0.3,0.1-0.4-0.1-0.3-0.1C350.1,108.1,350.2,108,350.2,108z"/>
	<path d="M350,109.2c0.2,0.3,0.6,0.7,0.9,1.1c0.3,0.4,0.4,0.5,0.3,0.5c-0.1,0-0.3,0-0.5-0.3c-0.2-0.3-0.4-0.5-0.6-0.6
		c-0.1-0.1,0-0.1-0.3-0.5c-0.3-0.4-0.3-0.5-0.1-0.5C349.7,109.1,350,109.2,350,109.2z"/>
	<path d="M343.9,107c0.4-0.2,0.8-0.7,1.3-0.9c0.5-0.3,0.8-0.2,0.7-0.1c-0.1,0-0.2,0.2-0.5,0.4c-0.3,0.2-0.6,0.4-0.7,0.5
		c-0.1,0.1-0.1,0-0.6,0.4c-0.5,0.3-0.6,0.2-0.5,0.1C343.8,107.2,343.9,107,343.9,107z"/>
	<path d="M341.3,106.2c0.2,0.3,0.6,0.6,0.8,1c0.2,0.4,0.2,0.6,0.1,0.5c0-0.1-0.2-0.1-0.4-0.3c-0.2-0.2-0.4-0.4-0.5-0.5
		c-0.1-0.1,0-0.1-0.3-0.4c-0.3-0.3-0.2-0.5-0.1-0.4C341.1,106.1,341.3,106.2,341.3,106.2z"/>
	<path d="M340.3,109.8c0.2-0.1,0.5-0.4,0.8-0.6c0.3-0.1,0.5-0.1,0.4-0.1c0,0-0.1,0.2-0.3,0.3c-0.2,0.1-0.3,0.3-0.4,0.3
		c-0.1,0.1-0.1,0-0.3,0.2c-0.3,0.2-0.4,0.1-0.4,0C340.2,109.9,340.3,109.8,340.3,109.8z"/>
	<path d="M345.5,115.6c0.2-0.2,0.5-0.5,0.9-0.7c0.3-0.2,0.5-0.1,0.5-0.1c0,0-0.1,0.2-0.3,0.3c-0.2,0.1-0.4,0.3-0.4,0.4
		c-0.1,0.1-0.1,0-0.4,0.2c-0.3,0.2-0.4,0.2-0.4,0.1C345.4,115.8,345.5,115.6,345.5,115.6z"/>
	<path d="M349.2,113.4c0.2-0.2,0.6-0.5,0.9-0.7c0.4-0.2,0.5-0.1,0.5-0.1c-0.1,0-0.1,0.2-0.3,0.3c-0.2,0.1-0.4,0.3-0.5,0.4
		c-0.1,0.1-0.1,0-0.4,0.3c-0.3,0.3-0.4,0.2-0.4,0.1C349.2,113.6,349.2,113.4,349.2,113.4z"/>
	<path d="M348.9,115.2c0.2,0.3,0.6,0.6,0.8,0.9c0.3,0.3,0.4,0.4,0.3,0.4c0,0-0.2,0-0.5-0.2c-0.2-0.2-0.4-0.4-0.5-0.5
		c-0.1-0.1,0-0.1-0.3-0.4c-0.3-0.3-0.3-0.5-0.1-0.4C348.7,115.1,348.9,115.2,348.9,115.2z"/>
	<path d="M352.3,112.6c0.2,0.3,0.7,0.7,1,1c0.3,0.3,0.5,0.5,0.4,0.4c-0.1,0-0.3,0-0.6-0.2c-0.3-0.2-0.5-0.4-0.7-0.5
		c-0.1-0.1-0.1-0.1-0.4-0.5c-0.3-0.4-0.2-0.6-0.1-0.5C352.1,112.5,352.3,112.6,352.3,112.6z"/>
	<path d="M352.7,110.6c0.2-0.2,0.5-0.5,0.8-0.7c0.3-0.2,0.5-0.2,0.4-0.2c0,0,0,0.2-0.2,0.4c-0.2,0.2-0.3,0.3-0.4,0.4
		c-0.1,0.1-0.1,0-0.3,0.3c-0.3,0.2-0.4,0.2-0.4,0.1C352.6,110.8,352.7,110.6,352.7,110.6z"/>
	<path d="M352.1,105c0.1,0.2,0.4,0.4,0.5,0.7c0.1,0.3,0,0.4,0,0.4c0,0-0.2-0.1-0.3-0.2c-0.1-0.2-0.2-0.3-0.3-0.3
		c-0.1-0.1,0-0.1-0.2-0.3c-0.2-0.2-0.1-0.4,0-0.3C352,104.9,352.1,105,352.1,105z"/>
</g>
<g>
	<path class="st8" d="M363.6,107.3c0,0-9.2-2.8-11.3-4.6c-2-1.9-1.7-6.1,2-7c-1.4-1.4-0.7-4.1,0.5-4.7c1.2-0.6,2.8-1.5,2.8-1.5
		s-1-2.5,1.5-3.7c2.5-1.2,4.2-2.2,4.6-2.9c0.4-0.7,0.5-2.5-0.8-3.3c-1-0.9,1.3-0.3,3.5,0.8c2.1,1.1,3,2.3,3,3.9c0,0.6,0,1,0.7,1.4
		c0.7,0.4,1.2,0.6,1.6,1.4c0.4,0.8,0.3,1.8,0.3,1.8s1.8,0.2,2.6,1.3c0.8,1,0.9,3,0.5,3.9c-0.4,0.9-0.7,1.1-0.7,1.1s1,1,1.5,1.5
		c0.5,0.5,1.7,3.7,0.7,4.7c-0.2,0.2-1.1,1.3-1.9,1.7c-3.2,1.7-9.5,3.9-9.5,3.9L363.6,107.3z"/>
	<path class="st9" d="M375.7,105c-0.1,1-0.4,2.3-1.1,2.7c-0.7,0.4-1.5,0.5-1.5,0.5s0,0.1,0,0.2c-0.1,0.9-0.7,4.7-0.9,5.9
		c-0.2,1.4-0.7,5-2.5,6c-0.3,0.1-0.5,0.3-0.8,0.4c-1.6,0.7-3.3,1.1-5.7,1.1c-3.2-0.1-4.1-0.4-4.8-0.8c-0.6-0.4-1.3-3.3-1.5-3.6
		c-0.1-0.3-1.2-4.8-1.1-4.9c0.1-0.1-0.5-2.8-0.7-3.8c0-0.2-0.1-0.3-0.1-0.3s-2.4-1-2.5-2.2c-0.2-1.2-0.3-3.5-0.3-3.5
		s1.4,2.1,11.9,2.1c7.1,0,10.3-1.9,10.8-2.1c0.5-0.1,0.6-0.2,0.7,0C375.9,102.9,375.9,103.9,375.7,105z"/>
	<path class="st10" d="M373.1,108.4c-0.1,0.9-0.7,4.7-0.9,5.9c-0.2,1.4-0.7,5-2.5,6c-0.3,0.1-0.5,0.3-0.8,0.4c1.5-3.5,2.1-9,1.6-9.9
		c-0.6-1.1-1.4-0.5-3.7-0.4c-2.3,0.2-6.4,0.4-9.4-1.1l-0.9-0.8c0,0,2.7,0.4,5.5,0.4C364.6,109.1,370.8,108.7,373.1,108.4z"/>
	<path class="st11" d="M356.2,96.8c3.3,1.3,4.9,1.7,9.7,1.3c4.7-0.4,8.1-2.3,8.1-2.3s-7.6,1-9.7,1C362.2,96.8,356.2,96.8,356.2,96.8
		z"/>
	<path class="st11" d="M360,89.6c2.2,1,3.3,1.4,6.4,1.1s5.3-1.8,5.3-1.8s-5.1,0.8-6.4,0.8C364,89.6,360,89.6,360,89.6z"/>
	<path d="M356.3,96.8c-0.5-0.1-1.1-0.3-1.6-0.7c-0.3-0.2-0.5-0.4-0.7-0.7c-0.2-0.3-0.4-0.6-0.4-1c-0.1-0.7-0.2-1.3,0-2
		c0.1-0.3,0.2-0.7,0.4-0.9c0.1-0.1,0.2-0.3,0.3-0.4c0.1-0.1,0.2-0.2,0.4-0.3c0.9-0.8,1.7-1.2,2.2-1.3c0.3-0.1,0.5,0,0.5,0
		c0.1,0.1,0,0.1,0,0c-0.2-0.1-0.5,0.1-0.8,0.3c-0.4,0.3-0.8,0.6-1.5,1.2c-0.7,0.5-1,1.2-1.1,1.9c0,0.3,0,0.6,0,0.9
		c0,0.1,0,0.3,0.1,0.4c0,0.1,0.1,0.2,0.1,0.3c0.1,0.3,0.2,0.4,0.3,0.7c0.1,0.1,0.2,0.3,0.4,0.5c0.2,0.2,0.6,0.4,1.2,0.6
		c1.2,0.3,1.9,0.3,2.2,0.4c0.3,0.1,0.3,0.1-0.1,0.2c-0.4,0-0.8,0.1-1.2,0.1C356.6,96.8,356.3,96.8,356.3,96.8z"/>
	<path d="M352.3,97.4c0.5-0.7,1.1-1,1.5-1.2c0.5-0.2,0.8-0.2,0.9-0.3c0-0.1,0-0.1-0.1-0.2c-0.1,0-0.3-0.1-0.7-0.1
		c-0.3,0-0.7,0.1-1.2,0.3c-0.5,0.3-1,0.7-1.4,1.3c-0.4,0.6-0.6,1.3-0.7,2c-0.1,0.7,0,1.4,0.3,2c0.5,1.2,1.6,2,2.7,2.4
		c1.1,0.4,2.4,0.6,3.7,0.7c1.3,0.1,2.8,0.3,4.6,0.4c3.5,0.2,6.9,0,10-0.7c0.4-0.1,0.8-0.2,1.1-0.3c0.4-0.1,0.7-0.2,1.1-0.4
		c0.7-0.3,1.4-0.7,1.9-1.1c0.6-0.5,1-1.1,1.2-1.8c0.1-0.4,0.1-0.7,0.1-1c0-0.3,0-0.7,0-1c0-0.3-0.1-0.6-0.2-0.9
		c-0.1-0.3-0.3-0.5-0.5-0.7c-0.4-0.3-0.6-0.5-0.8-0.6c-0.2-0.1-0.3-0.2-0.4-0.2c-0.1,0-0.1,0.1,0,0.3c0.1,0.2,0.3,0.4,0.5,0.7
		c0.1,0.1,0.3,0.3,0.4,0.5c0.1,0.2,0.2,0.4,0.2,0.7c0,0.3,0.1,0.6,0.1,1c0,0.4,0,0.8-0.1,1.1c-0.2,0.7-0.9,1.5-1.8,2.1
		c-0.3,0.2-0.5,0.3-0.8,0.4c-0.2,0.1-0.5,0.2-0.8,0.3c-0.2,0.1-0.5,0.2-0.7,0.2c-0.2,0.1-0.4,0.1-0.7,0.2c-0.9,0.2-1.7,0.4-2.5,0.5
		c-0.9,0.1-1.8,0.2-3,0.3c-1.2,0.1-2.6,0.1-4.4,0c-1.5-0.1-2.9-0.2-4.2-0.4c-1.4-0.2-2.7-0.4-3.8-0.9c-0.6-0.3-1.1-0.6-1.5-1
		c-0.1-0.1-0.2-0.2-0.3-0.3l-0.2-0.4l-0.2-0.4c-0.1-0.1-0.1-0.3-0.1-0.4c-0.1-0.5-0.1-1.1,0-1.6C351.7,98.4,352,97.9,352.3,97.4z"/>
	<path d="M375.1,91.1c0.1,0.5,0.1,1,0.1,1.5c0,0.5-0.2,1-0.4,1.5c-0.2,0.4-0.5,0.8-0.8,0.9c-0.3,0.2-0.6,0.3-0.8,0.4
		c-0.4,0.1-0.9,0.3-1.3,0.3c-0.2,0.1-0.3,0.1-0.5,0.1c-0.1,0-0.2,0.1-0.2,0.3c0,0.1,0.1,0.2,0.2,0.3c0.2,0.1,0.4,0.1,0.7,0.1
		c0.5,0,1-0.2,1.3-0.4c0.1-0.1,0.5-0.3,0.9-0.6c0.4-0.3,0.8-0.8,1-1.4c0.2-0.6,0.3-1.3,0.3-1.8c0-0.6-0.1-1.1-0.2-1.5
		c-0.2-0.7-0.9-1.4-1.6-1.8c-0.7-0.4-1.5-0.5-2.1-0.4c-0.6,0-0.9,0.3-0.9,0.5c0,0.1,0.1,0.1,0.3,0.1c0.2,0,0.4,0,0.8-0.1
		c0.4-0.1,0.7,0,1,0c0.3,0.1,0.6,0.2,0.9,0.3C374.3,89.8,374.8,90.3,375.1,91.1z"/>
	<path d="M360.9,96.6c0.8,0.1,1.7,0.1,2.7,0.1c0.5,0,1,0,1.4-0.1c0.2,0,0.5-0.1,0.7-0.1c0.1,0,0.2,0,0.3,0c0.1,0,0.2,0,0.4,0
		c0.9,0,1.5-0.1,1.9-0.1c0.4-0.1,0.5-0.1,0.4,0c-0.1,0.1-0.3,0.2-0.6,0.3c-0.3,0.1-0.8,0.2-1.5,0.3c-0.3,0-0.7,0.1-1,0.1
		c-0.3,0-0.6,0.1-0.9,0.1c-0.5,0.1-1,0.1-1.3,0.1c-0.6,0-0.4,0-2.3-0.1c-1.9-0.1-2.3-0.3-1.7-0.4C359.9,96.7,360.9,96.6,360.9,96.6z
		"/>
	<path d="M361.1,89.5c0.6,0.1,1.4,0.1,2.3,0.1c0.9,0,1.7,0,2.5,0c1.6,0,2.1-0.2,1.9-0.1c-0.1,0.1-0.2,0.2-0.5,0.3
		c-0.3,0.1-0.7,0.2-1.3,0.3c-1.2,0-2.2,0-2.7,0.1c-0.3,0-0.4,0-0.6,0c-0.2,0-0.6,0-1.4-0.1c-0.9-0.1-1.4-0.4-1.5-0.5
		c-0.2-0.2-0.1-0.2,0.1-0.1c0.2,0.1,0.5,0.1,0.8,0.1C361,89.5,361.1,89.5,361.1,89.5z"/>
	<path d="M357.7,86.4c0.2-0.2,0.4-0.5,0.7-0.7c0.3-0.2,0.5-0.4,0.9-0.6c0.6-0.3,1.3-0.6,1.9-0.9c0.6-0.3,1.3-0.6,1.8-1.1
		c0.5-0.4,0.8-1,0.8-1.6c0.1-0.6-0.1-1.1-0.4-1.5c-0.2-0.3-0.5-0.6-0.8-0.7c-0.2-0.2-0.4-0.2-0.5-0.3c-0.1,0-0.1-0.1,0,0
		c0.2,0.1,0.5,0.1,1,0.4c0.2,0.1,0.5,0.3,0.7,0.7c0.2,0.3,0.4,0.8,0.4,1.3c0,0.5-0.1,1.1-0.4,1.5c-0.3,0.4-0.6,0.7-0.9,0.9
		c-0.7,0.5-1.2,0.8-1.7,1c-0.4,0.2-0.6,0.3-0.9,0.4c-0.2,0.1-0.4,0.2-0.7,0.3c-0.3,0.2-0.8,0.4-1.2,0.9c-0.5,0.5-0.8,1-0.9,1.3
		c-0.1,0.4-0.1,0.6,0,0.8c0.1,0.1,0.2,0.2,0.1,0.2c0,0-0.1,0-0.1,0c-0.1,0-0.1-0.1-0.2-0.2c-0.1-0.2-0.2-0.4-0.2-0.7
		c0-0.3,0.1-0.5,0.2-0.7C357.5,86.7,357.7,86.4,357.7,86.4z"/>
	<path d="M365.1,79.1c0.7,0.3,1.5,0.8,2.3,1.3c0.4,0.2,0.9,0.5,1.2,0.9c0.4,0.4,0.6,0.8,0.8,1.3c0.3,0.9,0.2,1.6,0.1,2
		c-0.1,0.4-0.2,0.5-0.2,0.3c0-0.1,0-0.3,0-0.7c0-0.3-0.1-0.8-0.3-1.4c-0.2-0.6-0.6-1.1-1-1.4c-0.4-0.3-0.7-0.5-1-0.6
		c-0.3-0.1-0.3-0.2-0.5-0.4c-0.2-0.1-0.5-0.4-1.3-0.8c-0.8-0.4-1.3-0.5-1.6-0.6c-0.2-0.1-0.2-0.1,0.1-0.2c0.3,0,0.7,0,1,0
		c0.2,0,0.3,0,0.4,0.1C365,79.1,365.1,79.1,365.1,79.1z"/>
	<path d="M370.4,85.3c0.1,0.1,0.3,0.2,0.5,0.4c0.2,0.1,0.4,0.3,0.7,0.5c0.4,0.4,0.6,1,0.7,1.5c0.1,0.5,0,0.9-0.1,1.1
		c-0.1,0.2-0.2,0.2-0.1,0.2c0-0.2-0.1-0.5-0.2-1.1c-0.1-0.7-0.5-1.2-0.7-1.3c-0.1-0.1-0.1-0.1-0.2-0.2c-0.1-0.1-0.2-0.2-0.7-0.5
		c-0.4-0.3-0.6-0.7-0.6-0.9c0-0.2,0.1-0.1,0.2,0c0.1,0.1,0.2,0.2,0.4,0.3C370.3,85.3,370.4,85.3,370.4,85.3z"/>
	<path d="M352.7,104.3c0,0.5,0,1.2,0.2,1.9c0,0.1,0,0.2,0.1,0.2c0,0.1,0,0.1,0.1,0.2c0.1,0.1,0.2,0.2,0.3,0.4
		c0.2,0.2,0.5,0.5,0.7,0.6c0.5,0.4,0.9,0.6,1.1,0.7c0.2,0.1,0.3,0.1,0.2,0.1c-0.1,0-0.2,0.1-0.5,0.1c-0.3,0-0.6-0.1-1-0.4
		c-0.4-0.3-0.8-0.6-1-0.9c-0.1-0.2-0.2-0.3-0.3-0.5c-0.1-0.2-0.1-0.3-0.1-0.4c-0.1-0.2-0.1-0.3-0.1-0.5c0-0.2,0-0.5-0.1-1.2
		c0-0.7,0.1-1.1,0.1-1.3c0.1-0.2,0.2-0.1,0.2,0C352.5,103.6,352.7,104.3,352.7,104.3z"/>
	<path d="M376.1,104c0,0.6,0,1.3-0.2,2.1c-0.1,0.4-0.2,0.8-0.5,1.1c-0.2,0.3-0.5,0.7-0.9,0.8c-0.1,0-0.2,0.1-0.2,0.1
		c-0.1,0-0.2,0.1-0.2,0.1c-0.1,0-0.2,0.1-0.2,0.1c-0.1,0-0.1,0-0.2,0c-0.1,0-0.2,0-0.4,0c-0.1,0-0.2,0-0.3,0c-0.3,0-0.4-0.1-0.3-0.1
		c0.2-0.1,0.7-0.2,1.5-0.6c0.4-0.3,0.7-0.6,0.8-1c0.1-0.2,0.1-0.3,0.2-0.5c0-0.2,0.1-0.3,0.1-0.4c0-0.2,0.1-0.3,0.1-0.5
		c0-0.2,0.1-0.5,0.1-1.2c0-0.7,0-1.2,0.1-1.4c0.1-0.2,0.1-0.2,0.2,0c0,0.2,0.1,0.5,0.1,0.7C376.1,103.8,376.1,104,376.1,104z"/>
	<path d="M359.9,108.8c1,0.1,2.2,0.1,3.5,0.1c0.3,0,0.7,0,1,0c0.3,0,0.6,0,1,0c0.6,0,1.3-0.1,1.9,0c0.6,0,1.1,0.1,1.5,0.1
		c0.4,0,0.7,0,1-0.1c0.2,0,0.4-0.1,0.4-0.1c0.1,0,0.1,0,0,0c-0.1,0.1-0.4,0.3-0.8,0.4c-0.4,0.1-1.1,0.2-2,0.2
		c-0.9,0-1.7,0.1-2.4,0.1c-0.3,0-0.7,0-1,0c-0.3,0-0.5,0-0.7,0c-0.4,0-0.5,0-0.9,0c-0.3,0-0.9,0-2.2-0.1c-1.3-0.1-2-0.4-2.3-0.5
		c-0.3-0.2-0.2-0.2,0.1-0.1c0.3,0.1,0.8,0.1,1.2,0.1C359.6,108.8,359.9,108.8,359.9,108.8z"/>
	<path d="M355.7,109.5c-0.1-0.7-0.2-1-0.4-1.1c-0.1-0.1-0.2,0-0.3,0.2c-0.1,0.2-0.2,0.6-0.1,1.1c0.1,1.1,0.4,1.8,0.7,2.7
		c0.1,0.4,0.3,0.8,0.5,1.3c0.1,0.5,0.2,1,0.3,1.7c0.1,0.6,0.2,1.3,0.4,1.9c0.2,0.6,0.3,1.2,0.5,1.7c0.2,0.6,0.3,1.1,0.7,1.6
		c0.3,0.5,0.8,0.9,1.3,1.1c0.5,0.2,0.9,0.1,1.1,0c0.2-0.1,0.2-0.2,0.1-0.3c-0.1-0.1-0.2-0.1-0.3-0.2c-0.1,0-0.1-0.1-0.2-0.1
		c-0.1,0-0.2-0.1-0.3-0.1c-0.4-0.2-0.8-0.4-1.3-1.1c-0.3-0.4-0.4-0.7-0.5-1c-0.1-0.3-0.2-0.6-0.3-0.9c-0.1-0.3-0.2-0.7-0.3-1.1
		c-0.1-0.4-0.2-0.9-0.4-1.6c-0.1-0.5-0.2-1.1-0.3-1.6c-0.1-0.5-0.2-1-0.3-1.5C356,111.3,355.8,110.4,355.7,109.5z"/>
	<path d="M373.1,110.7c0.1-0.6,0.1-1.1-0.1-1.2c-0.2-0.1-0.5,0.2-0.8,1.1c-0.4,1.9,0,3-0.4,5.4c-0.2,1.2-0.6,2.3-1.3,3.2
		c-0.6,0.9-1.5,1.3-2.2,1.6c-0.2,0.1-0.3,0.1-0.5,0.2c-0.1,0.1-0.2,0.1-0.3,0.2c-0.1,0.1-0.2,0.3,0,0.3c0.1,0.1,0.5,0.1,0.9,0
		c0.5-0.1,1.2-0.4,1.8-1.1c0.6-0.7,0.9-1.2,1.2-1.8c0.3-0.6,0.6-1.3,0.8-2.5C372.5,114.1,372.7,112.3,373.1,110.7z"/>
	<path d="M363,122c-0.4,0-0.7-0.1-0.9-0.2c-0.2-0.1-0.2-0.3-0.2-0.4c0-0.1,0.1-0.2,0.2-0.3c0.1,0,0.2-0.1,0.3,0
		c0.5,0.2,1.2,0.1,1.7,0.1c0.5,0,1-0.1,1.5-0.1c0.2,0,0.6,0,0.9,0.1c0.3,0,0.4,0.1,0.1,0.3c-0.6,0.3-0.8,0.5-1.6,0.6
		c-0.4,0-0.9,0-1.2,0C363.3,122.1,363,122,363,122z"/>
	<path d="M360.5,113.6c0.1,0.2,0.2,0.3,0.4,0.5c0.2,0.2,0.4,0.3,0.5,0.5c0.3,0.3,0.4,0.6,0.3,0.5c0,0-0.2-0.1-0.5-0.3
		c-0.3-0.2-0.5-0.4-0.6-0.5c-0.1-0.1-0.1-0.1-0.3-0.5c-0.3-0.4-0.1-0.6-0.1-0.5C360.3,113.5,360.5,113.6,360.5,113.6z"/>
	<path d="M363.2,116.8c0.1,0.1,0.3,0.3,0.5,0.4c0.2,0.1,0.4,0.3,0.5,0.5c0.3,0.4,0.2,0.6,0.2,0.5c0-0.1-0.2-0.1-0.4-0.3
		c-0.2-0.2-0.4-0.3-0.6-0.4c-0.1-0.1-0.1-0.1-0.4-0.4c-0.3-0.3-0.3-0.5-0.1-0.4C363,116.8,363.2,116.8,363.2,116.8z"/>
	<path d="M359.9,117.5c0.2,0,0.4-0.3,0.7-0.4c0.3-0.1,0.4,0,0.4,0c0,0-0.1,0.2-0.2,0.3c-0.2,0.1-0.3,0.2-0.4,0.3
		c-0.1,0.1-0.1,0-0.3,0.1c-0.2,0.1-0.3,0-0.3,0c0,0,0-0.1,0-0.1C359.8,117.6,359.9,117.5,359.9,117.5z"/>
	<path d="M363.2,115.2c0.4-0.3,0.9-0.7,1.3-1.1c0.4-0.4,0.7-0.4,0.6-0.4c-0.1,0.1-0.1,0.3-0.4,0.6c-0.3,0.3-0.5,0.5-0.7,0.7
		c-0.1,0.2-0.1,0.1-0.6,0.4c-0.2,0.2-0.4,0.3-0.5,0.3c-0.1,0-0.1-0.1,0-0.1C363,115.4,363.2,115.2,363.2,115.2z"/>
	<path d="M365.3,111.1c0.2,0.3,0.7,0.7,1,1.1c0.3,0.4,0.3,0.6,0.2,0.6c0-0.1-0.2-0.1-0.4-0.4c-0.2-0.3-0.5-0.4-0.6-0.5
		c-0.1-0.1,0-0.1-0.4-0.5c-0.3-0.4-0.2-0.6-0.1-0.5C365,111,365.3,111.1,365.3,111.1z"/>
	<path d="M367.5,112.5c0.2,0,0.5-0.3,0.7-0.4c0.2-0.1,0.4-0.2,0.3-0.1c0,0,0,0.2-0.1,0.3c-0.2,0.1-0.3,0.3-0.4,0.3
		c-0.1,0.1-0.1,0-0.3,0.1c-0.3,0.1-0.4-0.1-0.3-0.1C367.4,112.6,367.5,112.5,367.5,112.5z"/>
	<path d="M367.3,113.7c0.2,0.3,0.6,0.7,0.9,1.1c0.3,0.4,0.4,0.5,0.3,0.5c-0.1,0-0.3,0-0.5-0.3c-0.2-0.3-0.4-0.5-0.6-0.6
		c-0.1-0.1,0-0.1-0.3-0.5c-0.3-0.4-0.3-0.5-0.1-0.5C367.1,113.6,367.3,113.7,367.3,113.7z"/>
	<path d="M361.3,111.6c0.4-0.2,0.8-0.7,1.3-0.9c0.5-0.3,0.8-0.2,0.7-0.1c-0.1,0-0.2,0.2-0.5,0.4c-0.3,0.2-0.6,0.4-0.7,0.5
		c-0.1,0.1-0.1,0-0.6,0.4c-0.5,0.3-0.6,0.2-0.5,0.1C361.1,111.8,361.3,111.6,361.3,111.6z"/>
	<path d="M358.7,110.7c0.2,0.3,0.6,0.6,0.8,1c0.2,0.4,0.2,0.6,0.1,0.5c0-0.1-0.2-0.1-0.4-0.3c-0.2-0.2-0.4-0.4-0.5-0.5
		c-0.1-0.1,0-0.1-0.3-0.4c-0.3-0.3-0.2-0.5-0.1-0.4C358.5,110.6,358.7,110.7,358.7,110.7z"/>
	<path d="M357.7,114.3c0.2-0.1,0.5-0.4,0.8-0.6c0.3-0.1,0.5-0.1,0.4-0.1c0,0-0.1,0.2-0.3,0.3c-0.2,0.1-0.3,0.3-0.4,0.3
		c-0.1,0.1-0.1,0-0.3,0.2c-0.3,0.2-0.4,0.1-0.4,0C357.6,114.5,357.7,114.3,357.7,114.3z"/>
	<path d="M362.8,120.2c0.2-0.2,0.5-0.5,0.9-0.7c0.3-0.2,0.5-0.1,0.5-0.1c0,0-0.1,0.2-0.3,0.3c-0.2,0.1-0.4,0.3-0.4,0.4
		c-0.1,0.1-0.1,0-0.4,0.2c-0.3,0.2-0.4,0.2-0.4,0.1C362.8,120.4,362.8,120.2,362.8,120.2z"/>
	<path d="M366.6,117.9c0.2-0.2,0.6-0.5,0.9-0.7c0.4-0.2,0.5-0.1,0.5-0.1c-0.1,0-0.1,0.2-0.3,0.3c-0.2,0.1-0.4,0.3-0.5,0.4
		c-0.1,0.1-0.1,0-0.4,0.3c-0.3,0.3-0.4,0.2-0.4,0.1C366.5,118.1,366.6,117.9,366.6,117.9z"/>
	<path d="M366.3,119.7c0.2,0.3,0.6,0.6,0.8,0.9c0.3,0.3,0.4,0.4,0.3,0.4c0,0-0.2,0-0.5-0.2c-0.2-0.2-0.4-0.4-0.5-0.5
		c-0.1-0.1,0-0.1-0.3-0.4c-0.3-0.3-0.3-0.5-0.1-0.4C366.1,119.7,366.3,119.7,366.3,119.7z"/>
	<path d="M369.7,117.2c0.2,0.3,0.7,0.7,1,1c0.3,0.3,0.5,0.5,0.4,0.4c-0.1,0-0.3,0-0.6-0.2c-0.3-0.2-0.5-0.4-0.7-0.5
		c-0.1-0.1-0.1-0.1-0.4-0.5c-0.3-0.4-0.2-0.6-0.1-0.5C369.5,117.1,369.7,117.2,369.7,117.2z"/>
	<path d="M370,115.1c0.2-0.2,0.5-0.5,0.8-0.7c0.3-0.2,0.5-0.2,0.4-0.2c0,0,0,0.2-0.2,0.4c-0.2,0.2-0.3,0.3-0.4,0.4
		c-0.1,0.1-0.1,0-0.3,0.3c-0.3,0.2-0.4,0.2-0.4,0.1C370,115.3,370,115.1,370,115.1z"/>
	<path d="M369.5,109.5c0.1,0.2,0.4,0.4,0.5,0.7c0.1,0.3,0,0.4,0,0.4c0,0-0.2-0.1-0.3-0.2c-0.1-0.2-0.2-0.3-0.3-0.3
		c-0.1-0.1,0-0.1-0.2-0.3c-0.2-0.2-0.1-0.4,0-0.3C369.4,109.5,369.5,109.5,369.5,109.5z"/>
</g>
</svg>
